<svg width="19" height="11" viewBox="0 0 19 11" fill="none" xmlns="http://www.w3.org/2000/svg">
<path d="M17.985 0.499644C18.6373 1.16008 18.6308 2.22432 17.9704 2.87668L10.4231 10.3316C9.7627 10.984 8.69847 10.9774 8.0461 10.317C7.39374 9.65656 7.40029 8.59232 8.06073 7.93996L15.6079 0.485022C16.2684 -0.167341 17.3326 -0.160795 17.985 0.499644Z" fill="#C4C4C4"/>
<path d="M0.499643 0.497478C1.16008 -0.154886 2.22432 -0.148339 2.87668 0.5121L10.3316 8.05932C10.984 8.71976 10.9774 9.784 10.317 10.4364C9.65655 11.0887 8.59232 11.0822 7.93995 10.4217L0.485021 2.87452C-0.167341 2.21408 -0.160795 1.14984 0.499643 0.497478Z" fill="#C4C4C4"/>
</svg>
