<svg width="55" height="38" viewBox="0 0 55 38" fill="none" xmlns="http://www.w3.org/2000/svg">
<path d="M46.044 25.6501L37.2556 15.3173L45.0617 10.8638C45.8244 10.4288 46.0899 9.45765 45.6549 8.69501C45.2198 7.93227 44.2485 7.66665 43.4861 8.10176C42.8333 8.47412 28.0411 16.9132 27.3146 17.3277C26.5846 16.9111 11.7889 8.47009 11.1432 8.10176C10.3805 7.66675 9.40969 7.93206 8.97436 8.69501C8.53936 9.45765 8.80477 10.4287 9.56762 10.8638L17.3737 15.3173L8.58515 25.6501C8.01627 26.3191 8.09725 27.3223 8.76619 27.8913C9.43502 28.4604 10.4388 28.379 11.0074 27.7103L20.1841 16.9208L26.5268 20.5394C27.0151 20.8179 27.6143 20.8178 28.1024 20.5394L34.4451 16.9208L43.6218 27.7103C44.1908 28.3794 45.1946 28.46 45.863 27.8913C46.5319 27.3224 46.6129 26.3191 46.044 25.6501Z" fill="#333333"/>
<path d="M49.6796 0.609131H4.94948C2.31942 0.609131 0.179688 2.74886 0.179688 5.37893V32.9377C0.179688 35.5678 2.31942 37.7075 4.94948 37.7075H49.6796C52.3096 37.7075 54.4494 35.5678 54.4494 32.9377V5.37893C54.4494 2.74886 52.3096 0.609131 49.6796 0.609131ZM51.2695 32.9377C51.2695 33.8144 50.5562 34.5277 49.6796 34.5277H4.94948C4.07279 34.5277 3.35955 33.8144 3.35955 32.9377V5.37893C3.35955 4.50224 4.07279 3.78899 4.94948 3.78899H49.6796C50.5562 3.78899 51.2695 4.50224 51.2695 5.37893V32.9377Z" fill="#333333"/>
</svg>
