<svg width="54" height="54" viewBox="0 0 54 54" fill="none" xmlns="http://www.w3.org/2000/svg">
<path d="M42.4936 33.3379C41.3918 32.1907 40.0629 31.5773 38.6544 31.5773C37.2573 31.5773 35.917 32.1793 34.7698 33.3265L31.1805 36.9045C30.8852 36.7454 30.5899 36.5978 30.3059 36.4501C29.897 36.2457 29.5108 36.0526 29.1814 35.8481C25.8193 33.7127 22.7638 30.9299 19.8333 27.3292C18.4135 25.5346 17.4594 24.0239 16.7665 22.4905C17.6979 21.6386 18.5612 20.7526 19.4017 19.9007C19.7197 19.5827 20.0378 19.2533 20.3558 18.9352C22.7411 16.5499 22.7411 13.4604 20.3558 11.0751L17.2549 7.97425C16.9028 7.62214 16.5393 7.25866 16.1986 6.89519C15.5171 6.19096 14.8015 5.46401 14.0632 4.7825C12.9614 3.69208 11.6438 3.11279 10.2581 3.11279C8.87233 3.11279 7.53202 3.69208 6.39616 4.7825C6.38481 4.79386 6.38481 4.79386 6.37345 4.80522L2.51154 8.7012C1.05765 10.1551 0.228475 11.927 0.0467387 13.9829C-0.225866 17.2996 0.750968 20.3891 1.50063 22.411C3.34072 27.3746 6.08948 31.9749 10.1899 36.9045C15.165 42.845 21.1509 47.5361 27.9888 50.8414C30.6012 52.0795 34.0883 53.5447 37.9843 53.7946C38.2228 53.806 38.4727 53.8173 38.6999 53.8173C41.3237 53.8173 43.5272 52.8746 45.2537 51.0004C45.2651 50.9777 45.2878 50.9663 45.2992 50.9436C45.8898 50.228 46.5713 49.5806 47.2869 48.8877C47.7753 48.422 48.2751 47.9336 48.7635 47.4225C49.888 46.2525 50.4787 44.8895 50.4787 43.4924C50.4787 42.084 49.8767 40.7323 48.7295 39.5964L42.4936 33.3379ZM46.56 45.2984C46.5486 45.2984 46.5486 45.3098 46.56 45.2984C46.117 45.7755 45.6626 46.2071 45.1742 46.6842C44.4359 47.3884 43.6863 48.1267 42.982 48.9559C41.8348 50.1826 40.4832 50.7619 38.7112 50.7619C38.5408 50.7619 38.3591 50.7619 38.1887 50.7505C34.8152 50.5347 31.6803 49.2171 29.3291 48.0926C22.9001 44.9804 17.2549 40.5619 12.5639 34.9622C8.69059 30.2938 6.10084 25.9775 4.3857 21.3433C3.32936 18.515 2.94317 16.3114 3.11355 14.2328C3.22713 12.9039 3.73827 11.8021 4.68102 10.8593L8.55429 6.98606C9.11086 6.46356 9.7015 6.1796 10.2808 6.1796C10.9964 6.1796 11.5757 6.61122 11.9391 6.9747C11.9505 6.98606 11.9619 6.99742 11.9732 7.00877C12.6661 7.65621 13.3249 8.32637 14.0177 9.04195C14.3699 9.40543 14.7333 9.7689 15.0968 10.1437L18.1977 13.2446C19.4017 14.4486 19.4017 15.5618 18.1977 16.7658C17.8683 17.0952 17.5503 17.4246 17.2209 17.7426C16.2667 18.7194 15.3581 19.6281 14.3699 20.5141C14.3471 20.5368 14.3244 20.5482 14.3131 20.5709C13.3362 21.5477 13.518 22.5018 13.7224 23.1493C13.7338 23.1833 13.7451 23.2174 13.7565 23.2515C14.563 25.2052 15.6988 27.0452 17.4253 29.2374L17.4367 29.2488C20.5716 33.1107 23.877 36.1207 27.5231 38.4265C27.9888 38.7218 28.4658 38.9604 28.9202 39.1875C29.3291 39.392 29.7153 39.5851 30.0447 39.7895C30.0901 39.8122 30.1355 39.8463 30.181 39.869C30.5671 40.0621 30.9306 40.153 31.3054 40.153C32.2482 40.153 32.8389 39.5624 33.0319 39.3693L36.9166 35.4846C37.3028 35.0985 37.9161 34.6328 38.6317 34.6328C39.3359 34.6328 39.9152 35.0757 40.2673 35.4619C40.2787 35.4733 40.2787 35.4733 40.2901 35.4846L46.5486 41.7432C47.7185 42.9018 47.7185 44.0944 46.56 45.2984Z" fill="black"/>
<path d="M29.0454 12.8017C32.0213 13.3014 34.7247 14.7099 36.8828 16.868C39.0409 19.0261 40.438 21.7295 40.9491 24.7054C41.0741 25.4551 41.7215 25.9776 42.4598 25.9776C42.5507 25.9776 42.6302 25.9662 42.7211 25.9549C43.5616 25.8186 44.1182 25.0235 43.9819 24.1829C43.3685 20.5823 41.6647 17.2997 39.0636 14.6985C36.4625 12.0974 33.1799 10.3937 29.5792 9.78029C28.7387 9.64399 27.955 10.2006 27.8073 11.0297C27.6596 11.8589 28.2049 12.6654 29.0454 12.8017Z" fill="black"/>
<path d="M53.716 23.74C52.7051 17.8109 49.9109 12.4155 45.6173 8.12202C41.3238 3.82849 35.9285 1.03429 29.9994 0.0233776C29.1702 -0.124284 28.3864 0.443644 28.2388 1.27282C28.1025 2.11335 28.659 2.89709 29.4996 3.04475C34.7927 3.94208 39.62 6.45231 43.4592 10.2801C47.2984 14.1193 49.7973 18.9467 50.6946 24.2398C50.8196 24.9895 51.467 25.512 52.2053 25.512C52.2962 25.512 52.3757 25.5006 52.4666 25.4892C53.2957 25.3643 53.8637 24.5692 53.716 23.74Z" fill="black"/>
</svg>
