<svg width="50" height="50" viewBox="0 0 50 50" fill="none" xmlns="http://www.w3.org/2000/svg">
<path d="M42.5705 7.26089C37.8735 2.58141 31.625 0.00267029 24.9748 0C18.3395 0 12.0811 2.57645 7.35321 7.25479C2.61688 11.9411 0.00610352 18.169 0 24.7684V24.7761V24.7807C0.000762939 28.775 1.05019 32.8045 3.04222 36.4826L0.0682831 50L13.7413 46.8899C17.2043 48.6351 21.0682 49.5552 24.9653 49.5567H24.9752C31.6093 49.5567 37.8677 46.9799 42.5964 42.3012C47.337 37.611 49.9489 31.3911 49.9519 24.7875C49.9538 18.2304 47.3328 12.006 42.5705 7.26089V7.26089ZM24.9748 45.6543H24.966C21.4668 45.6528 17.9996 44.7742 14.9399 43.1129L14.2933 42.762L5.20134 44.8299L7.17621 35.8547L6.7955 35.1982C4.90265 31.934 3.90244 28.3306 3.90244 24.7765C3.90968 13.2725 13.3617 3.90244 24.9741 3.90244C30.584 3.90472 35.8551 6.07948 39.8163 10.0254C43.8374 14.0324 46.051 19.2745 46.0491 24.7864C46.0445 36.293 36.5906 45.6543 24.9748 45.6543V45.6543Z" fill="black"/>
<path d="M18.179 13.8538H17.0842C16.7031 13.8538 16.0843 13.9964 15.5609 14.566C15.0372 15.1359 13.5613 16.5134 13.5613 19.3149C13.5613 22.1164 15.6086 24.8233 15.894 25.2036C16.1797 25.5836 19.846 31.5162 25.6527 33.7985C30.4787 35.6952 31.461 35.3179 32.5081 35.2229C33.5556 35.1283 35.8883 33.8458 36.3644 32.5164C36.8405 31.187 36.8405 30.0471 36.6978 29.8091C36.5548 29.5718 36.1737 29.4295 35.6026 29.145C35.0312 28.86 32.2312 27.4593 31.7074 27.2689C31.1837 27.0793 30.803 26.9843 30.4219 27.5546C30.0408 28.1238 28.9189 29.4406 28.5855 29.8206C28.2524 30.2009 27.919 30.2486 27.3476 29.9636C26.7762 29.6779 24.955 29.066 22.7726 27.1266C21.0739 25.6171 19.8952 23.6922 19.5618 23.1223C19.2288 22.5528 19.5263 22.2446 19.8128 21.9604C20.0695 21.7055 20.4163 21.3569 20.702 21.0246C20.9874 20.692 21.0686 20.4547 21.2593 20.0748C21.4497 19.6948 21.3543 19.3622 21.2117 19.0776C21.0686 18.7926 19.9723 15.977 19.4641 14.8509H19.4645C19.0365 13.9026 18.586 13.8705 18.179 13.8538V13.8538Z" fill="black"/>
</svg>
