<svg width="97" height="95" viewBox="0 0 97 95" fill="none" xmlns="http://www.w3.org/2000/svg">
<path d="M47.9263 0.0342636C47.9263 0.0342636 58.257 -1.04293 61.9776 8.88131C65.6952 18.8055 69.2028 22.0548 69.6405 27.2671C71.4121 48.3546 81.308 43.5867 78.525 55.7419C75.7419 67.897 73.8136 69.7335 73.8136 69.7335L50.1563 65.1187L26.1914 65.1952C26.1914 65.1952 35.5668 60.5362 33.4817 50.612C31.3937 40.6877 26.1914 24.4211 29.1312 13.3431C32.0651 2.26517 41.7569 0.878944 47.9263 0.0342636Z" fill="#16202E"/>
<path d="M96.4821 94.8481H81.7414C78.6847 89.3048 76.2015 84.9667 76.2015 84.9667C76.2015 84.9667 74.2156 88.5762 72.6719 94.8481H23.0444C22.2879 90.935 22.2421 87.1828 22.4007 84.5144C22.4007 84.5144 19.7497 89.2836 16.6717 94.8481H0C4.42035 86.603 12.7119 71.5911 14.5972 69.6361C16.9645 67.168 30.6771 57.7358 40.4665 54.6606C50.2621 51.5823 55.8264 54.5513 55.8264 54.5513C55.8264 54.5513 65.8843 56.3546 75.1826 60.0248C78.8372 61.4668 88.9348 80.0245 96.4821 94.8481Z" fill="#FAA146"/>
<path d="M49.289 5.8401C49.289 5.8401 62.9665 7.80253 60.965 27.8933C58.9635 47.9871 46.8925 46.3913 46.0848 46.3737C45.2801 46.3561 33.9755 46.7932 32.9968 22.2759C32.9968 22.2759 32.5429 4.14753 49.289 5.8401Z" fill="#8E4F3A"/>
<path d="M55.3672 42.8099C55.3672 42.8099 54.5212 53.2615 56.5434 56.3914C58.5655 59.5243 54.8131 63.7719 47.0812 62.3199C39.3492 60.8649 39.7973 56.5029 39.7973 56.5029C39.7973 56.5029 41.9639 50.0553 41.3301 44.8926C40.6964 39.7298 55.3672 42.8099 55.3672 42.8099Z" fill="#8E4F3A"/>
<path d="M47.7268 13.1208C47.7268 13.1208 54.1175 19.806 57.0829 23.1911C60.0513 26.5763 60.3932 33.1148 60.3932 33.1148C60.3932 33.1148 65.3926 27.0368 63.3027 19.9585C61.2127 12.8832 56.2635 -0.889107 43.7415 3.34085C31.2166 7.57374 30.7538 26.192 32.2217 35.4234C32.2217 35.4234 37.8431 15.0422 47.7268 13.1208Z" fill="#16202E"/>
<path d="M60.1689 55.4703C60.1689 55.4703 50.683 79.3745 44.9172 83.5311C44.9172 83.5311 37.3473 59.1487 37.875 55.5788C37.875 55.5788 49.2976 51.123 60.1689 55.4703Z" fill="#8E4F3A"/>
<path d="M40.1244 49.6885C40.1244 49.6885 23.2161 64.6606 27.6053 74.0005C31.349 81.9705 44.6285 77.0806 42.4384 68.7292C40.2482 60.3778 40.1244 49.6885 40.1244 49.6885Z" fill="#16202E"/>
<path d="M42.3354 45.4635C42.3354 45.4635 48.1653 48.2044 53.8389 44.1547C53.8389 44.1547 52.2642 47.3944 48.0887 47.8551C43.9131 48.3159 42.3354 45.4635 42.3354 45.4635Z" fill="#633029"/>
</svg>
