<svg width="161" height="203" viewBox="0 0 161 203" fill="none" xmlns="http://www.w3.org/2000/svg">
<path d="M95.478 171.626C102.145 164.363 102.199 125.441 97.2109 103.525C94.6558 92.2975 97.0099 86.7591 99.0866 81.8725C101.072 77.2021 102.786 73.1685 99.3052 65.7736C92.6531 51.6408 98.5614 43.33 98.6221 43.2477L97.5127 42.54C97.2469 42.8993 91.0774 51.4904 98.0585 66.3209C101.311 73.2289 99.7723 76.8481 97.8255 81.431C95.7815 86.237 93.2379 92.22 95.8799 103.828C101.233 127.35 100.45 164.283 94.4589 170.807L95.478 171.626Z" fill="white"/>
<path d="M36.6969 115.448C31.3365 114.228 26.1237 115.022 24.5716 117.294C23.3923 119.021 24.6971 121.142 25.9993 122.618C28.4835 125.433 31.0914 126.9 33.3927 128.197C36.5918 129.995 39.1187 131.417 39.0447 135.432C39.03 136.219 38.9866 137.022 38.9427 137.827C38.6352 143.454 38.3456 148.771 47.8299 150.203C50.0571 150.539 52.0741 150.751 53.8536 150.936C61.2657 151.709 66.1626 152.219 73.372 160.455C74.7135 161.988 75.9226 163.449 77.0913 164.862C83.4678 172.572 87.3162 177.226 95.9429 173.239C98.4159 172.096 99.7899 170.422 100.027 168.264C100.638 162.714 93.8207 154.983 88.6631 151.533C88.285 151.279 79.3711 145.166 77.2666 133.74C76.9242 131.881 76.6976 130.148 76.4983 128.623C75.9693 124.575 75.587 121.649 73.605 120.406C71.7929 119.268 68.489 119.377 62.8924 120.759C51.6539 123.535 46.1199 120.325 41.6737 117.749C39.894 116.715 38.3575 115.824 36.6969 115.448ZM76.0065 165.666C74.8423 164.258 73.639 162.803 72.3089 161.283C65.4373 153.435 61.0051 152.972 53.6619 152.206C51.8672 152.018 49.8333 151.806 47.5741 151.467C36.9245 149.858 37.2742 143.453 37.5828 137.802C37.6255 137.01 37.6686 136.221 37.6831 135.45C37.7439 132.155 35.7239 131.018 32.6663 129.297C30.3944 128.02 27.5662 126.429 24.9397 123.451C22.0656 120.194 22.5335 117.943 23.4318 116.628C25.3233 113.857 31.0524 112.837 37.0557 114.204C38.9209 114.628 40.6179 115.613 42.4148 116.655C46.6445 119.106 51.9088 122.159 62.5842 119.524C68.6706 118.02 72.2002 117.963 74.3855 119.335C76.8655 120.893 77.2783 124.052 77.8499 128.427C78.0475 129.939 78.2722 131.657 78.609 133.485C80.6187 144.396 89.3906 150.427 89.4773 150.486C94.6879 153.97 102.075 162.06 101.381 168.355C101.092 170.996 99.4537 173.024 96.5143 174.383C95.3433 174.925 94.2471 175.316 93.2133 175.576C85.7555 177.453 81.557 172.377 76.0065 165.666Z" fill="black"/>
<path d="M98.1528 181.44L99.4592 181.044C99.0986 179.9 90.4717 153.024 76.6722 147.996C61.5328 142.479 55.0629 134.083 51.5131 128.247C47.3308 121.374 35.2012 122.306 34.6871 122.35L34.7663 123.623C34.8843 123.615 46.5611 122.718 50.3261 128.908C53.9738 134.905 60.6189 143.53 76.1459 149.189C89.3539 154.003 98.0661 181.166 98.1528 181.44Z" fill="black"/>
<path d="M128.513 129.771C135.979 122.116 130.489 117.197 124.132 111.499C119.131 107.017 113.464 101.939 114.241 94.9033C115.15 86.6811 118.172 81.06 120.838 76.1024C125.305 67.7973 128.256 62.3094 116.644 50.9003C106.809 41.2381 111.133 29.7419 114.607 20.5039C116.74 14.8355 118.581 9.93824 116.716 6.84539C115.674 5.1173 113.482 3.98183 110.009 3.37794C109.304 3.25241 108.655 3.41833 108.027 3.87951C103.832 6.95526 102.762 20.6929 102.752 20.8322L102.743 20.9417L102.696 21.0449C99.3616 28.2521 93.5526 29.3012 88.8832 30.1413C86.0934 30.645 83.8902 31.0413 82.8938 32.5823C81.9122 34.0981 82.1038 36.8289 83.4799 40.9325C88.746 56.6375 80.0156 62.306 73 66.8589C69.0589 69.4174 65.6548 71.6289 65.1773 75.0833C64.6675 78.7711 67.4779 83.6136 74.0219 90.322C89.6445 106.336 84.7106 112.326 79.9392 118.119C75.948 122.965 72.1778 127.54 80.8319 138.503C89.7151 149.757 92.9334 163.496 95.2837 173.529C96.8874 180.376 98.154 185.784 100.411 186.214C101.731 186.464 103.755 184.97 106.425 181.771C107.06 178.781 114.705 143.922 128.513 129.771ZM100.102 187.466C97.0084 186.88 95.7933 181.692 93.9539 173.84C91.6297 163.918 88.4463 150.328 79.7298 139.285C70.4707 127.554 74.7417 122.37 78.8724 117.357C83.4984 111.74 87.8681 106.437 73.0053 91.2002C66.1795 84.2033 63.2629 79.0415 63.8272 74.9563C64.3858 70.9209 68.2057 68.4412 72.2502 65.8164C79.2305 61.2832 87.1426 56.1479 82.1807 41.3508C80.6597 36.8141 80.5183 33.824 81.7364 31.9428C83.0601 29.8983 85.6584 29.4293 88.6666 28.8868C93.212 28.0672 98.3608 27.1387 101.403 20.6675C101.52 19.2137 102.689 6.197 107.209 2.88116C108.159 2.18322 109.197 1.9275 110.296 2.12011C114.173 2.79662 116.662 4.12562 117.905 6.19196C120.069 9.7809 118.131 14.9305 115.889 20.8946C112.364 30.269 108.368 40.8912 117.641 50.0027C129.902 62.048 126.607 68.175 122.049 76.6505C119.438 81.5085 116.477 87.0122 115.595 94.997C114.886 101.42 120.072 106.067 125.087 110.561C131.378 116.199 137.883 122.029 129.503 130.619C115.648 144.82 107.806 181.764 107.728 182.135L107.696 182.288L107.592 182.413C105.131 185.385 103.197 186.993 101.538 187.411C101.037 187.537 100.561 187.555 100.102 187.466Z" fill="white"/>
<path d="M35.0926 51.4226C42.7694 46.6496 44.8584 62.0974 51.2191 72.3149C57.5803 82.5322 91.7377 67.2715 83.8169 98.8599C75.8965 130.448 105.166 103.381 101.198 130.206C97.2307 157.031 113.114 180.653 100.397 176.829C87.6798 173.005 84.7277 141.227 72.3261 140.483C59.9242 139.739 56.9726 135.976 65.8199 123.245C74.6667 110.511 31.0327 111.065 36.1052 88.5761C41.1778 66.0871 26.2234 56.9383 35.0926 51.4226Z" fill="#E9A800"/>
<path d="M97.4973 174.553C97.335 170.122 95.6717 131.191 87.3162 128.541C79.9531 126.207 76.2148 110.844 73.5291 96.1226C71.1514 83.0919 54.5862 80.9015 53.8818 80.8133L53.7993 82.0876C53.9625 82.1061 70.1663 84.2548 72.3667 96.3155C75.1252 111.434 79.0242 127.231 87.0302 129.769C93.374 131.782 95.8826 162.775 96.3137 174.547L97.4973 174.553Z" fill="white"/>
</svg>
