<svg width="40" height="40" viewBox="0 0 40 40" fill="none" xmlns="http://www.w3.org/2000/svg">
<path d="M37.7925 40C39.0116 40 40 39.0114 40 37.7924V2.20761C40 0.988104 39.0114 0 37.7925 0H2.20763C0.988111 0 0 0.988254 0 2.20761V37.7922C0 39.0114 0.988111 39.9999 2.20763 39.9999H37.7925V40Z" fill="#485A96"/>
<path d="M27.5993 40.0001V24.5099H32.7987L33.5772 18.4731H27.5992V14.6188C27.5992 12.871 28.0845 11.68 30.5909 11.68L33.7876 11.6785V6.27923C33.2347 6.20579 31.337 6.04138 29.1295 6.04138C24.5205 6.04138 21.3651 8.85462 21.3651 14.0211V18.4731H16.1523V24.5099H21.3651V39.9999H27.5993V40.0001Z" fill="white"/>
</svg>
