<svg width="40" height="41" viewBox="0 0 40 41" fill="none" xmlns="http://www.w3.org/2000/svg">
<path d="M13.3349 20.0008C13.3349 16.3189 16.3189 13.3333 20.0008 13.3333C23.6827 13.3333 26.6683 16.3189 26.6683 20.0008C26.6683 23.6827 23.6827 26.6683 20.0008 26.6683C16.3189 26.6683 13.3349 23.6827 13.3349 20.0008ZM9.73063 20.0008C9.73063 25.673 14.3286 30.271 20.0008 30.271C25.673 30.271 30.271 25.673 30.271 20.0008C30.271 14.3286 25.673 9.73063 20.0008 9.73063C14.3286 9.73063 9.73063 14.3286 9.73063 20.0008ZM28.2775 9.32341C28.2773 9.79811 28.4178 10.2622 28.6814 10.657C28.945 11.0518 29.3197 11.3596 29.7582 11.5414C30.1967 11.7232 30.6792 11.771 31.1448 11.6785C31.6105 11.5861 32.0382 11.3577 32.374 11.0222C32.7098 10.6867 32.9385 10.2591 33.0313 9.79355C33.1241 9.32801 33.0768 8.84542 32.8953 8.40678C32.7138 7.96815 32.4064 7.59318 32.0118 7.3293C31.6172 7.06542 31.1532 6.92447 30.6785 6.92428H30.6776C30.0413 6.92457 29.4311 7.1774 28.9811 7.62724C28.5311 8.07707 28.278 8.68713 28.2775 9.32341V9.32341ZM11.9205 36.281C9.97048 36.1922 8.9106 35.8674 8.20625 35.5929C7.27245 35.2294 6.60618 34.7964 5.90568 34.0969C5.20517 33.3973 4.77155 32.7317 4.40962 31.7979C4.13505 31.0939 3.81023 30.0337 3.72159 28.0837C3.62463 25.9754 3.60526 25.3421 3.60526 20.001C3.60526 14.6598 3.62623 14.0282 3.72159 11.9182C3.81039 9.96824 4.13761 8.91012 4.40962 8.20401C4.77315 7.27021 5.20613 6.60394 5.90568 5.90344C6.60522 5.20293 7.27085 4.76931 8.20625 4.40738C8.91028 4.13281 9.97048 3.80799 11.9205 3.71935C14.0287 3.62239 14.662 3.60302 20.0008 3.60302C25.3396 3.60302 25.9735 3.62399 28.0835 3.71935C30.0335 3.80815 31.0916 4.13537 31.7978 4.40738C32.7316 4.76931 33.3978 5.20389 34.0983 5.90344C34.7988 6.60298 35.2309 7.27021 35.5944 8.20401C35.869 8.90804 36.1938 9.96824 36.2824 11.9182C36.3794 14.0282 36.3987 14.6598 36.3987 20.001C36.3987 25.3421 36.3794 25.9737 36.2824 28.0837C36.1936 30.0337 35.8672 31.0936 35.5944 31.7979C35.2309 32.7317 34.7979 33.398 34.0983 34.0969C33.3988 34.7958 32.7316 35.2294 31.7978 35.5929C31.0937 35.8675 30.0335 36.1923 28.0835 36.281C25.9753 36.3779 25.342 36.3973 20.0008 36.3973C14.6596 36.3973 14.0281 36.3779 11.9205 36.281V36.281ZM11.7549 0.121125C9.62567 0.218089 8.17073 0.555702 6.90012 1.05012C5.58422 1.5607 4.47026 2.24569 3.35709 3.35709C2.24393 4.4685 1.5607 5.58422 1.05012 6.90012C0.555702 8.17153 0.218089 9.62567 0.121125 11.7549C0.0225609 13.8874 0 14.5692 0 20.0008C0 25.4324 0.0225609 26.1142 0.121125 28.2467C0.218089 30.3761 0.555702 31.8301 1.05012 33.1015C1.5607 34.4166 2.24409 35.5336 3.35709 36.6445C4.4701 37.7554 5.58422 38.4395 6.90012 38.9515C8.17313 39.4459 9.62567 39.7835 11.7549 39.8805C13.8886 39.9774 14.5692 40.0016 20.0008 40.0016C25.4324 40.0016 26.1142 39.979 28.2467 39.8805C30.3761 39.7835 31.8301 39.4459 33.1015 38.9515C34.4166 38.4395 35.5313 37.7559 36.6445 36.6445C37.7577 35.5331 38.4395 34.4166 38.9515 33.1015C39.4459 31.8301 39.7851 30.3759 39.8805 28.2467C39.9774 26.1126 40 25.4324 40 20.0008C40 14.5692 39.9774 13.8874 39.8805 11.7549C39.7835 9.62551 39.4459 8.17073 38.9515 6.90012C38.4395 5.58502 37.7559 4.47026 36.6445 3.35709C35.5331 2.24393 34.4166 1.5607 33.1031 1.05012C31.8301 0.555702 30.3759 0.216489 28.2483 0.121125C26.1158 0.024161 25.434 0 20.0024 0C14.5708 0 13.8886 0.0225609 11.7549 0.121125Z" fill="url(#paint0_radial)"/>
<path d="M13.3349 20.0008C13.3349 16.3189 16.3189 13.3333 20.0008 13.3333C23.6827 13.3333 26.6683 16.3189 26.6683 20.0008C26.6683 23.6827 23.6827 26.6683 20.0008 26.6683C16.3189 26.6683 13.3349 23.6827 13.3349 20.0008ZM9.73063 20.0008C9.73063 25.673 14.3286 30.271 20.0008 30.271C25.673 30.271 30.271 25.673 30.271 20.0008C30.271 14.3286 25.673 9.73063 20.0008 9.73063C14.3286 9.73063 9.73063 14.3286 9.73063 20.0008ZM28.2775 9.32341C28.2773 9.79811 28.4178 10.2622 28.6814 10.657C28.945 11.0518 29.3197 11.3596 29.7582 11.5414C30.1967 11.7232 30.6792 11.771 31.1448 11.6785C31.6105 11.5861 32.0382 11.3577 32.374 11.0222C32.7098 10.6867 32.9385 10.2591 33.0313 9.79355C33.1241 9.32801 33.0768 8.84542 32.8953 8.40678C32.7138 7.96815 32.4064 7.59318 32.0118 7.3293C31.6172 7.06542 31.1532 6.92447 30.6785 6.92428H30.6776C30.0413 6.92457 29.4311 7.1774 28.9811 7.62724C28.5311 8.07707 28.278 8.68713 28.2775 9.32341V9.32341ZM11.9205 36.281C9.97048 36.1922 8.9106 35.8674 8.20625 35.5929C7.27245 35.2294 6.60618 34.7964 5.90568 34.0969C5.20517 33.3973 4.77155 32.7317 4.40962 31.7979C4.13505 31.0939 3.81023 30.0337 3.72159 28.0837C3.62463 25.9754 3.60526 25.3421 3.60526 20.001C3.60526 14.6598 3.62623 14.0282 3.72159 11.9182C3.81039 9.96824 4.13761 8.91012 4.40962 8.20401C4.77315 7.27021 5.20613 6.60394 5.90568 5.90344C6.60522 5.20293 7.27085 4.76931 8.20625 4.40738C8.91028 4.13281 9.97048 3.80799 11.9205 3.71935C14.0287 3.62239 14.662 3.60302 20.0008 3.60302C25.3396 3.60302 25.9735 3.62399 28.0835 3.71935C30.0335 3.80815 31.0916 4.13537 31.7978 4.40738C32.7316 4.76931 33.3978 5.20389 34.0983 5.90344C34.7988 6.60298 35.2309 7.27021 35.5944 8.20401C35.869 8.90804 36.1938 9.96824 36.2824 11.9182C36.3794 14.0282 36.3987 14.6598 36.3987 20.001C36.3987 25.3421 36.3794 25.9737 36.2824 28.0837C36.1936 30.0337 35.8672 31.0936 35.5944 31.7979C35.2309 32.7317 34.7979 33.398 34.0983 34.0969C33.3988 34.7958 32.7316 35.2294 31.7978 35.5929C31.0937 35.8675 30.0335 36.1923 28.0835 36.281C25.9753 36.3779 25.342 36.3973 20.0008 36.3973C14.6596 36.3973 14.0281 36.3779 11.9205 36.281V36.281ZM11.7549 0.121125C9.62567 0.218089 8.17073 0.555702 6.90012 1.05012C5.58422 1.5607 4.47026 2.24569 3.35709 3.35709C2.24393 4.4685 1.5607 5.58422 1.05012 6.90012C0.555702 8.17153 0.218089 9.62567 0.121125 11.7549C0.0225609 13.8874 0 14.5692 0 20.0008C0 25.4324 0.0225609 26.1142 0.121125 28.2467C0.218089 30.3761 0.555702 31.8301 1.05012 33.1015C1.5607 34.4166 2.24409 35.5336 3.35709 36.6445C4.4701 37.7554 5.58422 38.4395 6.90012 38.9515C8.17313 39.4459 9.62567 39.7835 11.7549 39.8805C13.8886 39.9774 14.5692 40.0016 20.0008 40.0016C25.4324 40.0016 26.1142 39.979 28.2467 39.8805C30.3761 39.7835 31.8301 39.4459 33.1015 38.9515C34.4166 38.4395 35.5313 37.7559 36.6445 36.6445C37.7577 35.5331 38.4395 34.4166 38.9515 33.1015C39.4459 31.8301 39.7851 30.3759 39.8805 28.2467C39.9774 26.1126 40 25.4324 40 20.0008C40 14.5692 39.9774 13.8874 39.8805 11.7549C39.7835 9.62551 39.4459 8.17073 38.9515 6.90012C38.4395 5.58502 37.7559 4.47026 36.6445 3.35709C35.5331 2.24393 34.4166 1.5607 33.1031 1.05012C31.8301 0.555702 30.3759 0.216489 28.2483 0.121125C26.1158 0.024161 25.434 0 20.0024 0C14.5708 0 13.8886 0.0225609 11.7549 0.121125Z" fill="url(#paint1_radial)"/>
<defs>
<radialGradient id="paint0_radial" cx="0" cy="0" r="1" gradientUnits="userSpaceOnUse" gradientTransform="translate(5.31445 40.1906) scale(52.2187)">
<stop offset="0.09" stop-color="#FA8F21"/>
<stop offset="0.78" stop-color="#D82D7E"/>
</radialGradient>
<radialGradient id="paint1_radial" cx="0" cy="0" r="1" gradientUnits="userSpaceOnUse" gradientTransform="translate(24.2592 41.9826) scale(41.1556)">
<stop offset="0.64" stop-color="#8C3AAA" stop-opacity="0"/>
<stop offset="1" stop-color="#8C3AAA"/>
</radialGradient>
</defs>
</svg>
