<svg width="40" height="40" viewBox="0 0 40 40" fill="none" xmlns="http://www.w3.org/2000/svg">
<path fill-rule="evenodd" clip-rule="evenodd" d="M8.18661 0H31.8134C36.316 0 40 3.684 40 8.18661V31.8134C40 36.316 36.316 40 31.8134 40H8.18661C3.684 40.0001 0 36.3161 0 31.8134V8.18661C0 3.684 3.684 0 8.18661 0ZM19.9612 6.62598C28.066 6.62598 34.6363 11.8872 34.6363 18.3772C34.6363 20.6441 33.8341 22.7606 32.4454 24.5557C32.3767 24.6579 32.2869 24.7708 32.1737 24.8955L32.1651 24.9048C31.6907 25.4724 31.1565 26.0052 30.5692 26.4971C26.511 30.2481 19.8312 34.714 18.9496 34.025C18.1832 33.4261 20.2119 30.4967 17.8714 30.0092C17.7081 29.9905 17.5452 29.9703 17.3838 29.9475L17.3807 29.9473C10.5064 28.9707 5.28613 24.162 5.28613 18.3772C5.28592 11.8872 11.8563 6.62598 19.9612 6.62598Z" fill="#3ACE01"/>
<path fill-rule="evenodd" clip-rule="evenodd" d="M11.4465 22.1253H14.4062C14.8272 22.1253 15.1716 21.7809 15.1716 21.3599V21.296C15.1716 20.875 14.8272 20.5307 14.4062 20.5307H12.2757V15.6833C12.2757 15.2623 11.9314 14.918 11.5103 14.918H11.4465C11.0255 14.918 10.6812 15.2623 10.6812 15.6833V21.3598C10.6812 21.7809 11.0255 22.1253 11.4465 22.1253ZM29.7866 18.5672V18.5034C29.7866 18.0824 29.4421 17.738 29.0211 17.738H26.8907V16.5262H29.0211C29.4421 16.5262 29.7866 16.1818 29.7866 15.7608V15.697C29.7866 15.276 29.4421 14.9316 29.0211 14.9316H26.0614C25.6404 14.9316 25.296 15.276 25.296 15.697V21.3734C25.296 21.7944 25.6404 22.1389 26.0614 22.1389H29.0211C29.4421 22.1389 29.7866 21.7944 29.7866 21.3734V21.3096C29.7866 20.8886 29.4421 20.5442 29.0211 20.5442H26.8907V19.3324H29.0211C29.4421 19.3326 29.7866 18.9881 29.7866 18.5672ZM24.0946 21.8972L24.0949 21.8968C24.2365 21.754 24.316 21.5611 24.3162 21.36V15.6835C24.3162 15.2625 23.9718 14.9182 23.5507 14.9182H23.4869C23.0658 14.9182 22.7215 15.2625 22.7215 15.6835V19.0157L19.9551 15.3052C19.823 15.0745 19.5741 14.9182 19.2906 14.9182H19.2267C18.8057 14.9182 18.4613 15.2625 18.4613 15.6835V21.36C18.4613 21.781 18.8056 22.1255 19.2267 22.1255H19.2906C19.7116 22.1255 20.0559 21.781 20.0559 21.36V17.9655L22.8422 21.7712C22.8594 21.7978 22.8781 21.8235 22.8983 21.8478L22.8984 21.848C22.975 21.9524 23.0797 22.024 23.1964 22.0677C23.2861 22.1048 23.3841 22.1253 23.4867 22.1253H23.5506C23.6753 22.1254 23.7981 22.0947 23.9082 22.036C23.9847 21.9996 24.0492 21.9525 24.0946 21.8972ZM16.5547 22.1253H16.6185C17.0395 22.1253 17.3839 21.7809 17.3839 21.3599V15.6834C17.3839 15.2624 17.0395 14.9181 16.6185 14.9181H16.5547C16.1337 14.9181 15.7892 15.2624 15.7892 15.6834V21.3599C15.7892 21.7809 16.1337 22.1253 16.5547 22.1253Z" fill="#3ACE01"/>
</svg>
