<svg width="40" height="40" viewBox="0 0 40 40" fill="none" xmlns="http://www.w3.org/2000/svg">
<path fill-rule="evenodd" clip-rule="evenodd" d="M9.4881 21.6351C8.21699 19.1066 8.63674 15.9454 10.7473 13.8348L16.7544 7.82777C19.3889 5.19321 23.6604 5.19321 26.295 7.82777C28.9295 10.4623 28.9295 14.7338 26.295 17.3684L24.8477 18.8157C26.1188 21.3441 25.699 24.5053 23.5884 26.6159L17.5814 32.623C14.9468 35.2575 10.6754 35.2575 8.0408 32.623C5.40624 29.9884 5.40624 25.7169 8.0408 23.0824L9.4881 21.6351ZM11.2114 23.7987L10.3377 24.6725C8.77643 26.2337 8.77643 28.7649 10.3377 30.3261C11.8989 31.8874 14.4301 31.8874 15.9913 30.3261L21.2917 25.0258C22.3019 24.0155 22.6585 22.5991 22.3612 21.3021L20.2879 23.3754C17.803 25.8604 13.8617 26.0015 11.2114 23.7987ZM20.8133 18.963L18.6977 21.0786C17.2875 22.4889 15.0857 22.6252 13.5224 21.4877L15.638 19.3721C17.0482 17.9619 19.25 17.8255 20.8133 18.963ZM23.1244 16.652C20.474 14.4493 16.5328 14.5904 14.0478 17.0753L11.9745 19.1487C11.6772 17.8517 12.0338 16.4352 13.044 15.4249L18.3444 10.1246C19.9056 8.56337 22.4368 8.56337 23.9981 10.1246C25.5593 11.6858 25.5593 14.2171 23.9981 15.7783L23.1244 16.652Z" fill="#313131"/>
<rect x="16.5635" width="1" height="40" fill="#C4C4C4" fill-opacity="0.01"/>
<path d="M26.3534 32.194C25.6254 32.1993 25.0571 32.0051 24.6486 31.6114C24.2447 31.2177 24.0404 30.6568 24.0356 29.9288L24.018 27.2129L25.404 27.2028L25.4213 29.8767C25.4264 30.6607 25.7393 31.0504 26.3599 31.0459C26.9759 31.0414 27.2814 30.6472 27.2763 29.8632L27.259 27.1893L28.6239 27.1793L28.6415 29.8953C28.6462 30.6233 28.4469 31.1871 28.0435 31.5867C27.6447 31.9863 27.0814 32.1887 26.3534 32.194ZM31.7281 30.7548L30.9721 30.7603L30.9805 32.0623L29.5946 32.0724L29.5628 27.1725L31.8028 27.1562C32.2461 27.1529 32.6316 27.2248 32.9592 27.3718C33.2868 27.514 33.5401 27.7222 33.7192 27.9962C33.8983 28.2656 33.9891 28.5846 33.9915 28.9533C33.9938 29.3079 33.9118 29.6189 33.7455 29.8861C33.5839 30.1486 33.3495 30.3557 33.0425 30.5072L34.1095 32.0395L32.6255 32.0503L31.7281 30.7548ZM32.5915 28.9635C32.59 28.7348 32.5165 28.558 32.3711 28.4331C32.2256 28.3081 32.0105 28.2467 31.7258 28.2488L30.9559 28.2544L30.9652 29.6893L31.7351 29.6837C32.0198 29.6817 32.2341 29.6194 32.3779 29.497C32.5218 29.37 32.593 29.1921 32.5915 28.9635ZM34.7443 27.1347L36.1303 27.1247L36.1549 30.9256L38.4929 30.9085L38.5 32.0075L34.7761 32.0346L34.7443 27.1347Z" fill="#333333"/>
</svg>
