<svg width="36" height="40" viewBox="0 0 36 40" fill="none" xmlns="http://www.w3.org/2000/svg">
<path d="M13.7866 15.7531V14.1943C13.2456 14.1086 12.699 14.0617 12.1513 14.0539C6.84808 14.0425 2.15304 17.4792 0.560488 22.5376C-1.03206 27.5959 0.847759 33.1024 5.2007 36.1311C3.60446 34.4228 2.5368 32.2889 2.12658 29.9872C1.71636 27.6854 1.98111 25.3141 2.88889 23.1595C3.79666 21.0049 5.30865 19.1591 7.24236 17.8449C9.17606 16.5307 11.4488 15.8042 13.7863 15.7533L13.7866 15.7531Z" fill="#25F4EE"/>
<path d="M14.0807 33.4098C17.0457 33.4057 19.4829 31.0699 19.6128 28.1076V1.67374H24.4419C24.3434 1.12138 24.2964 0.56106 24.3015 0L17.6962 0V26.4084C17.5863 29.3857 15.1433 31.744 12.1641 31.7488C11.2738 31.7412 10.398 31.5223 9.60889 31.11C10.1203 31.8186 10.792 32.3963 11.5691 32.7959C12.3462 33.1956 13.2068 33.4059 14.0807 33.4098V33.4098ZM33.4619 10.6425V9.17322C31.6847 9.17392 29.9468 8.64948 28.4665 7.66575C29.7641 9.17427 31.5177 10.2192 33.4619 10.6425V10.6425Z" fill="#25F4EE"/>
<path d="M28.4666 7.66581C27.0083 6.00535 26.2045 3.87078 26.2052 1.66089H24.442C24.6697 2.88271 25.144 4.04531 25.836 5.07774C26.5279 6.11017 27.423 6.99078 28.4666 7.66581V7.66581ZM12.1514 20.6592C10.9147 20.6655 9.7157 21.085 8.74487 21.851C7.77404 22.6171 7.08717 23.6857 6.79344 24.887C6.49972 26.0882 6.616 27.3532 7.12381 28.4808C7.63162 29.6084 8.50181 30.5339 9.59602 31.1101C8.99777 30.284 8.63951 29.3087 8.56082 28.2918C8.48213 27.2749 8.68608 26.2561 9.15014 25.3479C9.61419 24.4396 10.3203 23.6774 11.1904 23.1453C12.0605 22.6132 13.0608 22.332 14.0807 22.3327C14.6352 22.34 15.1858 22.4263 15.7159 22.5891V15.8681C15.1746 15.7869 14.6281 15.7442 14.0807 15.7404H13.7868V20.8507C13.2538 20.7078 12.7029 20.6433 12.1514 20.6592V20.6592Z" fill="#FE2C55"/>
<path d="M33.4619 10.6425V15.753C30.1716 15.7466 26.9668 14.7051 24.3014 12.7761V26.2039C24.2872 32.9042 18.8515 38.3286 12.1513 38.3286C9.66281 38.3331 7.23428 37.5652 5.20068 36.1311C6.85896 37.9147 9.01593 39.1576 11.3906 39.6979C13.7654 40.2381 16.2477 40.0508 18.5145 39.1601C20.7812 38.2695 22.7271 36.7169 24.0989 34.7046C25.4706 32.6922 26.2045 30.3134 26.2051 27.878V14.4882C28.8795 16.4046 32.0882 17.4324 35.3783 17.4268V10.8464C34.7342 10.8445 34.092 10.7761 33.4619 10.6425V10.6425Z" fill="#FE2C55"/>
<path d="M24.3014 26.204V12.7762C26.9749 14.6942 30.1843 15.7223 33.4746 15.7147V10.6043C31.5308 10.1938 29.7731 9.16248 28.4665 7.66581C27.4229 6.99078 26.5278 6.11017 25.8359 5.07774C25.1439 4.04531 24.6696 2.88271 24.4419 1.66089H19.6127V28.1081C19.5657 29.2593 19.1613 30.3672 18.4556 31.278C17.7499 32.1887 16.778 32.857 15.675 33.19C14.572 33.523 13.3927 33.5041 12.3009 33.136C11.2092 32.7678 10.2592 32.0688 9.58301 31.1359C8.48861 30.5598 7.61824 29.6343 7.1103 28.5066C6.60236 27.379 6.48601 26.1139 6.77975 24.9125C7.0735 23.7111 7.76047 22.6424 8.73144 21.8763C9.7024 21.1102 10.9016 20.6908 12.1384 20.6846C12.6931 20.6896 13.244 20.7757 13.7737 20.9403V15.8297C11.4237 15.8695 9.13602 16.5923 7.18964 17.9098C5.24327 19.2274 3.72228 21.0827 2.81214 23.2497C1.902 25.4167 1.64202 27.8017 2.06392 30.114C2.48581 32.4262 3.57134 34.5657 5.18815 36.2716C7.24173 37.6585 9.67371 38.377 12.1513 38.3286C18.8516 38.3286 24.2873 32.9043 24.3014 26.204V26.204Z" fill="black"/>
</svg>
