<svg width="39" height="40" viewBox="0 0 39 40" fill="none" xmlns="http://www.w3.org/2000/svg">
<rect x="7" width="1" height="40" fill="#C4C4C4" fill-opacity="0.01"/>
<path d="M25.7242 6.00678V6.00012H27.4591L28.093 6.12665C28.5156 6.20879 28.8993 6.31644 29.2441 6.44962C29.5888 6.58281 29.9225 6.7382 30.245 6.91577C30.5675 7.09334 30.86 7.27427 31.1225 7.4585C31.3827 7.64053 31.6162 7.83365 31.8231 8.03786C32.0277 8.2443 32.3469 8.29757 32.7806 8.19768C33.2143 8.09779 33.6814 7.95905 34.1818 7.78148C34.6823 7.60391 35.1772 7.40413 35.6665 7.18214C36.1559 6.96016 36.4539 6.81921 36.5607 6.75928C36.6652 6.69715 36.7208 6.66385 36.7275 6.65939L36.7341 6.6494L36.7675 6.63275L36.8009 6.6161L36.8342 6.59946L36.8676 6.58281L36.8743 6.57282L36.8843 6.56616L36.8943 6.5595L36.901 6.54951L36.9343 6.53952L36.9677 6.53286L36.961 6.58281L36.951 6.63275L36.9343 6.6827L36.9176 6.73264L36.901 6.76594L36.8843 6.79923L36.8676 6.84918C36.8565 6.88248 36.8454 6.92686 36.8342 6.98236C36.8231 7.03787 36.7175 7.25982 36.5173 7.64829C36.3171 8.03676 36.0669 8.43075 35.7666 8.83031C35.4663 9.22987 35.1972 9.53173 34.9592 9.73597C34.719 9.94241 34.56 10.0867 34.4821 10.1688C34.4043 10.2532 34.3098 10.3308 34.1985 10.4019L34.0317 10.5118L33.9983 10.5284L33.965 10.5451L33.9583 10.5551L33.9483 10.5617L33.9383 10.5684L33.9316 10.5784L33.8983 10.595L33.8649 10.6117L33.8583 10.6217L33.8482 10.6283L33.8382 10.635L33.8315 10.645L33.8249 10.655L33.8148 10.6616L33.8048 10.6683L33.7982 10.6783H33.965L34.8992 10.4785C35.522 10.3453 36.1169 10.1844 36.6841 9.99568L37.5849 9.69602L37.685 9.66272L37.735 9.64607L37.7684 9.62942L37.8018 9.61277L37.8351 9.59613L37.8685 9.57948L37.9352 9.56949L38.002 9.56283V9.62942L37.9853 9.63608L37.9686 9.64607L37.962 9.65606L37.9519 9.66272L37.9419 9.66938L37.9352 9.67937L37.9286 9.68936L37.9185 9.69602L37.9085 9.70267L37.9019 9.71266L37.8952 9.72265L37.8852 9.72931L37.8685 9.76261L37.8518 9.7959L37.8418 9.80256C37.8374 9.80922 37.6961 9.99788 37.4181 10.3686C37.1401 10.7415 36.9899 10.9302 36.9677 10.9346C36.9455 10.9413 36.9143 10.9746 36.8743 11.0345C36.8365 11.0967 36.6007 11.3442 36.167 11.777C35.7332 12.2099 35.3085 12.595 34.8925 12.9324C34.4744 13.272 34.2631 13.6893 34.2586 14.1844C34.2519 14.6771 34.2264 15.2343 34.1818 15.8558C34.1374 16.4774 34.054 17.1488 33.9316 17.8703C33.8093 18.5917 33.6202 19.4075 33.3644 20.3175C33.1087 21.2276 32.7973 22.1156 32.4303 22.9813C32.0633 23.847 31.6796 24.6239 31.2792 25.312C30.8789 26.0001 30.5119 26.5828 30.1782 27.0601C29.8446 27.5373 29.5054 27.9868 29.1607 28.4086C28.8159 28.8303 28.38 29.3054 27.8528 29.8336C27.3235 30.3597 27.0343 30.6483 26.9854 30.6993C26.9342 30.7482 26.7163 30.9302 26.3314 31.2454C25.9489 31.5628 25.5374 31.8802 25.097 32.1977C24.6588 32.5129 24.2562 32.7759 23.8892 32.9868C23.5222 33.1977 23.0796 33.4385 22.5614 33.7093C22.0454 33.9824 21.4871 34.2354 20.8865 34.4685C20.286 34.7016 19.6521 34.918 18.9848 35.1178C18.3176 35.3175 17.6725 35.4729 17.0497 35.5839C16.427 35.6949 15.7208 35.7893 14.9312 35.8669L13.7468 35.9835V36.0001H11.5781V35.9835L11.2946 35.9668C11.1055 35.9557 10.9498 35.9446 10.8275 35.9335C10.7052 35.9224 10.2436 35.8614 9.44289 35.7504C8.64217 35.6394 8.01384 35.5284 7.55786 35.4174C7.10192 35.3065 6.4235 35.0956 5.52269 34.7848C4.62188 34.4741 3.85119 34.1599 3.21061 33.8425C2.57227 33.5273 2.17191 33.3275 2.00953 33.2432C1.84938 33.161 1.66922 33.059 1.46904 32.9369L1.16877 32.7537L1.16213 32.7437L1.15209 32.7371L1.14208 32.7304L1.13541 32.7204L1.10204 32.7038L1.06868 32.6871L1.06204 32.6771L1.052 32.6705L1.04199 32.6638L1.03532 32.6538L1.02868 32.6439L1.01863 32.6372H1.00195V32.5706L1.03532 32.5773L1.06868 32.5872L1.21882 32.6039C1.31891 32.615 1.59138 32.6316 2.03622 32.6538C2.48109 32.6761 2.95371 32.6761 3.45416 32.6538C3.95461 32.6316 4.46621 32.5817 4.98888 32.504C5.51158 32.4263 6.12881 32.2931 6.84055 32.1045C7.55232 31.9158 8.20624 31.6916 8.80235 31.4319C9.39622 31.17 9.8188 30.9746 10.0702 30.8459C10.3192 30.7193 10.6996 30.484 11.2112 30.14L11.9785 29.6239L11.9852 29.6139L11.9952 29.6072L12.0052 29.6006L12.0119 29.5906L12.0185 29.5806L12.0286 29.5739L12.0386 29.5673L12.0452 29.5573L12.0786 29.5473L12.112 29.5406L12.1186 29.5073L12.1286 29.474L12.1387 29.4674L12.1453 29.4574L11.8784 29.4407C11.7005 29.4297 11.5281 29.4185 11.3613 29.4074C11.1945 29.3964 10.9331 29.3464 10.5772 29.2576C10.2214 29.1688 9.83771 29.0356 9.42621 28.8581C9.01474 28.6805 8.61438 28.4696 8.22513 28.2254C7.83591 27.9813 7.55452 27.7781 7.38103 27.6161C7.20978 27.4563 6.98735 27.2299 6.71377 26.9369C6.44242 26.6417 6.20664 26.3386 6.00646 26.0279C5.80628 25.7171 5.61501 25.3586 5.43264 24.9524L5.1557 24.3464L5.13901 24.2965L5.12233 24.2465L5.11232 24.2132L5.10565 24.1799L5.1557 24.1866L5.20574 24.1966L5.57274 24.2465C5.81742 24.2798 6.2011 24.2909 6.72377 24.2798C7.24648 24.2687 7.6079 24.2465 7.80808 24.2132C8.00827 24.1799 8.13061 24.1577 8.17508 24.1466L8.24181 24.13L8.32522 24.1133L8.40863 24.0967L8.4153 24.0867L8.42531 24.08L8.43535 24.0734L8.44199 24.0634L8.37526 24.0467L8.30854 24.0301L8.24181 24.0134L8.17508 23.9968L8.10836 23.9801C8.06388 23.9691 7.98605 23.9468 7.87481 23.9136C7.76361 23.8803 7.46334 23.7582 6.974 23.5473C6.48469 23.3364 6.09544 23.1311 5.80628 22.9313C5.5164 22.731 5.24001 22.5118 4.97887 22.2754C4.71863 22.0356 4.43284 21.7271 4.12143 21.3497C3.81005 20.9724 3.53203 20.534 3.28735 20.0345C3.04269 19.5351 2.85919 19.0578 2.73685 18.6028C2.615 18.1504 2.53461 17.6879 2.49667 17.221L2.43658 16.5218L2.46994 16.5284L2.50331 16.5384L2.53667 16.5551L2.57003 16.5717L2.6034 16.5884L2.63676 16.605L3.15389 16.8381C3.49867 16.9935 3.92682 17.1267 4.43838 17.2376C4.94998 17.3486 5.25579 17.4097 5.35588 17.4208L5.50601 17.4374H5.80628L5.79964 17.4274L5.7896 17.4208L5.77959 17.4141L5.77292 17.4041L5.76628 17.3941L5.75624 17.3875L5.74623 17.3808L5.73955 17.3708L5.70619 17.3542L5.67283 17.3375L5.66619 17.3275L5.65615 17.3209L5.64614 17.3142L5.63946 17.3042L5.6061 17.2876L5.57274 17.2709L5.5661 17.2609C5.55943 17.2565 5.46377 17.1855 5.27914 17.0478C5.09674 16.908 4.90547 16.7271 4.70529 16.5051C4.50511 16.2831 4.30493 16.0501 4.10475 15.8059C3.9042 15.5612 3.72558 15.2993 3.57093 15.0234C3.41526 14.746 3.25065 14.393 3.07716 13.9646C2.9059 13.5384 2.77578 13.1089 2.6868 12.676C2.59786 12.2432 2.54781 11.8159 2.53667 11.3941C2.52556 10.9724 2.53667 10.6117 2.57003 10.312C2.6034 10.0123 2.67012 9.67381 2.77021 9.29646C2.8703 8.91911 3.0149 8.51956 3.20394 8.09779L3.48753 7.46516L3.50421 7.41522L3.52089 7.36527L3.53093 7.35861L3.53757 7.34862L3.54424 7.33863L3.55425 7.33198L3.56429 7.33863L3.57093 7.34862L3.57761 7.35861L3.58762 7.36527L3.59766 7.37193L3.6043 7.38192L3.61097 7.39191L3.62098 7.39857L3.63766 7.43186L3.65434 7.46516L3.66439 7.47182L3.67102 7.48181L4.12143 7.98125C4.4217 8.31422 4.77759 8.68604 5.18906 9.09668C5.60056 9.50733 5.82853 9.72042 5.87301 9.73597C5.91751 9.75372 5.9731 9.80476 6.03983 9.88913C6.10655 9.97128 6.32899 10.1677 6.70709 10.4785C7.08523 10.7892 7.58011 11.15 8.19176 11.5606C8.80345 11.9713 9.48183 12.3764 10.2269 12.7759C10.9721 13.1755 11.7728 13.5362 12.6291 13.8581C13.4854 14.1799 14.086 14.3908 14.4307 14.4907C14.7755 14.5906 15.3649 14.7182 16.199 14.8736C17.0331 15.029 17.6614 15.1289 18.084 15.1733C18.5066 15.2176 18.7958 15.2432 18.9515 15.2498L19.185 15.2565L19.1784 15.2066L19.1683 15.1566L19.1016 14.7404C19.0571 14.463 19.0349 14.0745 19.0349 13.575C19.0349 13.0756 19.0738 12.615 19.1516 12.1932C19.2295 11.7715 19.3463 11.3442 19.502 10.9113C19.6577 10.4785 19.81 10.1311 19.959 9.86916C20.1103 9.60945 20.3082 9.31311 20.5529 8.98014C20.7976 8.64718 21.1145 8.30313 21.5038 7.94796C21.893 7.59279 22.3378 7.27647 22.8383 6.99901C23.3387 6.72155 23.8003 6.51065 24.2229 6.36638C24.6455 6.22211 25.0014 6.12775 25.2905 6.08336C25.5797 6.03898 25.7242 6.01344 25.7242 6.00678V6.00678Z" fill="#5DA8DC" stroke="#5DA8DC" stroke-width="1.12646"/>
</svg>
