<svg width="40" height="40" viewBox="0 0 40 40" fill="none" xmlns="http://www.w3.org/2000/svg">
<path fill-rule="evenodd" clip-rule="evenodd" d="M15.0943 11.4053C14.7275 10.5897 14.3413 10.5734 13.9923 10.5591C13.7069 10.5469 13.3801 10.5476 13.0538 10.5476C12.7273 10.5476 12.1967 10.6703 11.748 11.1604C11.299 11.6504 10.0337 12.8351 10.0337 15.2445C10.0337 17.6542 11.7888 19.9825 12.0334 20.3095C12.2783 20.636 15.4214 25.7385 20.3991 27.7015C24.536 29.3328 25.3779 29.0083 26.2758 28.9267C27.1738 28.8451 29.1732 27.7423 29.5814 26.5987C29.9895 25.4553 29.9895 24.4752 29.8671 24.2704C29.7446 24.0663 29.4181 23.9439 28.9283 23.699C28.4385 23.4541 26.0309 22.2691 25.582 22.1059C25.133 21.9426 24.8065 21.861 24.4799 22.3513C24.1534 22.8411 23.2154 23.9439 22.9297 24.2704C22.644 24.5977 22.3583 24.6385 21.8685 24.3936C21.3787 24.1479 19.8014 23.6313 17.9303 21.963C16.4744 20.665 15.4915 19.062 15.2058 18.5717C14.9201 18.0819 15.1752 17.8166 15.4209 17.5725C15.6407 17.3531 15.9106 17.0008 16.1555 16.7148C16.3999 16.4288 16.4815 16.2248 16.6448 15.8982C16.8081 15.5712 16.7264 15.2853 16.604 15.0404C16.4815 14.7955 15.5298 12.3736 15.0943 11.4053Z" fill="#20B038"/>
<path d="M33.8574 5.74977C30.1567 2.04651 25.2358 0.00598045 19.9931 0.00366211C9.18938 0.00366211 0.397395 8.79284 0.393052 19.596C0.391779 23.0493 1.29407 26.4202 3.00908 29.3916L0.228516 39.5445L10.6187 36.82C13.4814 38.3812 16.7046 39.2039 19.9846 39.2052H19.993C30.7948 39.2052 39.5882 30.4145 39.5928 19.6118C39.5946 14.3762 37.5576 9.4533 33.8574 5.74977ZM19.9931 35.8961H19.9867C17.063 35.8945 14.1959 35.1096 11.6952 33.6257L11.1 33.2729L4.93432 34.8894L6.58047 28.8801L6.19272 28.264C4.56188 25.671 3.70093 22.6743 3.7022 19.5973C3.70576 10.6181 11.0133 3.31307 19.9992 3.31307C24.3507 3.31487 28.4404 5.01101 31.5164 8.08904C34.5921 11.1671 36.2847 15.2588 36.2834 19.6106C36.2796 28.59 28.9717 35.8961 19.9931 35.8961Z" fill="#20B038"/>
</svg>
