<svg width="57" height="52" viewBox="0 0 61 56" fill="none" xmlns="http://www.w3.org/2000/svg">
<path d="M29.0303 48.9972C38.0044 48.9972 45.2794 41.7574 45.2794 32.8266C45.2794 23.8958 38.0044 16.6559 29.0303 16.6559C20.0562 16.6559 12.7812 23.8958 12.7812 32.8266C12.7812 41.7574 20.0562 48.9972 29.0303 48.9972Z" fill="#FFCB11"/>
<path d="M29.3141 41.7837C34.2773 41.7788 38.2968 37.7707 38.2918 32.8315C38.2869 27.8923 34.2594 23.8922 29.2962 23.8972C24.333 23.9022 20.3136 27.9102 20.3185 32.8495C20.3235 37.7887 24.3509 41.7887 29.3141 41.7837Z" fill="#FAF7F5"/>
<path d="M29.3022 35.5692C30.8112 35.5647 32.0308 34.3437 32.0262 32.842C32.0217 31.3404 30.7948 30.1267 29.2859 30.1313C27.777 30.1358 26.5574 31.3568 26.5619 32.8584C26.5664 34.3601 27.7933 35.5737 29.3022 35.5692Z" fill="#FFCB11"/>
<path d="M57.4535 10.2717C57.3545 9.9275 57.0756 9.6639 56.7251 9.58323L53.4352 8.82603L52.6743 5.55206C52.5933 5.20335 52.3284 4.92577 51.9827 4.82716C51.6366 4.72866 51.2646 4.82451 51.0104 5.07756L45.5358 10.5256C45.3708 10.6898 45.2694 10.9067 45.2495 11.1381L44.9547 14.564C44.9298 14.8535 45.0346 15.1392 45.241 15.3446L45.3632 15.4663L44.4904 16.3349C44.1763 16.0482 43.8535 15.77 43.5224 15.5008C39.5253 12.2511 34.4764 10.4615 29.3057 10.4615C23.2995 10.4615 17.6528 12.7891 13.4058 17.0156C9.15885 21.2423 6.81982 26.8617 6.81982 32.839C6.81982 38.8163 9.15885 44.4357 13.4059 48.6624C17.6529 52.8889 23.2997 55.2165 29.3058 55.2165C34.4846 55.2165 39.5397 53.4218 43.5399 50.1631C47.4844 46.9497 50.2392 42.463 51.2969 37.5297C51.4109 36.9977 51.07 36.4743 50.5355 36.3607C50.0005 36.2476 49.4752 36.5866 49.3611 37.1185C47.3577 46.4637 38.9232 53.2465 29.3058 53.2465C17.9984 53.2465 8.7992 44.0917 8.7992 32.839C8.7992 21.5863 17.9984 12.4315 29.3058 12.4315C34.5192 12.4315 39.3884 14.4279 43.0725 17.746L40.0567 20.7472C37.1916 18.2213 33.6462 16.6861 29.3058 16.6861C20.3559 16.6861 13.0747 23.9322 13.0747 32.839C13.0747 41.7457 20.3559 48.9919 29.3058 48.9919C38.2558 48.9919 45.5371 41.8729 45.5371 32.839C45.3632 29.2735 43.9944 24.9914 41.4563 22.1401L44.4752 19.1359C46.8505 21.7255 48.5758 24.9327 49.3522 28.5181C49.4674 29.0499 49.9942 29.3884 50.5283 29.2735C51.0625 29.1588 51.4024 28.6349 51.2872 28.103C50.4497 24.2357 48.5682 20.6444 45.8891 17.7288L46.763 16.8591L46.8854 16.981C47.0718 17.1665 47.3239 17.2695 47.5851 17.2695C47.6132 17.2695 47.6414 17.2683 47.6696 17.2659L51.112 16.9726C51.3445 16.9528 51.5624 16.8518 51.7274 16.6876L57.2019 11.2395C57.4563 10.9864 57.5526 10.6158 57.4535 10.2717ZM45.5371 32.839C45.5371 41.8729 38.2558 48.9919 29.3058 48.9919C20.3559 48.9919 13.0747 41.7457 13.0747 32.839C13.0747 23.9323 20.233 16.6861 29.3058 16.6861C33.6462 16.6861 37.1237 18.1393 40.0567 20.7472L35.6226 25.1599C33.9011 23.7549 31.7007 22.9107 29.3058 22.9107C23.8048 22.9107 19.3295 27.3646 19.3295 32.839C19.3295 38.3135 23.8048 42.7672 29.3058 42.7672C34.8068 42.7672 39.2823 38.3135 39.2823 32.839C39.2823 30.4557 38.434 28.2659 37.0223 26.5528L41.4563 22.1401C43.9723 24.9666 45.3632 29.2735 45.5371 32.839ZM31.0481 32.839C31.0481 33.7949 30.2666 34.5726 29.3058 34.5726C28.3452 34.5726 27.5638 33.7949 27.5638 32.839C27.5638 31.8831 28.3452 31.1053 29.3058 31.1053C29.413 31.1053 29.5179 31.1151 29.6199 31.1336L28.6061 32.1425C28.2195 32.5271 28.2195 33.1508 28.606 33.5355C28.7992 33.7279 29.0526 33.8242 29.3058 33.8242C29.5591 33.8242 29.8123 33.7279 30.0055 33.5356L31.0196 32.5265C31.0383 32.6278 31.0481 32.7323 31.0481 32.839ZM31.1423 29.6185C30.6001 29.3111 29.9732 29.1353 29.3058 29.1353C27.2538 29.1353 25.5844 30.7967 25.5844 32.839C25.5844 34.8812 27.2538 36.5427 29.3058 36.5427C31.3578 36.5427 33.0274 34.8813 33.0274 32.839C33.0274 32.1749 32.8508 31.551 32.5419 31.0115L35.6146 27.9536C36.6722 29.303 37.3028 30.9992 37.3028 32.839C37.3028 37.2272 33.7154 40.7971 29.3057 40.7971C24.8962 40.7971 21.3088 37.2272 21.3088 32.839C21.3088 28.4509 24.8962 24.8808 29.3057 24.8808C31.1546 24.8808 32.8589 25.5085 34.2148 26.5608L31.1423 29.6185ZM50.5833 15.0403L47.9594 15.2639L46.9661 14.2756L47.1908 11.6645L51.1479 7.72653L51.6458 9.86929C51.7311 10.2359 52.0188 10.5222 52.3871 10.607L54.5402 11.1025L50.5833 15.0403Z" fill="#636363"/>
<path d="M54.6149 7.65311L53.2599 1.82239L45.0185 10.024L44.5747 15.1813L47.0502 17.6448L52.2324 17.2031L60.4739 9.0015L54.6149 7.65311Z" fill="#FFCB11"/>
<rect x="0.5" y="0.5" width="2" height="1" stroke="#F7F7F7" stroke-opacity="0.04"/>
</svg>
