<svg width="262" height="330" viewBox="0 0 262 330" fill="none" xmlns="http://www.w3.org/2000/svg">
<path d="M117.76 66.4485L129.13 241.612L-31.1683 159.356L117.76 66.4485Z" fill="url(#paint0_linear)"/>
<path d="M-1.08133 29.5984L182.806 179.271L-54.748 260.545L-1.08133 29.5984Z" fill="url(#paint1_linear)"/>
<path d="M82.5108 201.514L188.125 214.147L121.361 300.532L82.5108 201.514Z" fill="url(#paint2_linear)"/>
<path d="M89.842 147.436L147.233 113.266L147.233 181.606L89.842 147.436Z" fill="url(#paint3_linear)"/>
<path d="M192.076 380.792L241.86 -40.0379L583.931 222.355L192.076 380.792Z" fill="url(#paint4_linear)"/>
<path d="M322.853 191.093L5.0795 -83.4002L414.243 -222.8L322.853 191.093Z" fill="url(#paint5_linear)"/>
<defs>
<linearGradient id="paint0_linear" x1="222.317" y1="90.536" x2="119.733" y2="237.11" gradientUnits="userSpaceOnUse">
<stop stop-color="white"/>
<stop offset="1" stop-color="white" stop-opacity="0"/>
</linearGradient>
<linearGradient id="paint1_linear" x1="172.779" y1="46.666" x2="91.2424" y2="197.857" gradientUnits="userSpaceOnUse">
<stop stop-color="white"/>
<stop offset="1" stop-color="white" stop-opacity="0"/>
</linearGradient>
<linearGradient id="paint2_linear" x1="154.407" y1="151.023" x2="142.451" y2="252.653" gradientUnits="userSpaceOnUse">
<stop stop-color="white"/>
<stop offset="1" stop-color="white" stop-opacity="0"/>
</linearGradient>
<linearGradient id="paint3_linear" x1="106.194" y1="94.9082" x2="139.107" y2="149.946" gradientUnits="userSpaceOnUse">
<stop stop-color="white"/>
<stop offset="1" stop-color="white" stop-opacity="0"/>
</linearGradient>
<linearGradient id="paint4_linear" x1="-43.9741" y1="279.871" x2="263.754" y2="-23.6907" gradientUnits="userSpaceOnUse">
<stop stop-color="white"/>
<stop offset="1" stop-color="white" stop-opacity="0"/>
</linearGradient>
<linearGradient id="paint5_linear" x1="23.018" y1="155.418" x2="174.926" y2="-107.23" gradientUnits="userSpaceOnUse">
<stop stop-color="white"/>
<stop offset="1" stop-color="white" stop-opacity="0"/>
</linearGradient>
</defs>
</svg>
