<svg width="57" height="51" viewBox="0 0 57 51" fill="none" xmlns="http://www.w3.org/2000/svg">
<path d="M31.7111 23.051C48.5467 18.8969 51.1773 43.3025 34.8678 43.3025V34.9942L28.0283 26.1667L31.7111 23.051Z" fill="#FFCB11"/>
<path d="M21.7151 26.3488L17.2443 22.4548C15.956 21.3313 15.216 19.7095 15.216 18.005V10.9349C15.216 10.4687 14.8357 10.0902 14.3673 10.0902C13.8988 10.0902 13.5186 10.4687 13.5186 10.9349V18.005C13.5186 20.196 14.4691 22.2825 16.1274 23.7269L19.8683 26.9839L16.1274 30.2411C14.469 31.6855 13.5186 33.7719 13.5186 35.963V43.033C13.5186 43.4993 13.8988 43.8777 14.3673 43.8777C14.8357 43.8777 15.216 43.4993 15.216 43.033V35.963C15.216 34.2584 15.956 32.6366 17.2443 31.5132L21.7151 27.6192C21.9001 27.4587 22.0053 27.2273 22.0053 26.984C22.0053 26.7407 21.9001 26.5092 21.7151 26.3488Z" fill="#636363"/>
<path d="M35.5834 18.0049V10.9349C35.5834 10.4686 35.2032 10.0901 34.7347 10.0901C34.2663 10.0901 33.886 10.4686 33.886 10.9349V18.0049C33.886 19.7094 33.1477 21.3312 31.8577 22.4547L27.3869 26.3487C27.2019 26.5092 27.0967 26.7407 27.0967 26.9839C27.0967 27.2272 27.2019 27.4587 27.3869 27.6191L31.8577 31.5131C33.146 32.6366 33.886 34.2584 33.886 35.9629V43.033C33.886 43.4992 34.2663 43.8777 34.7347 43.8777C35.2032 43.8777 35.5834 43.4992 35.5834 43.033V35.9629C35.5834 33.7701 34.6329 31.6854 32.9746 30.241L29.2337 26.9839L32.9746 23.7268C34.6329 22.2824 35.5834 20.1961 35.5834 18.0049Z" fill="#636363"/>
<path d="M23.7555 30.5012C24.1557 29.9756 24.9466 29.9756 25.3468 30.5012L32.3634 39.7173C32.8646 40.3756 32.3951 41.323 31.5677 41.323H17.5345C16.7072 41.323 16.2377 40.3756 16.7389 39.7173L23.7555 30.5012Z" fill="#FFCB11"/>
<path d="M25.3323 25.5093C24.9319 26.0113 24.1691 26.0113 23.7687 25.5093L21.1129 22.1796C20.5905 21.5246 21.0569 20.5561 21.8947 20.5561L27.2063 20.5561C28.0441 20.5561 28.5105 21.5246 27.9881 22.1796L25.3323 25.5093Z" fill="#FFCB11"/>
<rect x="12.1328" y="7.70035" width="24.8392" height="2.96671" rx="1.48335" fill="#636363"/>
<rect x="12.1313" y="43.3008" width="24.8392" height="2.96671" rx="1.48335" fill="#636363"/>
<rect width="0.992297" height="7.11868" rx="0.496149" transform="matrix(0.853734 0.52071 -0.524287 0.851542 38.4619 26.8878)" fill="white"/>
<rect width="0.992151" height="5.17306" rx="0.496075" transform="matrix(-0.835157 0.550012 -0.553626 -0.832766 38.606 36.625)" fill="white"/>
<rect x="0.5" y="0.5" width="56" height="50" stroke="#F7F7F7" stroke-opacity="0.04"/>
</svg>
