<svg width="315" height="119" viewBox="0 0 315 119" fill="none" xmlns="http://www.w3.org/2000/svg">
<mask id="mask0" mask-type="alpha" maskUnits="userSpaceOnUse" x="-22" y="0" width="337" height="119">
<rect x="-22" width="337" height="119" rx="16" fill="#F7F7F7"/>
</mask>
<g mask="url(#mask0)">
<path d="M122.5 -12C116.757 -12 111.927 -8.02536 110.611 -2.68329C97.3226 -0.0749864 85.2002 6.89819 76.2025 17.1804C66.3989 28.3832 61 42.7606 61 57.6637C61 59.918 62.8276 61.7456 65.0819 61.7456C67.3361 61.7456 69.1637 59.918 69.1637 57.6637C69.1637 44.7386 73.8453 32.2707 82.3462 22.5565C89.9817 13.8308 100.206 7.85035 111.431 5.47743C113.397 9.61943 117.619 12.4912 122.5 12.4912C129.252 12.4912 134.746 6.99779 134.746 0.245576C134.746 -6.50663 129.252 -12 122.5 -12Z" fill="#E6E6E6"/>
<path d="M157.486 50.253C156.499 49.5664 154.621 48.4809 153.282 47.9026L151.168 42.8003C151.69 41.4854 152.26 39.3816 152.479 38.1661C152.715 36.8506 152.293 35.5028 151.347 34.5577L145.606 28.8164C144.661 27.8711 143.313 27.4484 141.998 27.6852C140.801 27.9004 138.711 28.4613 137.364 28.9957L132.261 26.8822C131.702 25.5863 130.617 23.6937 129.911 22.6784C129.148 21.5812 127.896 20.927 126.56 20.927H118.44C117.104 20.927 115.852 21.5812 115.089 22.6784C114.403 23.6654 113.317 25.5433 112.739 26.8822L107.637 28.9957C106.322 28.4741 104.218 27.9037 103.002 27.6852C101.688 27.4493 100.339 27.8716 99.3939 28.8164L93.6526 34.5577C92.7075 35.5028 92.2849 36.8506 92.5214 38.1661C92.7366 39.3631 93.2975 41.4533 93.8319 42.8003L91.7183 47.9026C90.4225 48.4621 88.5299 49.5465 87.5146 50.253C86.4174 51.016 85.7632 52.2678 85.7632 53.6042V61.7235C85.7632 63.0599 86.4174 64.3117 87.5146 65.0747C88.5016 65.7613 90.3795 66.8468 91.7183 67.4251L93.8319 72.5274C93.3103 73.8423 92.7399 75.9461 92.5214 77.1617C92.2849 78.4771 92.7075 79.825 93.6526 80.77L99.3939 86.5113C100.339 87.4564 101.686 87.8785 103.002 87.6425C104.199 87.4273 106.289 86.8664 107.637 86.332L112.739 88.4456C113.298 89.7414 114.383 91.634 115.089 92.6493C115.852 93.7465 117.104 94.4007 118.44 94.4007H126.56C127.896 94.4007 129.148 93.7465 129.911 92.6493C130.598 91.6623 131.683 89.7844 132.261 88.4456L137.364 86.332C138.678 86.8536 140.782 87.424 141.998 87.6425C143.313 87.879 144.661 87.4564 145.606 86.5113L151.347 80.77C152.293 79.825 152.715 78.4771 152.479 77.1617C152.263 75.9646 151.703 73.8744 151.168 72.5274L153.282 67.4251C154.578 66.8656 156.47 65.7812 157.486 65.0747C158.583 64.3117 159.237 63.0599 159.237 61.7235V53.6042C159.237 52.2678 158.583 51.016 157.486 50.253ZM122.5 73.9917C113.497 73.9917 106.172 66.6672 106.172 57.6643C106.172 48.6613 113.497 41.3368 122.5 41.3368C131.503 41.3368 138.827 48.6613 138.827 57.6643C138.827 66.6672 131.503 73.9917 122.5 73.9917Z" fill="#E6E6E6"/>
<path d="M179.918 53.5818C177.664 53.5818 175.836 55.4094 175.836 57.6636C175.836 70.5887 171.155 83.0566 162.654 92.7709C155.018 101.497 144.794 107.477 133.569 109.85C131.603 105.708 127.381 102.836 122.5 102.836C115.748 102.836 110.254 108.33 110.254 115.082C110.254 121.834 115.748 127.327 122.5 127.327C128.243 127.327 133.073 123.353 134.389 118.011C147.677 115.402 159.8 108.429 168.797 98.147C178.601 86.9442 184 72.5668 184 57.6636C184 55.4094 182.172 53.5818 179.918 53.5818Z" fill="#E6E6E6"/>
<path d="M-18.1163 155.95L-8.38131 165.685L-8.38103 165.685L58.8645 98.4392L53.6965 93.2712L75.1257 76L87.3521 88.2263L70.0809 109.655L64.9125 104.487L-2.3333 171.733L7.40197 181.468L-6.48194 195.352L-31.9999 169.834L-18.1163 155.95Z" fill="#C7C7C7"/>
<path d="M196.587 96L222.105 121.518L206.795 136.828C203.387 140.236 198.855 142.113 194.035 142.113C189.216 142.113 184.685 140.236 181.277 136.828C174.241 129.793 174.241 118.346 181.277 111.31L196.587 96Z" fill="#C7C7C7"/>
<path d="M227.108 95.0418L247.04 75.1099L261.632 89.7007C272.351 86.3416 284.048 89.1475 292.115 97.2172C297.843 102.946 301 110.562 301 118.666C301 126.767 297.843 134.386 292.115 140.115C286.201 146.029 278.433 148.986 270.666 148.986C262.898 148.986 255.128 146.029 249.217 140.115C241.147 132.048 238.341 120.351 241.7 109.633L227.108 95.0418ZM263.722 125.606C267.558 129.442 273.774 129.442 277.606 125.606C281.442 121.774 281.442 115.558 277.606 111.722C273.774 107.89 267.558 107.89 263.722 111.722C259.89 115.558 259.89 121.774 263.722 125.606Z" fill="#C7C7C7"/>
<path d="M156.988 21.2962L159.372 15.2082L174.676 30.5122L180.855 28.8555L182.512 22.6763L167.208 7.37519L173.296 4.98849C183.969 0.808205 196.099 3.34033 204.201 11.4414C211.62 18.861 214.369 29.6653 211.563 39.6312L247 75L227.5 95L191.631 59.5632C189.059 60.2874 186.436 60.641 183.827 60.641C176.319 60.6382 168.948 57.7068 163.441 52.2006C155.34 44.0998 152.808 31.9696 156.988 21.2962Z" fill="#C7C7C7"/>
</g>
</svg>
