<svg width="294" height="109" viewBox="0 0 294 109" fill="none" xmlns="http://www.w3.org/2000/svg">
<g clip-path="url(#clip0)">
<mask id="mask0" mask-type="alpha" maskUnits="userSpaceOnUse" x="180" y="-75" width="143" height="238">
<path d="M249.463 140.127C259.444 132.896 271.126 82.5092 271.822 52.5C272.179 37.1272 276.591 30.7225 280.484 25.0715C284.204 19.6705 287.417 15.0059 285.546 4.29428C281.969 -16.1773 291.374 -25.0133 291.469 -25.1001L290.38 -26.3783C289.962 -25.9997 280.167 -16.8858 283.921 4.59645C285.67 14.603 282.787 18.7883 279.138 24.0885C275.308 29.6458 270.541 36.5646 270.172 52.4583C269.424 84.6661 257.481 132.24 248.513 138.735L249.463 140.127" fill="url(#paint0_linear)" fill-opacity="0.75"/>
<path d="M197.508 47.6339C191.596 44.31 185.257 43.6396 182.762 46.0744C180.866 47.9256 181.76 51.0968 182.844 53.4308C184.912 57.8835 187.527 60.6309 189.835 63.0588C193.043 66.4278 195.577 69.0919 194.292 74.2636C194.04 75.2778 193.75 76.3024 193.458 77.3305C191.419 84.5132 189.493 91.3 200.169 96.2425C202.676 97.4026 204.974 98.3334 207.002 99.1531C215.449 102.567 221.029 104.822 227.012 117.829C228.125 120.25 229.104 122.535 230.05 124.744C235.214 136.8 238.331 144.077 249.62 141.725C252.856 141.051 254.965 139.332 255.887 136.616C258.258 129.631 252.584 117.405 247.576 111.261C247.209 110.809 238.598 99.9937 239.544 84.5202C239.698 82.002 239.95 79.6854 240.172 77.6465C240.761 72.2352 241.186 68.3242 239.237 66.0701C237.455 64.0069 233.555 63.0726 226.59 63.0379C212.605 62.9719 207.084 57.0152 202.648 52.2325C200.872 50.3153 199.34 48.662 197.508 47.6339V47.6339ZM228.54 125.432C227.598 123.23 226.623 120.955 225.52 118.555C219.817 106.159 214.767 104.116 206.399 100.733C204.353 99.9068 202.036 98.969 199.492 97.7951C187.505 92.2448 189.826 84.0686 191.873 76.8546C192.16 75.8439 192.446 74.8367 192.693 73.8433C193.747 69.5989 191.722 67.4698 188.656 64.2466C186.377 61.8535 183.541 58.8734 181.355 54.1637C178.962 49.0128 180.182 46.2515 181.626 44.8414C184.667 41.8717 191.679 42.417 198.299 46.1404C200.356 47.297 202.049 49.1239 203.842 51.0586C208.062 55.6086 213.314 61.2735 226.598 61.3395C234.172 61.3742 238.321 62.4509 240.47 64.9378C242.909 67.7616 242.449 71.9851 241.813 77.8341C241.593 79.8556 241.343 82.1514 241.192 84.6279C240.288 99.4032 248.758 110.066 248.842 110.17C253.902 116.377 260.136 129.253 257.445 137.175C256.317 140.499 253.795 142.59 249.948 143.392C248.415 143.712 247.015 143.861 245.727 143.861C236.436 143.861 233.036 135.925 228.54 125.432" fill="url(#paint1_linear)" fill-opacity="0.2"/>
<path d="M249.77 153.677L251.418 153.59C251.337 151.992 249.257 114.39 234.599 103.387C218.518 91.3139 213.448 78.3378 211.034 69.6268C208.188 59.3667 193.706 56.6228 193.091 56.5117L192.804 58.1858C192.944 58.2136 206.885 60.8567 209.446 70.0957C211.928 79.0463 217.134 92.3768 233.627 104.759C247.656 115.293 249.75 153.295 249.77 153.677" fill="url(#paint2_linear)" fill-opacity="0.2"/>
<path d="M297.486 96.687C308.519 89.209 303.555 81.0503 297.808 71.5995C293.288 64.1666 288.165 55.7439 291.176 46.8871C294.695 36.5367 299.913 30.2431 304.516 24.6928C312.229 15.3948 317.324 9.25058 307.126 -9.30716C298.488 -25.0238 306.986 -38.5001 313.814 -49.3298C318.005 -55.9742 321.623 -61.7155 320.362 -66.328C319.657 -68.9052 317.428 -71.0899 313.54 -73.0037C312.751 -73.3962 311.942 -73.3927 311.069 -73.0002C305.236 -70.3848 299.881 -52.9455 299.828 -52.7684L299.785 -52.6294L299.698 -52.5113C293.641 -44.2657 286.522 -44.8006 280.801 -45.2348C277.383 -45.4918 274.683 -45.6967 273.056 -44.0261C271.453 -42.3832 270.863 -38.7849 271.25 -33.0227C272.731 -10.9709 260.811 -6.47644 251.233 -2.8677C245.852 -0.839304 241.204 0.91471 239.613 5.232C237.915 9.84105 239.762 17.0273 245.426 27.8465C258.947 53.6739 251.379 59.8216 244.06 65.7678C237.938 70.7416 232.155 75.4374 239.021 92.4531C246.068 109.92 245.737 128.759 245.495 142.517C245.33 151.905 245.199 159.321 247.715 160.613C249.187 161.366 252.004 160.092 256.087 156.82C257.724 153.156 277.086 110.511 297.486 96.687V96.687ZM246.979 162.134C243.53 160.366 243.655 153.253 243.845 142.486C244.084 128.881 244.411 110.247 237.496 93.106C230.151 74.8991 236.702 69.578 243.038 64.4341C250.134 58.6684 256.836 53.2258 243.973 28.6523C238.065 17.3676 236.189 9.73336 238.07 4.62764C239.929 -0.415571 245.144 -2.38144 250.666 -4.46193C260.196 -8.05678 270.999 -12.1275 269.603 -32.9046C269.175 -39.2746 269.902 -43.1925 271.891 -45.2313C274.052 -47.4473 277.236 -47.2076 280.922 -46.9298C286.492 -46.5095 292.801 -46.0337 298.297 -53.4213C298.868 -55.2656 304.123 -71.7394 310.408 -74.5597C311.73 -75.1536 313.021 -75.1467 314.252 -74.5389C318.592 -72.3993 321.111 -69.8673 321.95 -66.7865C323.414 -61.4342 319.607 -55.3976 315.199 -48.4059C308.271 -37.4164 300.419 -24.9647 308.563 -10.1442C319.33 9.44856 313.642 16.3083 305.772 25.7973C301.262 31.2365 296.151 37.3981 292.734 47.4497C289.985 55.5355 294.674 63.2428 299.207 70.6964C304.894 80.0465 310.775 89.7161 298.393 98.1076C277.923 111.98 257.707 157.261 257.505 157.716L257.421 157.904L257.263 158.032C253.492 161.078 250.746 162.53 248.679 162.53C248.054 162.53 247.49 162.398 246.979 162.134" fill="url(#paint3_linear)" fill-opacity="0.2"/>
<path d="M214.668 -35.2316C225.087 -38.9098 222.922 -18.2264 227.324 -2.92316C231.726 12.3801 276.298 3.75249 257.589 42.0732C238.88 80.394 281.25 54.8862 268.594 88.3269C255.938 121.768 267.494 157.532 253.737 148.436C239.98 139.339 246.008 97.229 231.702 92.224C217.395 87.219 215.06 81.3839 229.226 67.7825C243.391 54.1776 192.107 40.6735 204.763 13.2068C217.42 -14.26 202.631 -30.9803 214.668 -35.2316" fill="url(#paint4_linear)" fill-opacity="0.2"/>
<path d="M251.038 144.603C252.165 138.811 261.792 87.8353 252.809 81.6707C244.893 76.2406 245.088 55.1178 246.323 35.1689C247.416 17.5115 228.696 9.25924 227.898 8.91481L227.423 10.5385C227.608 10.6159 245.918 18.696 244.906 35.0389C243.638 55.5255 243.502 77.2634 252.11 83.1679C258.93 87.8494 252.651 128.819 249.656 144.21L251.038 144.603" fill="white"/>
</mask>
<g mask="url(#mask0)">
<rect x="-0.311035" y="-0.756195" width="294" height="109.926" rx="16" fill="#AEAEAE"/>
</g>
</g>
<defs>
<linearGradient id="paint0_linear" x1="291.469" y1="56.8763" x2="248.513" y2="56.8763" gradientUnits="userSpaceOnUse">
<stop stop-color="#1A2257"/>
<stop offset="0.00520833" stop-color="#1A2257"/>
<stop offset="1" stop-color="#5E60F2"/>
</linearGradient>
<linearGradient id="paint1_linear" x1="258.093" y1="93.3979" x2="180" y2="93.3979" gradientUnits="userSpaceOnUse">
<stop stop-color="#1A2257"/>
<stop offset="0.00520833" stop-color="#1A2257"/>
<stop offset="1" stop-color="#5E60F2"/>
</linearGradient>
<linearGradient id="paint2_linear" x1="251.418" y1="105.096" x2="192.804" y2="105.096" gradientUnits="userSpaceOnUse">
<stop stop-color="#1A2257"/>
<stop offset="0.00520833" stop-color="#1A2257"/>
<stop offset="1" stop-color="#5E60F2"/>
</linearGradient>
<linearGradient id="paint3_linear" x1="322.271" y1="43.7646" x2="234.251" y2="43.7646" gradientUnits="userSpaceOnUse">
<stop stop-color="#1A2257"/>
<stop offset="0.00520833" stop-color="#1A2257"/>
<stop offset="1" stop-color="#5E60F2"/>
</linearGradient>
<linearGradient id="paint4_linear" x1="269.862" y1="142.729" x2="215.822" y2="-14.6698" gradientUnits="userSpaceOnUse">
<stop stop-color="#F7F8FE"/>
<stop offset="0.00520833" stop-color="#767676"/>
<stop offset="1" stop-color="#BFBFBF"/>
</linearGradient>
<clipPath id="clip0">
<rect width="294" height="109" fill="white"/>
</clipPath>
</defs>
</svg>
