<svg width="136" height="104" viewBox="0 0 136 104" fill="none" xmlns="http://www.w3.org/2000/svg">
<path d="M0 90.8615H147V90.788H0V90.8615Z" fill="#E7E8E5"/>
<path d="M122.533 95.4965H132.271V95.57H122.533V95.4965Z" fill="#E7E8E5"/>
<path d="M98.0142 95.57H118.831V95.4965H98.0142V95.57Z" fill="#E7E8E5"/>
<path d="M80.8916 92.8534H86.5341V92.7798H80.8916V92.8534Z" fill="#E7E8E5"/>
<path d="M15.4229 93.2716H25.5041V93.3451H15.4229V93.2716Z" fill="#E7E8E5"/>
<path d="M28.1216 93.3451H46.4518V93.2716H28.1216V93.3451Z" fill="#E7E8E5"/>
<path d="M55.3701 94.5801H66.1935V94.5066H55.3701V94.5801Z" fill="#E7E8E5"/>
<path d="M12.9111 -4.9266C12.0262 -4.9266 11.3064 -4.21018 11.3064 -3.33025V76.0721C11.3064 76.9525 12.0262 77.6687 12.9111 77.6687H69.6822C70.5665 77.6687 71.2865 76.9525 71.2865 76.0721V-3.33025C71.2865 -4.21018 70.5665 -4.9266 69.6822 -4.9266H12.9111ZM69.6822 77.7418H12.9111C11.9857 77.7418 11.2329 76.993 11.2329 76.0721V-3.33025C11.2329 -4.25055 11.9857 -4.99973 12.9111 -4.99973H69.6822C70.6071 -4.99973 71.36 -4.25055 71.36 -3.33025V76.0721C71.36 76.993 70.6071 77.7418 69.6822 77.7418Z" fill="#E7E8E5"/>
<path d="M76.5021 -4.9266C75.6174 -4.9266 74.8977 -4.21018 74.8977 -3.33025V76.0721C74.8977 76.9525 75.6174 77.6687 76.5021 77.6687H133.273C134.158 77.6687 134.878 76.9525 134.878 76.0721V-3.33025C134.878 -4.21018 134.158 -4.9266 133.273 -4.9266H76.5021ZM133.273 77.7418H76.5021C75.5769 77.7418 74.8242 76.993 74.8242 76.0721V-3.33025C74.8242 -4.25055 75.5769 -4.99973 76.5021 -4.99973H133.273C134.198 -4.99973 134.951 -4.25055 134.951 -3.33025V76.0721C134.951 76.993 134.198 77.7418 133.273 77.7418Z" fill="#E7E8E5"/>
<path d="M18.2432 83.2335H46.6712V5.21601H18.2432V83.2335Z" fill="#F3F2F1"/>
<path d="M46.6714 83.2335H46.9595V5.21601H46.6714V83.2335Z" fill="#E7E8E5"/>
<path d="M20.9863 80.2573H43.9277V8.19199H20.9863V80.2573Z" fill="white"/>
<path d="M58.853 51.3962H125.912V1.82063H58.853V51.3962Z" fill="#E2E2E0"/>
<path d="M57.8154 51.3962H124.875V1.82063H57.8154V51.3962Z" fill="#F3F2F1"/>
<path d="M59.6787 49.3136H123.012V3.90287H59.6787V49.3136Z" fill="white"/>
<path d="M59.6787 49.3136H60.4631V3.90287H59.6787V49.3136Z" fill="#E2E2E0"/>
<path d="M58.5859 39.613H124.104V36.8179H58.5859V39.613Z" fill="#F3F2F1"/>
<path d="M57.8153 15.5626H55.7358V-0.370133H62.0671V1.82064H58.8531H57.8153V15.5626" fill="#F3F2F1"/>
<path d="M59.6785 15.5626H57.8154V1.82063H62.0672V3.90286H59.6785V15.5626Z" fill="#ECECEA"/>
<path d="M62.0674 15.5626H60.4631V3.90287H59.6787V15.5626V3.90287H62.0674V15.5626Z" fill="#F3F2F1"/>
<path d="M59.6787 15.5626H60.4631V3.90281H59.6787V15.5626Z" fill="#E2E2E0"/>
<path d="M62.0674 1.82063H65.2058V-0.370158H62.0674V1.82063Z" fill="#FBFBFA"/>
<path d="M62.0674 3.90286H65.2058V1.82052H62.0674V3.90286Z" fill="#F3F2F1"/>
<path d="M62.0674 14.2822H65.2058V3.90278H62.0674V14.2822Z" fill="#FBFBFA"/>
<path d="M71.5369 1.82063H71.3599V-0.370144H71.5369V1.82063ZM71.2864 1.82063H65.2056V-0.370144H71.2864V1.82063Z" fill="#F3F2F1"/>
<path d="M71.2866 1.82063H71.3602V-0.370158H71.2866V1.82063Z" fill="#E5E5E3"/>
<path d="M65.2056 3.90286H71.5369V1.82052H65.2056V3.90286Z" fill="#ECECEA"/>
<path d="M65.2056 15.5626H71.5369V3.90281H65.2056V15.5626Z" fill="#F3F2F1"/>
<path d="M71.5371 1.82063H74.6756V-0.370158H71.5371V1.82063Z" fill="#FBFBFA"/>
<path d="M71.5371 3.90286H74.6756V1.82052H71.5371V3.90286Z" fill="#F3F2F1"/>
<path d="M71.5371 14.2822H74.6756V3.90278H71.5371V14.2822Z" fill="#FBFBFA"/>
<path d="M81.0066 1.82063H74.8979V-0.370144H81.0066V1.82063ZM74.8244 1.82063H74.6753V-0.370144H74.8244V1.82063Z" fill="#F3F2F1"/>
<path d="M74.8242 1.82063H74.8978V-0.370158H74.8242V1.82063Z" fill="#E5E5E3"/>
<path d="M74.6753 3.90286H81.0065V1.82052H74.6753V3.90286Z" fill="#ECECEA"/>
<path d="M74.6753 15.5626H81.0065V3.90281H74.6753V15.5626Z" fill="#F3F2F1"/>
<path d="M81.0068 1.82063H84.1454V-0.370158H81.0068V1.82063Z" fill="#FBFBFA"/>
<path d="M81.0068 3.90286H84.1454V1.82052H81.0068V3.90286Z" fill="#F3F2F1"/>
<path d="M81.0068 14.2822H84.1454V3.90278H81.0068V14.2822Z" fill="#FBFBFA"/>
<path d="M84.145 1.82063H90.4763V-0.370158H84.145V1.82063Z" fill="#F3F2F1"/>
<path d="M84.145 3.90286H90.4763V1.82052H84.145V3.90286Z" fill="#ECECEA"/>
<path d="M84.145 15.5626H90.4763V3.90281H84.145V15.5626Z" fill="#F3F2F1"/>
<path d="M90.4766 1.82063H93.615V-0.370158H90.4766V1.82063Z" fill="#FBFBFA"/>
<path d="M90.4766 3.90286H93.615V1.82052H90.4766V3.90286Z" fill="#F3F2F1"/>
<path d="M90.4766 14.2822H93.615V3.90278H90.4766V14.2822Z" fill="#FBFBFA"/>
<path d="M93.6147 1.82063H99.9457V-0.370158H93.6147V1.82063Z" fill="#F3F2F1"/>
<path d="M93.6147 3.90286H99.9457V1.82052H93.6147V3.90286Z" fill="#ECECEA"/>
<path d="M93.6147 15.5626H99.9457V3.90281H93.6147V15.5626Z" fill="#F3F2F1"/>
<path d="M99.9458 1.82063H103.085V-0.370158H99.9458V1.82063Z" fill="#FBFBFA"/>
<path d="M99.9458 3.90286H103.085V1.82052H99.9458V3.90286Z" fill="#F3F2F1"/>
<path d="M99.9458 14.2822H103.085V3.90278H99.9458V14.2822Z" fill="#FBFBFA"/>
<path d="M103.084 1.82063H109.415V-0.370158H103.084V1.82063Z" fill="#F3F2F1"/>
<path d="M103.084 3.90286H109.415V1.82052H103.084V3.90286Z" fill="#ECECEA"/>
<path d="M103.084 15.5626H109.415V3.90281H103.084V15.5626Z" fill="#F3F2F1"/>
<path d="M109.416 1.82063H112.554V-0.370158H109.416V1.82063Z" fill="#FBFBFA"/>
<path d="M109.416 3.90286H112.554V1.82052H109.416V3.90286Z" fill="#F3F2F1"/>
<path d="M109.416 14.2822H112.554V3.90278H109.416V14.2822Z" fill="#FBFBFA"/>
<path d="M112.554 1.82063H118.885V-0.370158H112.554V1.82063Z" fill="#F3F2F1"/>
<path d="M112.554 3.90286H118.885V1.82052H112.554V3.90286Z" fill="#ECECEA"/>
<path d="M112.554 15.5626H118.885V3.90281H112.554V15.5626Z" fill="#F3F2F1"/>
<path d="M118.885 1.82063H122.024V-0.370158H118.885V1.82063Z" fill="#FBFBFA"/>
<path d="M118.885 3.90286H122.024V1.82052H118.885V3.90286Z" fill="#F3F2F1"/>
<path d="M118.885 14.2822H122.024V3.90278H118.885V14.2822Z" fill="#FBFBFA"/>
<path d="M128.355 15.5626H125.913V1.82064H122.024V-0.370133H128.355V15.5626" fill="#F3F2F1"/>
<path d="M125.913 15.5626H124.875V1.82063H122.024H125.913V15.5626" fill="#E2E2E0"/>
<path d="M124.875 15.5626H123.012V3.90286H122.024V1.82063H124.875V15.5626" fill="#ECECEA"/>
<path d="M122.024 15.5626H123.012V3.90281H122.024V15.5626Z" fill="#F3F2F1"/>
<path d="M59.8931 90.7884H67.7393V61.7111H59.8931V90.7884Z" fill="#E2E2E0"/>
<path d="M61.199 90.7884H59.8931V88.1716H62.5682L61.199 90.7884" fill="#EDEDEB"/>
<path d="M116.351 90.7884H124.198V61.7111H116.351V90.7884Z" fill="#E2E2E0"/>
<path d="M59.8931 89.7835H117.491V61.7111H59.8931V89.7835Z" fill="#EDEDEB"/>
<path d="M60.9062 70.6541H116.478V62.9552H60.9062V70.6541Z" fill="#E2E2E0"/>
<path d="M74.9636 65.3479H102.421C103.695 65.3479 104.913 64.398 105.789 62.7212H71.5952C72.4713 64.398 73.6897 65.3479 74.9636 65.3479Z" fill="#EDEDEB"/>
<path d="M116.185 90.7884H117.491V88.1716H114.816L116.185 90.7884Z" fill="#EDEDEB"/>
<path d="M77.5352 46.9684H133.107V39.2699H77.5352V46.9684Z" fill="#E2E2E0"/>
<path d="M74.9636 74.2905H102.421C103.695 74.2905 104.913 73.3407 105.789 71.6642H71.5952C72.4713 73.3407 73.6897 74.2905 74.9636 74.2905" fill="#EDEDEB"/>
<path d="M60.9062 88.5394H116.478V80.8409H60.9062V88.5394Z" fill="#E2E2E0"/>
<path d="M74.9636 83.2335H102.421C103.695 83.2335 104.913 82.2837 105.789 80.6068H71.5952C72.4713 82.2837 73.6897 83.2335 74.9636 83.2335Z" fill="#EDEDEB"/>
<path d="M130.503 100.688C130.503 102.517 104.982 104 73.5 104C42.0179 104 16.4966 102.517 16.4966 100.688C16.4966 98.8582 42.0179 97.3751 73.5 97.3751C104.982 97.3751 130.503 98.8582 130.503 100.688" fill="#F3F2F1"/>
<path d="M108.745 99.0191H108.43C108.307 99.0191 108.202 98.9114 108.181 98.7643L106.245 85.3581H107.715L108.997 98.6756C109.014 98.8584 108.896 99.0191 108.745 99.0191" fill="#FFCB11"/>
<path d="M108.745 99.0191H108.43C108.307 99.0191 108.202 98.9114 108.181 98.7643L106.245 85.3581L107.715 85.3584L108.997 98.6756C108.998 98.6876 108.999 98.6996 108.999 98.7116C108.999 98.879 108.887 99.0191 108.745 99.0191" fill="#FFCB11"/>
<path d="M112.778 99.0191H112.463C112.34 99.0191 112.235 98.9114 112.214 98.7643L110.278 85.3581H111.748L113.03 98.6756C113.048 98.8584 112.93 99.0191 112.778 99.0191" fill="#FFCB11"/>
<path d="M112.778 99.0191H112.463C112.34 99.0191 112.235 98.9114 112.214 98.7643L110.278 85.3581H111.748L113.03 98.6756C113.031 98.6876 113.032 98.6996 113.032 98.7116C113.032 98.879 112.92 99.0191 112.778 99.0191" fill="#FFCB11"/>
<path d="M90.3044 99.0191H90.6196C90.7425 99.0191 90.8477 98.9114 90.8692 98.7643L92.8052 85.3581H91.3352L90.053 98.6756C90.0354 98.8584 90.153 99.0191 90.3044 99.0191" fill="#FFCB11"/>
<path d="M90.6196 99.0191H90.3044C90.163 99.0191 90.051 98.879 90.0513 98.7116C90.0513 98.6996 90.0519 98.6876 90.053 98.6756L90.8216 90.693C91.1238 91.6075 91.411 92.4576 91.6703 93.2155L90.8692 98.7643C90.8477 98.9114 90.7425 99.0191 90.6196 99.0191Z" fill="#FFCB11"/>
<path d="M86.2709 99.0191H86.5861C86.709 99.0191 86.8143 98.9114 86.8354 98.7643L88.7714 85.3581H87.3014L86.0193 98.6756C86.0019 98.8584 86.1195 99.0191 86.2709 99.0191" fill="#FFCB11"/>
<path d="M88.3125 88.5394L88.7722 85.3581V85.3584L88.3125 88.5394Z" fill="#949696"/>
<path d="M86.5864 99.0191H86.2712C86.1298 99.0191 86.0178 98.879 86.0181 98.7116C86.0181 98.6996 86.0184 98.6876 86.0195 98.6756L87.3017 85.3581L88.7717 85.3584L88.3124 88.5393L88.1328 89.7835L87.9876 90.7884L87.977 90.8616L86.8357 98.7643C86.8145 98.9114 86.7093 99.0191 86.5864 99.0191" fill="#FFCB11"/>
<path d="M81.0439 69.467H90.9458C92.7028 63.3964 99.0241 58.6074 105.498 58.6074H105.499H108.714C115.49 58.6074 119.863 63.8536 118.482 70.3253C118.228 71.5129 117.796 72.6591 117.221 73.74L115.66 83.1577C115.458 84.3729 114.484 85.3581 113.483 85.3581L83.679 85.3584C82.678 85.3584 81.7034 84.3729 81.502 83.1577L79.5968 71.6677C79.3952 70.4522 80.0431 69.467 81.0439 69.467" fill="#FFCB11"/>
<path d="M106.245 85.3581L107.715 85.3584V85.3581L106.245 85.3584" fill="#E8B915"/>
<path d="M87.3018 85.3581L88.7718 85.3584V85.3581L87.3018 85.3584" fill="#E8B915"/>
<path d="M84.1209 85.3584C85.0055 81.621 85.7505 77.7339 85.8152 75.0396C86.0348 74.9852 86.2721 74.9361 86.5243 74.8916C86.9741 77.7877 88.0146 81.6675 89.1295 85.3584H88.7714H87.3014H84.1209V85.3584ZM94.0554 85.3584C93.4565 81.3554 92.8494 77.1717 92.4963 74.3909C92.9229 74.3669 93.3522 74.3417 93.7811 74.3142C94.7522 74.3335 95.8806 74.3628 97.0628 74.3628C97.1959 74.3628 97.3297 74.3625 97.4641 74.3616L97.5499 74.8802L98.2514 85.3584H94.0554ZM99.585 85.3584L99.5482 84.5332C99.9636 85.0363 100.527 85.3581 101.099 85.3581H103.251V85.3584H99.585V85.3584ZM104.584 85.3584V85.3581H111.838L113.728 69.467H107.637C107.974 67.3409 107.624 65.6395 107.624 65.6395C107.596 63.2416 107.732 60.9026 107.964 58.6074H108.714C114.643 58.6074 118.732 62.6238 118.736 67.9637C118.737 68.7263 118.654 69.5161 118.482 70.3253C118.228 71.5129 117.796 72.6591 117.221 73.74L116.478 78.2227L116.25 79.5967L115.66 83.1577C115.458 84.3729 114.484 85.3581 113.483 85.3581H111.748H110.278L107.714 85.3584H106.244H104.584V85.3584ZM79.9523 73.8111L79.5968 71.6677C79.5718 71.5179 79.5601 71.3719 79.5601 71.2309C79.5601 70.2246 80.1663 69.467 81.0439 69.467H81.2056C80.5053 70.1694 80.0722 70.9998 80.0334 71.983C80.0105 72.569 79.9831 73.1801 79.9523 73.8111V73.8111ZM92.6175 65.8419C93.1631 64.9986 93.7985 64.2052 94.5061 63.4748H95.7039C95.7753 64.1745 95.8582 64.8962 95.9532 65.6395C95.9103 65.6401 94.5391 65.6594 92.6175 65.8419V65.8419ZM95.6313 62.7297H95.2773C95.3855 62.632 95.4943 62.536 95.6051 62.441C95.6136 62.5366 95.6224 62.6332 95.6313 62.7297Z" fill="#646464"/>
<path d="M78.5653 95.5501L81.0178 96.67C81.1072 96.7109 81.146 96.8031 81.1113 96.8924L80.3395 98.8775C80.2596 99.083 79.9832 99.1867 79.7795 99.0892C78.9325 98.6847 78.5473 98.4483 77.4689 97.956C76.8054 97.6529 74.9887 96.6402 74.1703 96.0542C73.37 95.4815 73.9574 94.6802 74.3572 94.8552C76.1486 95.6418 77.2893 95.7123 78.1278 95.5119C78.2789 95.4759 78.4347 95.4905 78.5653 95.5501Z" fill="#17282F"/>
<path d="M95.9544 65.6395C95.9544 65.6395 80.2757 65.8332 80.0335 71.983C79.6854 80.8222 78.3735 95.4978 78.3735 95.4978L81.0175 96.67C81.0175 96.67 85.65 81.9428 85.8153 75.0396C90.2141 73.9491 101.564 75.0484 102.898 71.4509C103.989 68.5081 103.398 65.6395 103.398 65.6395H95.9544" fill="#FFCB11"/>
<path d="M81.0175 96.67L78.3735 95.4978C78.3735 95.4978 79.6854 80.8222 80.0335 71.983C80.2745 65.8621 95.8074 65.6415 95.9532 65.6395C95.958 65.6761 95.9627 65.7126 95.9674 65.7492L96.9381 65.7401L96.9617 66.0915C92.7886 66.8488 86.0669 68.7313 86.3086 72.9788C86.3412 73.5475 86.4153 74.1911 86.5244 74.8916C86.2721 74.9361 86.0349 74.9852 85.8153 75.0396C85.7506 77.7339 85.0056 81.621 84.1209 85.3584C83.8643 86.4425 83.5964 87.5132 83.3295 88.5394C83.2195 88.9627 83.1096 89.3781 83.0011 89.7835C82.9094 90.1261 82.8185 90.4616 82.7288 90.7884C82.7224 90.8126 82.7156 90.8372 82.7089 90.8616C82.5222 91.5428 82.3414 92.187 82.1723 92.7803C82.1652 92.8048 82.1585 92.8291 82.1514 92.8534C81.4961 95.1483 81.0175 96.67 81.0175 96.67ZM92.4964 74.3909C92.4926 74.3596 92.4885 74.3288 92.4846 74.2978C92.8715 74.2978 93.3078 74.3049 93.7812 74.3142C93.3522 74.3417 92.923 74.3669 92.4964 74.3909ZM98.7127 65.8118L98.7089 65.7235L99.4539 65.7164C99.2446 65.7413 98.9953 65.7726 98.7127 65.8118Z" fill="#FFBC10"/>
<path d="M99.2914 49.4605C99.1549 50.0283 99.0174 50.5405 98.8595 51.0715C98.7048 51.5974 98.5431 52.1208 98.3735 52.6426C98.0292 53.6846 97.6502 54.7196 97.2125 55.7441C96.7782 56.7697 96.2928 57.7868 95.7013 58.7899C95.4026 59.291 95.0839 59.793 94.7055 60.283C94.3275 60.7727 93.8994 61.2609 93.3396 61.7184L93.2961 61.7541C93.2655 61.779 93.2329 61.8027 93.2006 61.824C92.8269 62.0689 92.4788 62.1441 92.2142 62.1762C91.9446 62.2061 91.7261 62.1938 91.5447 62.1716C91.1728 62.1259 90.9 62.0425 90.6442 61.9542C90.1406 61.7761 89.7275 61.571 89.3286 61.3589C88.5368 60.935 87.8345 60.4605 87.145 59.9787C86.4615 59.4899 85.8035 58.9836 85.1641 58.4576C84.529 57.9225 83.9063 57.3945 83.3001 56.8127C82.9432 56.4701 82.9326 55.905 83.2769 55.5498C83.5653 55.252 84.011 55.1967 84.3579 55.3878L84.3723 55.3962C85.0662 55.7786 85.7665 56.1846 86.4682 56.5617C87.1674 56.9467 87.8647 57.3272 88.5624 57.6832C89.2551 58.0436 89.9583 58.3786 90.6286 58.6536C90.9609 58.789 91.294 58.9054 91.5653 58.966C91.697 58.9953 91.8193 59.0105 91.8514 59.0037C91.8714 59.0037 91.857 58.9917 91.7885 58.9967C91.7238 59.0034 91.5765 59.0219 91.3713 59.1523L91.2322 59.2579C91.4824 59.023 91.7482 58.6948 91.9937 58.3251C92.2389 57.9541 92.4794 57.5507 92.7019 57.1266C93.1456 56.2735 93.5422 55.3538 93.9088 54.4133C94.2707 53.4702 94.6097 52.5052 94.9234 51.5287C95.2427 50.5619 95.5332 49.5468 95.7983 48.5999L95.8083 48.5642C96.075 47.6117 97.0669 47.055 98.0242 47.32C98.9588 47.5792 99.5136 48.5297 99.2914 49.4605Z" fill="#17282F"/>
<path d="M92.936 96.82H95.8775C95.9845 96.82 96.0651 96.8937 96.0715 96.9976L96.2141 99.3133C96.2291 99.5538 96.0024 99.7811 95.7561 99.7767C94.7318 99.7594 94.2426 99.6994 92.949 99.6994C92.1531 99.6994 90.5482 99.7817 89.4492 99.7817C88.3743 99.7817 88.3814 98.7005 88.8474 98.6024C90.9356 98.1634 91.7456 97.5575 92.485 96.9801C92.6182 96.8759 92.7793 96.82 92.936 96.82" fill="#17282F"/>
<path d="M100.18 65.6395C100.18 65.6395 85.9587 66.8345 86.3086 72.9788C86.692 79.7076 92.9359 96.8201 92.9359 96.8201H95.8118C95.8118 96.8201 93.3502 81.149 92.4847 74.2978C96.493 74.2978 105.79 75.0484 107.123 71.4509C108.214 68.5081 107.624 65.6395 107.624 65.6395H100.18" fill="#FFCB11"/>
<path d="M84.5776 55.6852C84.5776 55.6852 84.1686 55.025 83.7779 54.7088C83.1961 55.2511 82.8691 56.8337 82.8691 56.8337L83.6735 56.906C83.6735 56.906 84.5958 56.6073 84.5776 55.6852" fill="#FFCB11"/>
<path d="M81.6258 54.2633L80.7114 53.8681C80.4656 53.7622 80.1793 53.8531 80.0408 54.081L79.6078 54.7951C79.4828 55.001 79.5122 55.2643 79.6795 55.4381L80.9349 56.7413L83.0287 56.657C83.2695 56.6474 83.4862 56.5093 83.5959 56.2961L83.8378 55.826C83.9892 55.5317 83.9063 55.1631 83.6294 54.9808C82.9502 54.5339 81.6258 54.2633 81.6258 54.2633Z" fill="#F9A8B3"/>
<path d="M95.8217 48.8593C95.4018 51.4845 94.8597 57.1769 95.9675 65.7492L107.624 65.6395C107.555 59.6997 108.49 54.122 109.404 48.6739C109.555 47.7685 108.932 46.9289 108.019 46.7982C105.219 46.3968 100.698 46.412 97.9552 46.79C96.8639 46.9406 95.9948 47.7767 95.8217 48.8593Z" fill="#17282F"/>
<path d="M109.51 47.9332C109.852 48.7777 110.128 49.5895 110.41 50.4258C110.689 51.2575 110.934 52.1015 111.165 52.9539C111.388 53.809 111.601 54.6716 111.763 55.558C111.927 56.4444 112.071 57.3451 112.121 58.3005C112.136 58.5374 112.141 58.7829 112.144 59.0283L112.139 59.4036C112.132 59.6678 112.094 60.0694 111.847 60.4988C111.73 60.7068 111.548 60.9201 111.358 61.0669C111.258 61.1486 111.163 61.2091 111.066 61.2615C110.964 61.3197 110.874 61.358 110.785 61.3908C110.426 61.5212 110.148 61.5388 109.922 61.54C109.479 61.5318 109.176 61.4554 108.892 61.3799C108.341 61.2205 107.898 61.0257 107.468 60.8209C107.042 60.6123 106.642 60.3915 106.251 60.1651C104.696 59.2477 103.297 58.2259 101.939 57.0941C101.559 56.7776 101.51 56.2144 101.828 55.8365C102.096 55.5182 102.54 55.4328 102.9 55.6036L102.921 55.6139C104.441 56.3347 105.986 57.0727 107.492 57.6938C107.868 57.8479 108.244 57.9924 108.608 58.113C108.968 58.2364 109.331 58.3435 109.613 58.3862C109.746 58.4075 109.868 58.4052 109.854 58.3923C109.843 58.3888 109.78 58.3774 109.621 58.4315C109.583 58.4459 109.542 58.464 109.485 58.4927C109.436 58.5199 109.386 58.5529 109.326 58.5974C109.22 58.6796 109.109 58.8089 109.042 58.923C108.901 59.1655 108.894 59.3498 108.89 59.4019L108.873 59.1374C108.857 58.9569 108.841 58.7761 108.814 58.5889C108.613 57.0885 108.188 55.4913 107.717 53.9207C107.244 52.3513 106.704 50.747 106.153 49.2232L106.148 49.208C105.812 48.2778 106.297 47.2522 107.232 46.9172C108.145 46.591 109.15 47.0465 109.51 47.9332" fill="#17282F"/>
<path d="M104.85 40.9162L103.439 42.0799L101.52 43.6666C101.576 43.9249 101.62 44.1862 101.642 44.438C101.733 45.3604 101.53 46.209 100.404 46.6387C99.9779 46.8008 99.6075 47.1103 99.4734 47.5438C99.3217 48.0341 99.501 48.5788 101.048 48.5782C103.32 48.5776 104.506 47.5728 104.953 47.0778C105.079 46.9386 105.08 46.7332 104.972 46.5802C104.072 45.3101 104.483 42.5018 104.85 40.9162Z" fill="#F9A8B3"/>
<path d="M100.992 48.0809C100.992 48.0809 101.143 48.2436 101.189 48.4787C101.307 48.2798 101.615 48.0809 101.615 48.0809C101.615 48.0809 102.289 48.3793 102.43 49.0305C101.998 49.0033 101.207 48.5782 101.207 48.5782C101.207 48.5782 100.798 48.8134 100.389 48.8312C100.407 48.3252 100.992 48.0809 100.992 48.0809" fill="#FFCB11"/>
<path d="M101.615 48.0809C102.269 48.8137 102.393 49.7867 102.393 49.7867C102.393 49.7867 106.157 48.8508 105.98 46.41C105.663 46.2107 104.937 46.0911 104.937 46.0911C104.937 46.0911 104.127 47.5535 101.615 48.0809" fill="#FFCB11"/>
<path d="M100.992 48.0809C100.339 48.8137 100.164 49.7867 100.164 49.7867C100.164 49.7867 98.2336 48.0382 100.114 46.4299C100.445 46.2944 101.109 46.2222 101.109 46.2222C101.109 46.2222 99.8597 47.2308 100.992 48.0809" fill="#FFCB11"/>
<path d="M101.52 43.6666C101.52 43.6663 101.52 43.6663 101.52 43.6663L103.439 42.0796L103.44 42.0799H103.439L101.52 43.6666Z" fill="#C3C5C2"/>
<path d="M101.642 44.438C101.619 44.1861 101.576 43.9246 101.52 43.6666L103.439 42.0799C103.458 42.2698 103.452 42.5339 103.414 42.8077C103.314 43.5358 102.357 44.2947 101.642 44.438" fill="#D8898C"/>
<path d="M99.4589 35.8768C97.6884 37.1259 98.6792 40.0565 100.189 38.9352C101.7 37.8139 100.902 34.8588 99.4589 35.8768Z" fill="#17282F"/>
<path d="M105.431 38.4862C104.941 40.7293 104.769 42.0627 103.438 43.0862C101.435 44.6258 98.7804 43.2579 98.586 40.9385C98.4108 38.8504 99.2419 35.5331 101.613 34.8977C103.95 34.2723 105.922 36.2433 105.431 38.4862Z" fill="#F9A8B3"/>
<path d="M104.387 36.8237C103.138 36.48 99.9154 37.2962 98.7715 36.0825C97.5446 34.7804 99.3351 34.1474 99.8619 34.5996C99.1939 33.8399 99.4435 33.0264 100.389 33.0986C101.078 33.1513 101.298 33.9122 101.298 33.9122C101.298 33.9122 101.183 32.582 102.369 32.6736C103.446 32.7567 103.45 34.2015 103.45 34.2015C103.45 34.2015 106.021 33.4783 106.877 35.9195C108.495 35.8832 108.458 39.2711 105.205 40.4769C103.885 39.8257 103.824 37.515 104.387 36.8237Z" fill="#17282F"/>
<path d="M106.532 36.408C106.377 36.408 106.239 36.2975 106.21 36.1401C106.178 35.9637 106.296 35.7949 106.473 35.7621C106.502 35.7534 106.59 35.682 106.662 35.5249C106.739 35.3593 106.788 35.1127 106.698 34.9155C106.623 34.7517 106.696 34.5589 106.86 34.4841C107.024 34.4086 107.218 34.4817 107.293 34.6452C107.489 35.0735 107.386 35.5568 107.222 35.8666C107.066 36.1632 106.836 36.3589 106.59 36.4028L106.532 36.408Z" fill="#17282F"/>
<path d="M105.798 40.5658C105.467 40.9979 104.984 41.2547 104.56 41.329C103.923 41.4405 103.729 40.8572 104.011 40.2908C104.264 39.7809 104.902 39.1084 105.491 39.2538C106.072 39.3971 106.176 40.072 105.798 40.5658" fill="#F9A8B3"/>
<path d="M99.9418 41.2778C101.742 41.2778 102.749 41.1124 102.795 41.1048L102.783 41.0769L102.357 41.8207C102.345 41.8227 101.2 42.0112 99.2052 41.9759C99.1312 41.9746 99.3014 41.2403 99.2928 41.2511C99.2842 41.262 99.3366 41.2718 99.41 41.273C99.5947 41.2764 99.7715 41.2778 99.9418 41.2778Z" fill="#17282F"/>
<path d="M102.55 54.0883L101.263 53.2924C100.877 53.0537 100.369 53.1751 100.134 53.5624L99.9827 53.8119C99.7995 54.1141 99.8331 54.4988 100.066 54.7647L100.954 55.7789C100.954 55.7789 101.726 57.5715 102.622 57.0982L103.305 55.9202L102.55 54.0883" fill="#F9A8B3"/>
<path d="M103.875 56.38C103.875 56.38 103.551 55.5881 103.202 55.1874C102.556 55.7382 102.033 57.494 102.033 57.494L102.823 57.6637C102.823 57.6637 103.777 57.4264 103.875 56.38" fill="#FFCB11"/>
<path d="M113.728 69.467H98.4645C97.4635 69.467 96.8158 70.4522 97.0172 71.6677L98.9226 83.1577C99.124 84.3729 100.099 85.3581 101.099 85.3581H111.838L113.728 69.467Z" fill="#FFCB11"/>
<path d="M111.838 85.3581H104.584L103.875 69.467H113.728L111.838 85.3581V85.3581ZM103.251 85.3581H101.099C100.527 85.3581 99.9637 85.0363 99.5483 84.5332L98.8759 69.467H102.187L103.251 85.3581V85.3581ZM97.55 74.8802L97.4641 74.3616L97.0172 71.6677C96.9925 71.5179 96.9805 71.3719 96.9805 71.2309C96.9805 70.839 97.0725 70.485 97.2365 70.1986L97.55 74.8802Z" fill="#646464"/>
<path d="M43.3012 100.004H43.742C43.8916 100.004 44.0163 99.8785 44.0271 99.7155L46.4529 63.4748H44.631L43.0155 99.6778C43.0075 99.8556 43.1378 100.004 43.3012 100.004Z" fill="#FFCB11"/>
<path d="M43.7419 100.004H43.3012C43.1421 100.004 43.0146 99.8636 43.0151 99.6924C43.0151 99.6878 43.0151 99.6829 43.0154 99.6778L43.5864 86.8828H44.8862L44.6248 90.7884L44.6198 90.8616L44.4584 93.272L44.4537 93.3451L44.0271 99.7155C44.0162 99.8785 43.8916 100.004 43.7419 100.004" fill="#C6A019"/>
<path d="M38.3022 100.004H38.7429C38.8929 100.004 39.0172 99.8785 39.0284 99.7155L41.4539 63.4748H39.632L38.0165 99.6778C38.0085 99.8556 38.1388 100.004 38.3022 100.004Z" fill="#FFCB11"/>
<path d="M38.7429 100.004H38.3022C38.1431 100.004 38.0158 99.8636 38.0161 99.6924C38.0161 99.6878 38.0161 99.6829 38.0164 99.6778L38.5874 86.8828H39.8871L39.6258 90.7884L39.6208 90.8616L39.4594 93.272L39.4547 93.3451L39.0284 99.7155C39.0172 99.8785 38.8928 100.004 38.7429 100.004" fill="#C6A019"/>
<path d="M99.9383 100.004H99.4979C99.348 100.004 99.2236 99.8785 99.2127 99.7155L96.7866 63.4748H98.6088L100.224 99.6778C100.232 99.8556 100.102 100.004 99.9383 100.004" fill="#FFCB11"/>
<path d="M99.9383 100.004H99.4979C99.348 100.004 99.2236 99.8785 99.2127 99.7155L98.2516 85.3584L97.5501 74.8802L96.9383 65.7401L96.7866 63.4748H98.6088L100.224 99.6778C100.224 99.6829 100.225 99.6878 100.225 99.6924C100.225 99.8636 100.097 100.004 99.9383 100.004" fill="#C6A019"/>
<path d="M104.937 100.004H104.497C104.347 100.004 104.223 99.8785 104.211 99.7155L101.786 63.4748H103.608L105.223 99.6778C105.231 99.8556 105.101 100.004 104.937 100.004Z" fill="#FFCB11"/>
<path d="M104.937 100.004H104.497C104.347 100.004 104.223 99.8785 104.211 99.7155L103.251 85.3584V85.3581L101.934 65.693L101.786 63.4748H103.608L105.223 99.6778C105.223 99.6829 105.223 99.6878 105.223 99.6924C105.224 99.8636 105.096 100.004 104.937 100.004Z" fill="#C6A019"/>
<path d="M36.0972 63.4748H107.04V62.7297H36.0972V63.4748Z" fill="#FFCB11"/>
<path d="M34.9149 51.1858L34.2448 56.091C34.0335 57.7245 33.8127 59.3621 33.6545 60.9701C33.6321 61.1725 33.6174 61.37 33.601 61.5686L33.5766 61.8667C33.5786 61.8445 33.5769 61.7658 33.5663 61.7204C33.5616 61.6728 33.5466 61.6216 33.5322 61.5809C33.5222 61.5455 33.5019 61.5049 33.4881 61.4785L33.4472 61.4127C33.3952 61.346 33.3893 61.3554 33.4034 61.3694C33.4149 61.3858 33.4563 61.418 33.5034 61.4528C33.6022 61.5239 33.7412 61.6037 33.8929 61.6792C34.5165 61.9829 35.288 62.2417 36.0515 62.4766C37.5944 62.9421 39.2126 63.3452 40.8113 63.7372L40.6308 65.1349C38.9197 65.0746 37.2401 64.9161 35.5323 64.6098C34.6753 64.4474 33.8271 64.2701 32.9121 63.9215C32.6814 63.8311 32.4441 63.7281 32.186 63.5824C32.056 63.5075 31.9234 63.4236 31.7758 63.3057C31.6303 63.1863 31.4721 63.0494 31.3063 62.8075C31.2246 62.6855 31.1452 62.539 31.0843 62.3602C31.0544 62.2704 31.0314 62.1671 31.0147 62.0694C31.0008 61.9723 30.9958 61.8413 30.9973 61.7675L31.0047 61.4425C31.0097 61.2264 31.0132 61.0084 31.0238 60.7963C31.0935 59.0874 31.2478 57.4197 31.431 55.7516C31.6103 54.0839 31.824 52.4317 32.0869 50.7707L34.9149 51.1858" fill="#872F37"/>
<path d="M44.5138 65.2124L43.4357 66.193C43.1843 66.4214 42.818 66.4753 42.5111 66.3281L41.3192 65.7571C41.3192 65.7571 39.5523 65.6843 39.3003 64.6104L39.7572 63.7758L42.4946 63.4733C42.7757 63.442 43.0594 63.5049 43.301 63.6515L44.4291 64.3372C44.7434 64.5279 44.7857 64.9652 44.5138 65.2124" fill="#872F37"/>
<path d="M38.0582 41.1067C38.3375 42.789 38.575 45.8641 37.3652 46.9453C37.3652 46.9453 40.3179 48.4834 42.2539 51.168C44.3245 49.5357 42.5905 47.1001 42.5905 47.1001C40.7292 46.599 40.8188 45.2167 41.1843 43.9264L38.0582 41.1067" fill="#872F37"/>
<path d="M43.5833 48.1347C43.5833 48.1347 43.4274 46.7081 42.6448 46.0028C41.9874 45.4104 38.5376 45.7395 37.4507 45.86C37.2461 45.8828 37.0694 46.0089 36.9806 46.1932L36.1924 47.8317L43.5833 48.1347" fill="#FFCB11"/>
<path d="M43.3661 47.2042C43.1065 47.1662 42.8466 47.1311 42.5905 47.1001C41.4533 46.9629 40.3655 46.9242 39.1881 46.9242C38.6077 46.9242 38.0056 46.9336 37.3653 46.9453C37.111 46.95 36.8572 46.9588 36.6064 46.971L36.9807 46.1932C37.0695 46.0089 37.2462 45.8828 37.4508 45.86C38.0591 45.7924 39.4074 45.6596 40.5925 45.6596C41.5245 45.6596 42.3556 45.7418 42.6449 46.0028C42.9992 46.3219 43.225 46.7888 43.3661 47.2042" fill="#CFE0F5"/>
<path d="M34.0245 47.3835C31.8957 48.0727 31.4385 50.9126 31.6299 53.1233L35.9267 55.7528C35.9267 55.7528 36.9701 52.5253 36.9613 50.8017C36.9519 48.9676 35.4701 46.9155 34.0245 47.3835" fill="#FFCB11"/>
<path d="M34.8569 55.1087C34.754 55.1087 34.6508 55.0677 34.5746 54.9946L34.5273 54.9332L34.4894 54.863L34.4656 54.7898L34.457 54.7138C34.457 54.6085 34.5011 54.5064 34.5746 54.4332C34.7243 54.2837 34.9921 54.2837 35.1391 54.4332C35.2126 54.5064 35.2567 54.6085 35.2567 54.7138L35.2479 54.7898L35.2244 54.863L35.1888 54.9332L35.1391 54.9946C35.0656 55.0677 34.9627 55.1087 34.8569 55.1087" fill="white"/>
<path d="M34.0304 54.8395H34.0333C33.8804 54.781 33.7834 54.6377 33.7775 54.4827C33.6629 54.585 33.4953 54.6172 33.3453 54.547C33.1983 54.4797 33.1101 54.3305 33.1131 54.1784C32.9925 54.275 32.822 54.2954 32.6777 54.2165C32.5339 54.1407 32.4572 53.9883 32.4689 53.8362C32.3428 53.9239 32.1723 53.9356 32.0312 53.8508C31.843 53.7396 31.7839 53.4942 31.8959 53.3067C32.0106 53.1195 32.2575 53.058 32.4454 53.1721C32.578 53.254 32.6456 53.4003 32.6368 53.5436C32.7544 53.4588 32.9161 53.4445 33.0543 53.5176C33.1895 53.5907 33.2689 53.7308 33.2657 53.8771C33.3777 53.7867 33.5394 53.763 33.6805 53.8274C33.8216 53.8917 33.9069 54.0295 33.9128 54.1726C34.0215 54.0793 34.1774 54.0439 34.3244 54.0994C34.5269 54.1813 34.6301 54.4124 34.5478 54.6146C34.4861 54.7723 34.3361 54.8659 34.1774 54.8659C34.1274 54.8659 34.0803 54.8571 34.0304 54.8395" fill="white"/>
<path d="M31.6316 53.5202C31.6051 53.5202 31.5787 53.5176 31.5519 53.5115L31.4784 53.4881L31.4081 53.4529L31.3493 53.4032L31.2994 53.3447L31.2611 53.2748L31.2376 53.2017C31.2347 53.175 31.2314 53.1487 31.2314 53.1224L31.2376 53.0463L31.2611 52.9706L31.2994 52.903L31.3493 52.8416L31.4081 52.7918L31.4784 52.7567L31.5519 52.7333C31.6816 52.7099 31.8194 52.7512 31.9109 52.8416L31.9609 52.903L31.9991 52.9706L32.0197 53.0463L32.0282 53.1224C32.0282 53.1487 32.0255 53.175 32.0197 53.2017L31.9991 53.2748L31.9609 53.3447L31.9109 53.4032C31.8374 53.4764 31.7342 53.5202 31.6316 53.5202Z" fill="white"/>
<path d="M47.5598 51.5108C47.3799 53.9438 46.836 58.0413 45.4956 64.9389L33.9888 64.5984C34.2904 60.3719 33.8347 57.2205 32.7937 49.8235C32.6037 48.4732 33.5795 47.239 34.9425 47.0992C35.6813 47.0231 36.5204 46.9608 37.3654 46.9453C39.3046 46.9099 40.8931 46.8953 42.5906 47.1001C43.1513 47.1679 43.7305 47.2557 44.2835 47.3499C46.2906 47.6907 47.7092 49.4903 47.5598 51.5108" fill="#FFCB11"/>
<path d="M44.0118 38.0091C44.0392 38.2349 44.1816 38.404 44.3303 38.3861C44.4789 38.3686 44.5772 38.1711 44.5499 37.945C44.5228 37.7192 44.3803 37.5507 44.2317 37.5682C44.083 37.5861 43.9847 37.7835 44.0118 38.0091Z" fill="#17282F"/>
<path d="M44.1675 37.5885L44.694 37.3676C44.694 37.3676 44.4653 37.824 44.1675 37.5885Z" fill="#17282F"/>
<path d="M44.0903 38.3595C44.0903 38.3595 44.5925 39.286 45.0732 39.7046C44.8071 40.0185 44.282 39.9523 44.282 39.9523L44.0903 38.3595Z" fill="#6B1317"/>
<path d="M44.0392 36.0286C44.0648 35.9909 44.07 35.9409 44.0492 35.8967C44.0174 35.83 43.9375 35.8016 43.8704 35.8332C43.1995 36.1503 43.109 36.7605 43.1057 36.7863C43.0957 36.8594 43.1472 36.9267 43.2207 36.9366C43.2936 36.9466 43.3615 36.8957 43.3715 36.8225C43.3747 36.8027 43.4497 36.3279 43.9854 36.0748L44.0392 36.0286" fill="#17282F"/>
<path d="M36.1811 37.9579C36.6864 40.7115 36.8411 41.8877 38.4207 43.1436C40.7969 45.0327 44.0852 43.8129 44.4172 40.9645C44.7156 38.4008 43.8392 34.3284 40.9771 33.55C38.1576 32.783 35.6757 35.2043 36.1811 37.9579Z" fill="#872F37"/>
<path d="M42.2757 38.7287C42.7423 40.2417 43.8539 43.9001 41.3984 44.7145C39.4771 45.3516 33.4628 45.8612 32.7701 42.3543C32.0539 38.7287 35.3032 36.1483 35.3032 36.1483C35.3032 36.1483 32.7289 34.0473 34.3783 31.7591C36.5042 28.8093 41.5936 30.4773 43.1045 32.5613C44.5733 34.5873 42.2757 38.7287 42.2757 38.7287Z" fill="#17282F"/>
<path d="M37.6205 45.2176C36.6356 45.2176 35.414 45.0175 34.4079 44.5866C33.042 44.0013 32.2447 43.0971 32.1024 41.9711C31.6199 38.1474 35.1958 36.0462 35.232 36.0257L35.3743 36.2708C35.3399 36.2907 31.926 38.301 32.3849 41.9357C32.5478 43.2252 33.6362 43.9477 34.5205 44.3266C36.2663 45.0743 38.5216 45.0705 39.069 44.6709L39.2372 44.8996C38.9523 45.1073 38.3516 45.2176 37.6205 45.2176" fill="#17282F"/>
<path d="M34.1961 35.5995C34.1641 36.0886 33.756 36.7603 35.4603 37.013C37.1647 37.2657 39.5325 37.2418 40.0185 36.8337C40.5045 36.4259 40.9831 35.4506 39.9671 35.5378C38.9507 35.6252 34.2514 34.7631 34.1961 35.5995Z" fill="#FFCB11"/>
<path d="M41.3459 39.1605C41.6373 39.7113 42.1574 40.077 42.6507 40.2209C43.3931 40.4371 43.7738 39.7789 43.5753 39.0768C43.3969 38.4449 42.7956 37.5712 42.0468 37.6624C41.3089 37.7531 41.0128 38.5304 41.3459 39.1605" fill="#872F37"/>
<path d="M59.2824 96.9783L62.0107 96.9269L60.6897 90.1504L57.9614 90.2021L59.2824 96.9783" fill="#872F37"/>
<path d="M61.3282 94.0279C62.05 96.7323 64.7022 99.5953 64.7022 99.5953L60.9164 98.6384L59.2617 96.2991L59.5513 95.6798L61.3282 94.0279Z" fill="#872F37"/>
<path d="M58.6397 95.2848C58.6282 95.5854 58.6511 95.9276 58.6946 96.2312C58.8543 97.3502 59.3505 100.315 59.3505 100.315L59.6075 100.317C59.6075 100.317 59.3641 98.3207 59.3993 97.5851C59.4346 96.8493 59.9118 98.1503 60.488 98.8863C61.0643 99.622 62.1015 100.292 63.7802 100.344C65.7456 100.405 66.5289 100.323 65.8988 99.8352C65.2691 99.3467 63.9302 99.0281 63.9302 99.0281C63.9302 99.0281 62.384 98.4755 61.2786 96.8221C60.5621 95.75 59.3611 94.9745 58.8399 94.7224C58.682 94.7502 58.6488 95.0461 58.6397 95.2848Z" fill="#17282F"/>
<path d="M68.9453 87.773L72.428 87.88L68.5328 82.1178L66.1211 84.1687L68.9453 87.773" fill="#872F37"/>
<path d="M69.772 85.3262C72.3021 86.4989 76.3549 86.2683 76.3549 86.2683L73.0607 88.898L70.2359 88.6897L69.9375 88.0652L69.772 85.3262" fill="#872F37"/>
<path d="M69.2362 88.3145C69.4508 88.5289 69.7178 88.7451 69.9686 88.9189C70.8926 89.5592 73.3872 91.2 73.3872 91.2L73.5471 91C73.5471 91 71.924 89.8244 71.4027 89.2936C70.8814 88.7626 72.1359 89.2793 73.035 89.3316C73.934 89.3839 75.0689 89.0306 76.144 87.7525C77.4026 86.2565 77.8257 85.5874 77.0766 85.7463C76.3275 85.9049 75.2653 86.7348 75.2653 86.7348C75.2653 86.7348 73.9029 87.5667 72.0001 87.3008C70.7665 87.1282 69.4526 87.5374 68.9449 87.773C68.8678 87.9157 69.0657 88.1439 69.2362 88.3145Z" fill="#17282F"/>
<path d="M41.4826 64.7391C41.4826 64.7391 60.1116 61.9972 62.0402 66.7485C65.3959 75.0157 70.1346 84.4882 70.1346 84.4882L67.8464 86.3714C67.8464 86.3714 59.7241 78.89 56.8346 70.5842C53.3831 71.6955 42.4025 75.2708 38.3806 75.2708C34.0849 75.2708 32.3306 71.6267 33.8821 65.5754C34.0203 65.0363 34.5145 64.6625 35.0739 64.6651C37.7785 64.6785 41.4826 64.7391 41.4826 64.7391Z" fill="#17282F"/>
<path d="M43.2689 67.1531C43.2689 67.1531 58.5586 66.695 58.6877 72.0846C58.9008 80.9977 61.4254 93.7696 61.4254 93.7696L58.6365 94.0279C58.6365 94.0279 54.0769 83.8686 52.8706 75.1617C47.4243 75.5133 42.403 75.2708 38.3811 75.2708C33.8738 75.2708 33.5013 70.3455 37.8887 64.5987C40.5702 64.5987 43.2689 67.1531 43.2689 67.1531Z" fill="#17282F"/>
<path d="M33.8364 63.9212L33.5115 64.9374C33.4689 65.0155 33.5612 65.0995 33.6941 65.1036L45.5373 65.4537C45.641 65.457 45.7284 65.409 45.7369 65.3443L45.8712 64.3225C45.8806 64.2517 45.7924 64.1888 45.679 64.1856L34.0263 63.841C33.9407 63.8384 33.864 63.8709 33.8364 63.9212Z" fill="white"/>
<path d="M35.3633 65.2639L35.051 65.2548C34.9886 65.2531 34.9424 65.2197 34.9477 65.1808L35.134 63.8536C35.1396 63.8147 35.1949 63.7843 35.257 63.7863L35.5696 63.7954C35.6317 63.7974 35.6782 63.8305 35.6729 63.8694L35.4863 65.1966C35.481 65.2355 35.4257 65.2659 35.3633 65.2639Z" fill="#17282F"/>
<path d="M44.6573 65.5389L44.345 65.5298C44.2826 65.5278 44.2361 65.4947 44.2417 65.4558L44.428 64.1286C44.4336 64.0897 44.4889 64.0595 44.551 64.0616L44.8636 64.0707C44.9257 64.0724 44.9722 64.1058 44.9666 64.1447L44.7803 65.4719C44.775 65.5108 44.7194 65.5409 44.6573 65.5389Z" fill="#17282F"/>
<path d="M40.0103 65.4017L39.6977 65.392C39.6356 65.3903 39.5891 65.3569 39.5947 65.3183L39.781 63.9911C39.7863 63.9525 39.8419 63.9221 39.9041 63.9238L40.2166 63.9332C40.2788 63.9349 40.3253 63.968 40.3197 64.0069L40.1333 65.3341C40.1278 65.373 40.0724 65.4034 40.0103 65.4017Z" fill="#17282F"/>
<path d="M72.4254 47.5896H79.8636C80.1009 47.5896 80.272 47.8166 80.2055 48.0436L77.426 57.5354C77.3819 57.6866 77.2423 57.791 77.0841 57.791H69.6462C69.4087 57.791 69.2376 57.5637 69.304 57.337L72.0835 47.845C72.1279 47.6937 72.2672 47.5896 72.4254 47.5896Z" fill="#FFCB11"/>
<path d="M52.4228 36.5595L59.6517 36.7304L56.7972 45.683L49.5684 45.5124L52.4228 36.5595" fill="#DADBD8"/>
<path d="M64.0106 41.1048L71.2415 41.1347L68.5635 50.1411L61.3325 50.1116L64.0106 41.1048Z" fill="white"/>
<path d="M47.5816 52.975C47.5963 53.2605 47.6234 53.6153 47.6495 53.9391C47.6786 54.2706 47.7154 54.6026 47.7592 54.9323C47.8415 55.5931 47.952 56.2472 48.0882 56.8861C48.2296 57.5229 48.396 58.1475 48.6133 58.7308C48.7214 59.023 48.8405 59.3056 48.9716 59.5721C49.0351 59.7081 49.1075 59.8339 49.1783 59.9606L49.2859 60.1402L49.2742 60.1382C49.2945 60.1841 49.502 60.3163 49.7425 60.4108C49.9889 60.5103 50.2832 60.5936 50.5895 60.6627C51.206 60.804 51.8769 60.8958 52.5555 60.9651C53.9135 61.0965 55.332 61.162 56.7221 61.1907L56.8623 62.5925C55.4108 62.871 53.9729 63.0468 52.4794 63.0854C51.7329 63.1018 50.9779 63.0886 50.1873 62.9918C49.7913 62.9397 49.3871 62.8692 48.9563 62.7443C48.5262 62.6092 48.062 62.4544 47.5501 62.0221C47.4249 61.9165 47.297 61.7787 47.1809 61.6251L46.9918 61.3621C46.8734 61.188 46.7561 61.0128 46.6534 60.8347C46.4397 60.4801 46.2583 60.1174 46.099 59.752C45.775 59.0216 45.5318 58.282 45.3399 57.5393C45.1452 56.7977 45.005 56.0524 44.9024 55.3058C44.8533 54.9323 44.813 54.5578 44.781 54.1825C44.7477 53.7993 44.7277 53.4456 44.7236 53.0215L47.5816 52.975" fill="#872F37"/>
<path d="M46.6146 48.661C48.466 50.3954 48.02 54.9156 48.02 54.9156L44.4726 55.5323C44.4726 55.5323 42.2823 52.2916 43.0522 50.9331C43.854 49.5181 45.613 47.7229 46.6146 48.661Z" fill="#FFCB11"/>
<path d="M48.0193 55.3134C47.9161 55.3134 47.8105 55.2696 47.737 55.1964L47.687 55.135L47.6518 55.0677C47.6429 55.0443 47.6341 55.0183 47.6282 54.9917L47.6221 54.9156C47.6221 54.8106 47.6635 54.7079 47.737 54.6348L47.7988 54.585L47.8664 54.5499L47.9425 54.5265C48.0692 54.5002 48.2074 54.5441 48.3015 54.6348C48.375 54.7079 48.4188 54.8106 48.4188 54.9156L48.4103 54.9917C48.4044 55.0183 48.3985 55.0443 48.3868 55.0677L48.3515 55.135L48.3015 55.1964C48.228 55.2696 48.1248 55.3134 48.0193 55.3134Z" fill="white"/>
<path d="M44.7967 55.5241C44.7791 55.3047 44.9405 55.1116 45.161 55.0941C45.3142 55.0794 45.4582 55.1555 45.5347 55.2813C45.5817 55.1438 45.7023 55.0355 45.8551 55.0121C46.008 54.9917 46.155 55.0589 46.2403 55.1789C46.2785 55.0385 46.3932 54.9244 46.5431 54.8954C46.696 54.863 46.8459 54.9244 46.9368 55.0385C46.9665 54.8954 47.0752 54.7752 47.2252 54.7342V54.7375C47.4395 54.6787 47.6574 54.8074 47.7132 55.0183C47.7688 55.2286 47.6427 55.448 47.4277 55.5036C47.2722 55.5446 47.1105 55.486 47.0135 55.3661C46.9812 55.5153 46.8633 55.6385 46.7019 55.6733C46.5431 55.7025 46.3843 55.6352 46.2961 55.5094C46.255 55.6586 46.1315 55.7757 45.9695 55.7991C45.8081 55.8228 45.6523 55.7435 45.5729 55.6151C45.5229 55.7581 45.3933 55.8693 45.2289 55.8839H45.1963C44.9908 55.8839 44.817 55.7288 44.7967 55.5241" fill="white"/>
<path d="M44.4736 55.931L44.3942 55.9219L44.3207 55.8985L44.2501 55.8634L44.1913 55.8137L44.1414 55.7522L44.1031 55.6849L44.0823 55.6089L44.0737 55.5328C44.0737 55.5065 44.0767 55.4805 44.0823 55.4539L44.1031 55.3807L44.1414 55.3108L44.1913 55.252L44.2501 55.2023L44.3207 55.1672L44.3942 55.1438C44.5233 55.1174 44.6617 55.1584 44.7529 55.252L44.8029 55.3108L44.8411 55.3807L44.8646 55.4539C44.8672 55.4805 44.8705 55.5065 44.8705 55.5328L44.8646 55.6089L44.8411 55.6849L44.8029 55.7522L44.7529 55.8137C44.6794 55.8868 44.5765 55.931 44.4736 55.931Z" fill="white"/>
<path d="M60.035 59.7274L58.8076 59.6449C58.5012 59.6245 58.1969 59.7058 57.942 59.876L55.6865 61.3835L55.6694 62.3336C56.3921 63.1699 57.9923 62.4211 57.9923 62.4211L59.477 62.3737C59.7193 62.3661 59.9327 62.2122 60.0159 61.9855L60.5531 60.5193C60.6886 60.1496 60.4296 59.7538 60.035 59.7274" fill="#872F37"/>
<path d="M34.5708 101.322H34.9039C35.0339 101.322 35.1453 101.208 35.1677 101.053L37.2139 86.8828H35.6601L34.3051 100.959C34.2865 101.152 34.4106 101.322 34.5708 101.322" fill="#FFCB11"/>
<path d="M34.9042 101.322H34.5711C34.4217 101.322 34.3032 101.174 34.3032 100.997C34.3032 100.985 34.3038 100.972 34.3053 100.959L35.6603 86.8828H37.2141L36.6499 90.7884L36.6393 90.8616L36.2912 93.272L36.281 93.3451L35.1679 101.053C35.1455 101.208 35.0341 101.322 34.9042 101.322" fill="#FFCB11"/>
<path d="M30.3076 101.322H30.6408C30.7707 101.322 30.8818 101.208 30.9045 101.053L32.9507 86.8828H31.3969L30.0419 100.959C30.0234 101.152 30.1474 101.322 30.3076 101.322" fill="#FFCB11"/>
<path d="M30.6407 101.322H30.3076C30.1582 101.322 30.0397 101.174 30.04 100.997C30.04 100.985 30.0406 100.972 30.0418 100.959L31.3969 86.8828H32.9506L32.3867 90.7884L32.3762 90.8616L32.0281 93.272L32.0175 93.3451L30.9044 101.053C30.8818 101.208 30.7706 101.322 30.6407 101.322" fill="#FFCB11"/>
<path d="M54.062 101.322H53.7289C53.5992 101.322 53.4878 101.208 53.4655 101.053L51.4189 86.8828H52.9727L54.3281 100.959C54.3466 101.152 54.2222 101.322 54.062 101.322" fill="#FFCB11"/>
<path d="M54.062 101.322H53.7289C53.5992 101.322 53.4878 101.208 53.4655 101.053L51.4189 86.8828H52.9727L54.3281 100.959C54.3292 100.972 54.3298 100.985 54.3298 100.997C54.3298 101.174 54.2116 101.322 54.062 101.322" fill="#FFCB11"/>
<path d="M58.3252 101.322H57.9921C57.8621 101.322 57.751 101.208 57.7284 101.053L55.6821 86.8828H57.2359L58.5913 100.959C58.6098 101.152 58.4854 101.322 58.3252 101.322" fill="#FFCB11"/>
<path d="M58.3252 101.322H57.9921C57.8621 101.322 57.751 101.208 57.7284 101.053L55.6821 86.8828H57.2359L58.5913 100.959C58.5924 100.972 58.593 100.985 58.593 100.997C58.593 101.174 58.4748 101.322 58.3252 101.322" fill="#FFCB11"/>
<path d="M63.8505 70.0857H53.3841C51.5272 63.6696 44.8454 58.6074 38.0029 58.6074H38.0023H34.6034C27.4411 58.6074 22.8188 64.1526 24.2792 70.9928C24.5474 72.2487 25.0035 73.4603 25.6112 74.6021L27.2617 84.5566C27.4747 85.8415 28.5049 86.8828 29.5627 86.8828H61.0654C62.1229 86.8828 63.1531 85.8415 63.3663 84.5566L65.3799 72.4122C65.5927 71.1274 64.9083 70.0857 63.8505 70.0857Z" fill="#FFCB11"/>
<path d="M61.0654 86.8828H29.5627C28.5049 86.8828 27.4747 85.8415 27.2617 84.5566L25.6112 74.6021C25.0035 73.4603 24.5473 72.2487 24.2792 70.9928C24.0967 70.1378 24.0092 69.3029 24.0098 68.4967C24.0141 62.8529 28.3363 58.6074 34.6034 58.6074H38.0023H38.0029C44.8454 58.6074 51.5272 63.6696 53.3841 70.0857H63.8505C64.778 70.0857 65.4187 70.8869 65.4187 71.9503C65.4187 72.0995 65.406 72.2539 65.3799 72.4122L65.13 73.9193L63.7855 82.0274L63.3663 84.5566C63.1531 85.8415 62.1229 86.8828 61.0654 86.8828" fill="#646464"/>
<path d="M62.4846 23.7251H60.0835V23.4325H62.4846V23.7251Z" fill="#FFCB11"/>
<path d="M51.2505 26.8797H50.9565V25.4405C50.9565 24.3332 51.8621 23.4325 52.9752 23.4325H58.3348V23.7251H52.9752C52.0241 23.7251 51.2505 24.4947 51.2505 25.4405V26.8797Z" fill="#FFCB11"/>
<path d="M79.78 36.884H52.9754C52.4289 36.884 51.9858 36.4431 51.9858 35.8996V25.4405C51.9858 24.8969 52.4289 24.4564 52.9754 24.4564H79.78C80.3266 24.4564 80.7696 24.8969 80.7696 25.4405V35.8996C80.7696 36.4431 80.3266 36.884 79.78 36.884Z" fill="#FFCB11"/>
<path d="M78.5126 31.3315H54.2429C53.8757 31.3315 53.5781 31.0354 53.5781 30.67C53.5781 30.305 53.8757 30.0086 54.2429 30.0086H78.5126C78.8798 30.0086 79.1773 30.305 79.1773 30.67C79.1773 31.0354 78.8798 31.3315 78.5126 31.3315Z" fill="white"/>
<path d="M73.3188 34.078H54.2429C53.8757 34.078 53.5781 33.7823 53.5781 33.4169C53.5781 33.0518 53.8757 32.7555 54.2429 32.7555H73.3188C73.6857 32.7555 73.9835 33.0518 73.9835 33.4169C73.9835 33.7823 73.6857 34.078 73.3188 34.078Z" fill="white"/>
<path d="M62.4272 28.5846H54.2429C53.8757 28.5846 53.5781 28.2886 53.5781 27.9232C53.5781 27.5581 53.8757 27.2621 54.2429 27.2621H62.4272C62.7944 27.2621 63.092 27.5581 63.092 27.9232C63.092 28.2886 62.7944 28.5846 62.4272 28.5846Z" fill="white"/>
<path d="M73.2764 28.5846H65.092C64.7248 28.5846 64.4272 28.2886 64.4272 27.9232C64.4272 27.5581 64.7248 27.2621 65.092 27.2621H73.2764C73.6436 27.2621 73.9411 27.5581 73.9411 27.9232C73.9411 28.2886 73.6436 28.5846 73.2764 28.5846Z" fill="white"/>
<path d="M53.5781 36.0904V39.259C53.5781 39.869 54.2823 40.2127 54.7671 39.8397L59.6474 36.081L53.5781 36.0904" fill="#FFCB11"/>
<path d="M94.9069 8.76385H68.1021C67.5556 8.76385 67.1128 9.2047 67.1128 9.74852V20.2077C67.1128 20.7512 67.5556 21.192 68.1021 21.192H89.2774L93.1153 24.1472C93.5998 24.5208 94.304 24.177 94.304 23.5671V21.192H94.9069C95.4532 21.192 95.8963 20.7512 95.8963 20.2077V9.74852C95.8963 9.2047 95.4532 8.76385 94.9069 8.76385Z" fill="white"/>
<path d="M68.1019 8.91013C67.6374 8.91013 67.2593 9.28632 67.2593 9.74852V20.2077C67.2593 20.6699 67.6374 21.0458 68.1019 21.0458H89.3273L93.2048 24.0316C93.3871 24.1721 93.6194 24.196 93.8266 24.0945C94.0336 23.9936 94.1571 23.7964 94.1571 23.5671V21.0458H94.9068C95.3713 21.0458 95.7491 20.6699 95.7491 20.2077V9.74852C95.7491 9.28632 95.3713 8.91013 94.9068 8.91013H68.1019ZM93.5653 24.4482C93.3739 24.4482 93.184 24.3856 93.0252 24.263L89.2267 21.3383H68.1019C67.4754 21.3383 66.9653 20.8308 66.9653 20.2077V9.74852C66.9653 9.12514 67.4754 8.61759 68.1019 8.61759H94.9068C95.533 8.61759 96.0431 9.12514 96.0431 9.74852V20.2077C96.0431 20.8308 95.533 21.3383 94.9068 21.3383H94.4511V23.5671C94.4511 23.9056 94.2612 24.208 93.956 24.3572C93.8311 24.4181 93.6979 24.4482 93.5653 24.4482" fill="#FFCB11"/>
<path d="M80.9318 15.6392H93.6394C94.0066 15.6392 94.3041 15.3432 94.3041 14.9781C94.3041 14.6124 94.0066 14.3167 93.6394 14.3167H80.9318C80.5646 14.3167 80.2671 14.6124 80.2671 14.9781C80.2671 15.3432 80.5646 15.6392 80.9318 15.6392Z" fill="#FFCB11"/>
<path d="M72.0598 15.6392H78.3514C78.7186 15.6392 79.0161 15.3432 79.0161 14.9781C79.0161 14.6124 78.7186 14.3167 78.3514 14.3167H72.0598C71.6928 14.3167 71.395 14.6124 71.395 14.9781C71.395 15.3432 71.6928 15.6392 72.0598 15.6392Z" fill="#FFCB11"/>
<path d="M74.5637 18.3861H93.6392C94.0065 18.3861 94.304 18.0901 94.304 17.7247C94.304 17.3593 94.0065 17.0633 93.6392 17.0633H74.5637C74.1964 17.0633 73.8989 17.3593 73.8989 17.7247C73.8989 18.0901 74.1964 18.3861 74.5637 18.3861Z" fill="#FFCB11"/>
<path d="M69.3698 12.8926H93.6395C94.0067 12.8926 94.3042 12.5966 94.3042 12.2312C94.3042 11.8658 94.0067 11.5698 93.6395 11.5698H69.3698C69.0029 11.5698 68.7051 11.8658 68.7051 12.2312C68.7051 12.5966 69.0029 12.8926 69.3698 12.8926Z" fill="#FFCB11"/>
</svg>
