<svg width="578" height="430" viewBox="0 0 578 430" fill="none" xmlns="http://www.w3.org/2000/svg">
<path d="M0 378.17H578V377.881H0V378.17Z" fill="#E7E8E5"/>
<path d="M481.796 396.456H520.085V396.744H481.796V396.456Z" fill="#E7E8E5"/>
<path d="M385.389 396.744H467.241V396.456H385.389V396.744Z" fill="#E7E8E5"/>
<path d="M318.063 386.027H340.249V385.739H318.063V386.027Z" fill="#E7E8E5"/>
<path d="M60.6426 387.678H100.282V387.967H60.6426V387.678Z" fill="#E7E8E5"/>
<path d="M110.574 387.967H182.648V387.678H110.574V387.967Z" fill="#E7E8E5"/>
<path d="M217.713 392.839H260.27V392.551H217.713V392.839Z" fill="#E7E8E5"/>
<path d="M50.7659 0.289764C47.2862 0.289764 44.4562 3.116 44.4562 6.58728V319.826C44.4562 323.299 47.2862 326.124 50.7659 326.124H273.988C277.465 326.124 280.296 323.299 280.296 319.826V6.58728C280.296 3.116 277.465 0.289764 273.988 0.289764H50.7659ZM273.988 326.413H50.7659C47.1273 326.413 44.1672 323.459 44.1672 319.826V6.58728C44.1672 2.95673 47.1273 0.00125122 50.7659 0.00125122H273.988C277.625 0.00125122 280.585 2.95673 280.585 6.58728V319.826C280.585 323.459 277.625 326.413 273.988 326.413Z" fill="#E7E8E5"/>
<path d="M300.805 0.289764C297.327 0.289764 294.497 3.116 294.497 6.58728V319.826C294.497 323.299 297.327 326.124 300.805 326.124H524.027C527.506 326.124 530.337 323.299 530.337 319.826V6.58728C530.337 3.116 527.506 0.289764 524.027 0.289764H300.805ZM524.027 326.413H300.805C297.167 326.413 294.208 323.459 294.208 319.826V6.58728C294.208 2.95673 297.167 0.00125122 300.805 0.00125122H524.027C527.665 0.00125122 530.626 2.95673 530.626 6.58728V319.826C530.626 323.459 527.665 326.413 524.027 326.413Z" fill="#E7E8E5"/>
<path d="M71.7324 348.077H183.51V40.3018H71.7324V348.077Z" fill="#F3F2F1"/>
<path d="M183.51 348.077H184.642V40.3018H183.51V348.077Z" fill="#E7E8E5"/>
<path d="M82.5186 336.336H172.724V52.042H82.5186V336.336Z" fill="white"/>
<path d="M231.409 222.48H495.085V26.9071H231.409V222.48Z" fill="#E2E2E0"/>
<path d="M227.328 222.48H491.004V26.9071H227.328V222.48Z" fill="#F3F2F1"/>
<path d="M234.654 214.265H483.68V35.1215H234.654V214.265Z" fill="white"/>
<path d="M234.654 214.265H237.738V35.1215H234.654V214.265Z" fill="#E2E2E0"/>
<path d="M230.358 175.996H487.974V164.97H230.358V175.996Z" fill="#F3F2F1"/>
<path d="M227.328 81.1185H219.152V18.2647H244.046V26.9072H231.409H227.328V81.1185Z" fill="#F3F2F1"/>
<path d="M234.654 81.1185H227.328V26.9072H244.046V35.1215H234.654V81.1185Z" fill="#ECECEA"/>
<path d="M244.047 81.1185H237.738V35.1215H234.654V81.1185V35.1215H244.047V81.1185Z" fill="#F3F2F1"/>
<path d="M234.654 81.1185H237.738V35.1213H234.654V81.1185Z" fill="#E2E2E0"/>
<path d="M244.047 26.9072H256.387V18.2647H244.047V26.9072Z" fill="#FBFBFA"/>
<path d="M244.047 35.1216H256.387V26.9068H244.047V35.1216Z" fill="#F3F2F1"/>
<path d="M244.047 76.0674H256.387V35.1212H244.047V76.0674Z" fill="#FBFBFA"/>
<path d="M281.281 26.9072H280.586V18.2647H281.281V26.9072ZM280.297 26.9072H256.387V18.2647H280.297V26.9072Z" fill="#F3F2F1"/>
<path d="M280.297 26.9072H280.585V18.2647H280.297V26.9072Z" fill="#E5E5E3"/>
<path d="M256.387 35.1216H281.282V26.9068H256.387V35.1216Z" fill="#ECECEA"/>
<path d="M256.387 81.1185H281.282V35.1213H256.387V81.1185Z" fill="#F3F2F1"/>
<path d="M281.281 26.9072H293.622V18.2647H281.281V26.9072Z" fill="#FBFBFA"/>
<path d="M281.281 35.1216H293.622V26.9068H281.281V35.1216Z" fill="#F3F2F1"/>
<path d="M281.281 76.0674H293.622V35.1212H281.281V76.0674Z" fill="#FBFBFA"/>
<path d="M318.516 26.9072H294.497V18.2647H318.516V26.9072ZM294.208 26.9072H293.622V18.2647H294.208V26.9072Z" fill="#F3F2F1"/>
<path d="M294.208 26.9072H294.497V18.2647H294.208V26.9072Z" fill="#E5E5E3"/>
<path d="M293.622 35.1216H318.516V26.9068H293.622V35.1216Z" fill="#ECECEA"/>
<path d="M293.622 81.1185H318.516V35.1213H293.622V81.1185Z" fill="#F3F2F1"/>
<path d="M318.516 26.9072H330.857V18.2647H318.516V26.9072Z" fill="#FBFBFA"/>
<path d="M318.516 35.1216H330.857V26.9068H318.516V35.1216Z" fill="#F3F2F1"/>
<path d="M318.516 76.0674H330.857V35.1212H318.516V76.0674Z" fill="#FBFBFA"/>
<path d="M330.856 26.9072H355.751V18.2647H330.856V26.9072Z" fill="#F3F2F1"/>
<path d="M330.856 35.1216H355.751V26.9068H330.856V35.1216Z" fill="#ECECEA"/>
<path d="M330.856 81.1185H355.751V35.1213H330.856V81.1185Z" fill="#F3F2F1"/>
<path d="M355.751 26.9072H368.091V18.2647H355.751V26.9072Z" fill="#FBFBFA"/>
<path d="M355.751 35.1216H368.091V26.9068H355.751V35.1216Z" fill="#F3F2F1"/>
<path d="M355.751 76.0674H368.091V35.1212H355.751V76.0674Z" fill="#FBFBFA"/>
<path d="M368.091 26.9072H392.984V18.2647H368.091V26.9072Z" fill="#F3F2F1"/>
<path d="M368.091 35.1216H392.984V26.9068H368.091V35.1216Z" fill="#ECECEA"/>
<path d="M368.091 81.1185H392.984V35.1213H368.091V81.1185Z" fill="#F3F2F1"/>
<path d="M392.984 26.9072H405.326V18.2647H392.984V26.9072Z" fill="#FBFBFA"/>
<path d="M392.984 35.1216H405.326V26.9068H392.984V35.1216Z" fill="#F3F2F1"/>
<path d="M392.984 76.0674H405.326V35.1212H392.984V76.0674Z" fill="#FBFBFA"/>
<path d="M405.326 26.9072H430.219V18.2647H405.326V26.9072Z" fill="#F3F2F1"/>
<path d="M405.326 35.1216H430.219V26.9068H405.326V35.1216Z" fill="#ECECEA"/>
<path d="M405.326 81.1185H430.219V35.1213H405.326V81.1185Z" fill="#F3F2F1"/>
<path d="M430.219 26.9072H442.559V18.2647H430.219V26.9072Z" fill="#FBFBFA"/>
<path d="M430.219 35.1216H442.559V26.9068H430.219V35.1216Z" fill="#F3F2F1"/>
<path d="M430.219 76.0674H442.559V35.1212H430.219V76.0674Z" fill="#FBFBFA"/>
<path d="M442.56 26.9072H467.454V18.2647H442.56V26.9072Z" fill="#F3F2F1"/>
<path d="M442.56 35.1216H467.454V26.9068H442.56V35.1216Z" fill="#ECECEA"/>
<path d="M442.56 81.1185H467.454V35.1213H442.56V81.1185Z" fill="#F3F2F1"/>
<path d="M467.454 26.9072H479.794V18.2647H467.454V26.9072Z" fill="#FBFBFA"/>
<path d="M467.454 35.1216H479.794V26.9068H467.454V35.1216Z" fill="#F3F2F1"/>
<path d="M467.454 76.0674H479.794V35.1212H467.454V76.0674Z" fill="#FBFBFA"/>
<path d="M504.689 81.1185H495.085V26.9072H479.794V18.2647H504.689V81.1185Z" fill="#F3F2F1"/>
<path d="M495.085 81.1185H491.004V26.9072H479.794H495.085V81.1185Z" fill="#E2E2E0"/>
<path d="M491.004 81.1185H483.68V35.1215H479.794V26.9072H491.004V81.1185Z" fill="#ECECEA"/>
<path d="M479.794 81.1185H483.68V35.1213H479.794V81.1185Z" fill="#F3F2F1"/>
<path d="M235.498 377.881H266.349V263.172H235.498V377.881Z" fill="#E2E2E0"/>
<path d="M240.633 377.881H235.498V367.558H246.016L240.633 377.881Z" fill="#EDEDEB"/>
<path d="M457.49 377.881H488.343V263.172H457.49V377.881Z" fill="#E2E2E0"/>
<path d="M235.498 373.917H461.972V263.172H235.498V373.917Z" fill="#EDEDEB"/>
<path d="M239.482 298.452H457.99V268.08H239.482V298.452Z" fill="#E2E2E0"/>
<path d="M294.755 277.519H402.716C407.725 277.519 412.514 273.772 415.96 267.157H281.51C284.955 273.772 289.746 277.519 294.755 277.519Z" fill="#EDEDEB"/>
<path d="M456.837 377.881H461.972V367.558H451.455L456.837 377.881Z" fill="#EDEDEB"/>
<path d="M239.482 333.73H457.99V303.36H239.482V333.73Z" fill="#E2E2E0"/>
<path d="M294.755 312.798H402.716C407.725 312.798 412.514 309.051 415.96 302.437H281.51C284.955 309.051 289.746 312.798 294.755 312.798Z" fill="#EDEDEB"/>
<path d="M239.482 369.009H457.99V338.638H239.482V369.009Z" fill="#E2E2E0"/>
<path d="M294.755 348.077H402.716C407.725 348.077 412.514 344.33 415.96 337.715H281.51C284.955 344.33 289.746 348.077 294.755 348.077Z" fill="#EDEDEB"/>
<path d="M513.136 416.933C513.136 424.15 412.788 430 289 430C165.213 430 64.8643 424.15 64.8643 416.933C64.8643 409.716 165.213 403.865 289 403.865C412.788 403.865 513.136 409.716 513.136 416.933Z" fill="#F3F2F1"/>
<path d="M427.582 410.351H426.344C425.86 410.351 425.446 409.926 425.363 409.345L417.751 356.459H423.531L428.572 408.996C428.641 409.717 428.178 410.351 427.582 410.351Z" fill="#FFCB11"/>
<path d="M427.582 410.351H426.344C425.86 410.351 425.446 409.926 425.363 409.345L417.751 356.459L423.531 356.46L428.572 408.996C428.577 409.043 428.579 409.09 428.579 409.138C428.579 409.798 428.138 410.351 427.582 410.351Z" fill="#FFCB11"/>
<path d="M443.442 410.351H442.202C441.719 410.351 441.305 409.926 441.222 409.345L433.61 356.459H439.39L444.431 408.996C444.501 409.717 444.038 410.351 443.442 410.351Z" fill="#FFCB11"/>
<path d="M443.441 410.351H442.202C441.719 410.351 441.305 409.926 441.222 409.345L433.61 356.459H439.39L444.431 408.996C444.436 409.043 444.438 409.09 444.438 409.138C444.438 409.798 443.998 410.351 443.441 410.351Z" fill="#FFCB11"/>
<path d="M355.075 410.351H356.314C356.797 410.351 357.211 409.926 357.295 409.345L364.908 356.459H359.128L354.086 408.996C354.017 409.717 354.479 410.351 355.075 410.351Z" fill="#FFCB11"/>
<path d="M356.314 410.351H355.075C354.519 410.351 354.078 409.798 354.079 409.138C354.079 409.09 354.082 409.043 354.086 408.996L357.108 377.505C358.297 381.112 359.426 384.466 360.446 387.456L357.295 409.345C357.211 409.926 356.797 410.351 356.314 410.351Z" fill="#FFCB11"/>
<path d="M339.215 410.351H340.455C340.938 410.351 341.352 409.926 341.435 409.345L349.047 356.459H343.267L338.226 408.996C338.158 409.717 338.62 410.351 339.215 410.351Z" fill="#FFCB11"/>
<path d="M347.241 369.009L349.047 356.459V356.46L347.241 369.009Z" fill="#949696"/>
<path d="M340.455 410.351H339.216C338.659 410.351 338.219 409.798 338.22 409.138C338.22 409.09 338.221 409.043 338.226 408.996L343.267 356.459L349.047 356.46L347.242 369.009L346.535 373.917L345.964 377.881L345.923 378.17L341.435 409.345C341.352 409.926 340.938 410.351 340.455 410.351Z" fill="#FFCB11"/>
<path d="M318.663 293.769H357.597C364.505 269.821 389.36 250.928 414.814 250.928H414.818H427.461C454.104 250.928 471.3 271.624 465.867 297.155C464.869 301.84 463.172 306.362 460.912 310.626L454.771 347.778C453.98 352.572 450.147 356.459 446.212 356.459L329.024 356.46C325.088 356.46 321.256 352.572 320.464 347.778L312.973 302.451C312.18 297.656 314.728 293.769 318.663 293.769Z" fill="#FFCB11"/>
<path d="M417.751 356.459L423.531 356.46V356.459L417.751 356.46" fill="#E8B915"/>
<path d="M343.267 356.459L349.047 356.46V356.459L343.267 356.46" fill="#E8B915"/>
<path d="M330.761 356.46C334.24 341.716 337.169 326.381 337.423 315.753C338.287 315.538 339.22 315.344 340.212 315.169C341.98 326.594 346.071 341.899 350.455 356.46H349.047H343.267H330.761ZM369.824 356.46C367.469 340.668 365.082 324.164 363.694 313.193C365.371 313.099 367.059 313 368.745 312.891C372.564 312.967 377 313.083 381.649 313.083C382.172 313.083 382.698 313.081 383.226 313.078L383.564 315.124L386.322 356.46H369.824ZM391.566 356.46L391.421 353.204C393.055 355.189 395.271 356.459 397.52 356.459H405.979V356.46H391.566ZM411.222 356.46V356.459H439.746L447.176 293.769H423.225C424.551 285.381 423.175 278.67 423.175 278.67C423.066 269.21 423.599 259.983 424.511 250.928H427.461C450.774 250.928 466.853 266.773 466.869 287.838C466.871 290.847 466.545 293.963 465.867 297.155C464.869 301.84 463.172 306.362 460.912 310.626L457.99 328.31L457.094 333.73L454.771 347.778C453.979 352.572 450.147 356.459 446.212 356.459H439.39H433.61L423.53 356.46H417.75H411.222ZM314.37 310.906L312.973 302.451C312.875 301.86 312.828 301.284 312.828 300.728C312.828 296.758 315.212 293.769 318.663 293.769H319.299C316.545 296.54 314.842 299.816 314.69 303.695C314.599 306.006 314.492 308.417 314.37 310.906ZM364.17 279.468C366.315 276.141 368.813 273.012 371.596 270.13H376.305C376.586 272.89 376.912 275.737 377.286 278.67C377.117 278.672 371.725 278.748 364.17 279.468ZM376.02 267.191H374.628C375.054 266.805 375.481 266.427 375.917 266.052C375.951 266.429 375.985 266.81 376.02 267.191Z" fill="#646464"/>
<path d="M308.916 396.666L318.559 401.084C318.91 401.245 319.063 401.609 318.927 401.961L315.892 409.792C315.578 410.603 314.491 411.012 313.69 410.627C310.36 409.032 308.845 408.099 304.605 406.157C301.996 404.961 294.853 400.966 291.635 398.654C288.488 396.395 290.798 393.234 292.37 393.924C299.413 397.027 303.899 397.305 307.196 396.515C307.79 396.373 308.402 396.43 308.916 396.666Z" fill="#17282F"/>
<path d="M377.291 278.67C377.291 278.67 315.642 279.434 314.69 303.695C313.321 338.565 308.163 396.46 308.163 396.46L318.559 401.084C318.559 401.084 336.774 342.986 337.424 315.753C354.72 311.451 399.347 315.788 404.591 301.596C408.881 289.986 406.561 278.67 406.561 278.67H377.291Z" fill="#FFCB11"/>
<path d="M318.559 401.084L308.163 396.46C308.163 396.46 313.321 338.565 314.69 303.695C315.638 279.548 376.713 278.678 377.286 278.67C377.305 278.814 377.323 278.958 377.342 279.103L381.159 279.067L381.251 280.453C364.843 283.441 338.413 290.867 339.364 307.623C339.492 309.867 339.783 312.405 340.212 315.169C339.22 315.345 338.287 315.538 337.424 315.753C337.169 326.382 334.24 341.716 330.762 356.46C329.753 360.737 328.699 364.961 327.65 369.009C327.217 370.679 326.785 372.318 326.359 373.917C325.998 375.268 325.641 376.592 325.288 377.881C325.263 377.977 325.236 378.074 325.209 378.17C324.475 380.857 323.764 383.398 323.1 385.739C323.072 385.836 323.045 385.931 323.018 386.027C320.441 395.081 318.559 401.084 318.559 401.084ZM363.694 313.194C363.679 313.07 363.663 312.949 363.648 312.827C365.169 312.827 366.884 312.854 368.746 312.891C367.059 313 365.371 313.099 363.694 313.194ZM388.136 279.35L388.121 279.001L391.051 278.973C390.227 279.072 389.247 279.195 388.136 279.35Z" fill="#FFBC10"/>
<path d="M390.411 214.844C389.875 217.084 389.334 219.105 388.713 221.199C388.105 223.274 387.469 225.339 386.802 227.398C385.449 231.508 383.958 235.591 382.237 239.633C380.53 243.679 378.621 247.691 376.295 251.648C375.121 253.625 373.868 255.605 372.38 257.538C370.893 259.47 369.21 261.396 367.009 263.201L366.838 263.342C366.718 263.44 366.59 263.534 366.462 263.618C364.993 264.584 363.624 264.88 362.584 265.007C361.524 265.125 360.665 265.076 359.952 264.989C358.489 264.809 357.417 264.48 356.411 264.131C354.431 263.429 352.807 262.62 351.238 261.783C348.125 260.111 345.363 258.239 342.652 256.338C339.965 254.41 337.377 252.412 334.863 250.337C332.366 248.227 329.918 246.144 327.534 243.848C326.131 242.497 326.089 240.267 327.443 238.866C328.577 237.692 330.329 237.473 331.693 238.227L331.75 238.26C334.478 239.769 337.232 241.371 339.991 242.858C342.74 244.377 345.482 245.878 348.225 247.283C350.949 248.704 353.714 250.026 356.35 251.111C357.656 251.645 358.966 252.104 360.033 252.343C360.551 252.458 361.032 252.518 361.158 252.492C361.236 252.492 361.18 252.445 360.91 252.464C360.656 252.491 360.077 252.563 359.27 253.078L358.723 253.495C359.707 252.568 360.752 251.273 361.717 249.815C362.681 248.351 363.627 246.76 364.502 245.087C366.246 241.721 367.806 238.093 369.247 234.383C370.67 230.662 372.003 226.855 373.237 223.003C374.492 219.189 375.634 215.185 376.677 211.449L376.716 211.308C377.765 207.551 381.665 205.355 385.429 206.4C389.104 207.423 391.285 211.172 390.411 214.844Z" fill="#17282F"/>
<path d="M365.422 401.676H376.987C377.408 401.676 377.725 401.966 377.75 402.376L378.311 411.511C378.37 412.46 377.479 413.357 376.51 413.339C372.483 413.271 370.559 413.035 365.473 413.035C362.343 413.035 356.033 413.359 351.712 413.359C347.485 413.359 347.513 409.094 349.345 408.707C357.556 406.975 360.741 404.585 363.648 402.307C364.172 401.896 364.806 401.676 365.422 401.676Z" fill="#17282F"/>
<path d="M393.907 278.67C393.907 278.67 337.988 283.384 339.363 307.623C340.871 334.167 365.422 401.676 365.422 401.676H376.73C376.73 401.676 367.051 339.854 363.647 312.826C379.408 312.826 415.962 315.787 421.206 301.595C425.496 289.986 423.176 278.67 423.176 278.67H393.907Z" fill="#FFCB11"/>
<path d="M332.556 239.401C332.556 239.401 330.948 236.796 329.412 235.549C327.124 237.688 325.838 243.931 325.838 243.931L329.001 244.216C329.001 244.216 332.628 243.038 332.556 239.401Z" fill="#FFCB11"/>
<path d="M320.951 233.791L317.355 232.232C316.389 231.814 315.263 232.173 314.719 233.072L313.016 235.889C312.525 236.701 312.64 237.74 313.298 238.426L318.234 243.567L326.467 243.234C327.414 243.196 328.266 242.652 328.697 241.81L329.648 239.956C330.244 238.795 329.918 237.341 328.829 236.622C326.158 234.858 320.951 233.791 320.951 233.791Z" fill="#F9A8B3"/>
<path d="M376.768 212.473C375.117 222.829 372.986 245.285 377.341 279.103L423.176 278.67C422.902 255.237 426.581 233.234 430.172 211.741C430.768 208.17 428.316 204.857 424.727 204.342C413.717 202.758 395.941 202.818 385.157 204.309C380.866 204.904 377.449 208.202 376.768 212.473Z" fill="#17282F"/>
<path d="M430.59 208.819C431.935 212.151 433.018 215.353 434.127 218.652C435.224 221.933 436.188 225.263 437.097 228.625C437.973 231.999 438.811 235.402 439.45 238.899C440.093 242.395 440.659 245.949 440.856 249.718C440.917 250.652 440.934 251.621 440.945 252.589L440.927 254.069C440.898 255.111 440.748 256.696 439.778 258.39C439.32 259.211 438.601 260.052 437.856 260.631C437.464 260.953 437.088 261.192 436.709 261.399C436.307 261.628 435.952 261.779 435.604 261.909C434.19 262.423 433.097 262.493 432.209 262.497C430.468 262.465 429.275 262.164 428.16 261.866C425.993 261.237 424.253 260.468 422.56 259.661C420.885 258.838 419.311 257.967 417.774 257.073C411.66 253.454 406.159 249.423 400.821 244.958C399.328 243.71 399.132 241.488 400.383 239.997C401.437 238.742 403.184 238.405 404.6 239.079L404.682 239.119C410.66 241.963 416.733 244.874 422.657 247.324C424.134 247.932 425.61 248.502 427.044 248.978C428.459 249.465 429.885 249.887 430.994 250.056C431.519 250.14 431.998 250.131 431.944 250.08C431.898 250.066 431.653 250.021 431.025 250.235C430.876 250.291 430.715 250.363 430.491 250.476C430.297 250.583 430.101 250.713 429.864 250.889C429.451 251.213 429.011 251.723 428.748 252.173C428.194 253.13 428.169 253.857 428.151 254.062L428.084 253.019C428.021 252.307 427.959 251.594 427.854 250.855C427.063 244.936 425.392 238.635 423.539 232.44C421.681 226.248 419.556 219.92 417.391 213.908L417.37 213.848C416.048 210.178 417.958 206.132 421.634 204.811C425.222 203.524 429.173 205.321 430.59 208.819Z" fill="#17282F"/>
<path d="M412.267 181.138L406.721 185.728L399.172 191.988C399.393 193.007 399.565 194.037 399.652 195.031C400.013 198.67 399.214 202.017 394.784 203.713C393.11 204.352 391.654 205.573 391.127 207.283C390.53 209.217 391.235 211.366 397.318 211.364C406.25 211.361 410.914 207.397 412.671 205.445C413.166 204.895 413.172 204.085 412.746 203.482C409.208 198.471 410.824 187.392 412.267 181.138Z" fill="#F9A8B3"/>
<path d="M397.099 209.402C397.099 209.402 397.693 210.044 397.872 210.971C398.337 210.187 399.547 209.402 399.547 209.402C399.547 209.402 402.199 210.579 402.752 213.148C401.052 213.041 397.944 211.364 397.944 211.364C397.944 211.364 396.336 212.292 394.728 212.362C394.798 210.365 397.099 209.402 397.099 209.402Z" fill="#FFCB11"/>
<path d="M399.547 209.402C402.119 212.293 402.607 216.131 402.607 216.131C402.607 216.131 417.406 212.439 416.711 202.81C415.466 202.024 412.609 201.552 412.609 201.552C412.609 201.552 409.426 207.321 399.547 209.402Z" fill="#FFCB11"/>
<path d="M397.099 209.402C394.528 212.293 393.841 216.131 393.841 216.131C393.841 216.131 386.251 209.233 393.645 202.889C394.945 202.354 397.557 202.069 397.557 202.069C397.557 202.069 392.645 206.048 397.099 209.402Z" fill="#FFCB11"/>
<path d="M399.172 191.988C399.172 191.987 399.172 191.987 399.172 191.987L406.721 185.727L406.722 185.728H406.721L399.172 191.988Z" fill="#C3C5C2"/>
<path d="M399.652 195.031C399.566 194.037 399.393 193.006 399.172 191.988L406.721 185.728C406.795 186.477 406.77 187.519 406.623 188.599C406.23 191.472 402.467 194.465 399.652 195.031Z" fill="#D8898C"/>
<path d="M391.069 161.257C384.108 166.185 388.003 177.746 393.942 173.322C399.88 168.899 396.744 157.241 391.069 161.257Z" fill="#17282F"/>
<path d="M414.552 171.551C412.625 180.4 411.948 185.66 406.713 189.698C398.838 195.772 388.401 190.375 387.637 181.225C386.948 172.988 390.216 159.901 399.54 157.395C408.727 154.927 416.48 162.703 414.552 171.551Z" fill="#F9A8B3"/>
<path d="M410.449 164.993C405.535 163.637 392.865 166.857 388.367 162.069C383.543 156.932 390.583 154.435 392.655 156.219C390.029 153.222 391.01 150.013 394.728 150.298C397.439 150.505 398.303 153.507 398.303 153.507C398.303 153.507 397.85 148.26 402.513 148.621C406.749 148.949 406.762 154.648 406.762 154.648C406.762 154.648 416.871 151.795 420.239 161.426C426.6 161.283 426.456 174.647 413.665 179.404C408.472 176.835 408.234 167.72 410.449 164.993Z" fill="#17282F"/>
<path d="M418.881 163.353C418.27 163.353 417.727 162.917 417.616 162.296C417.489 161.6 417.953 160.934 418.649 160.805C418.764 160.77 419.108 160.489 419.393 159.869C419.695 159.216 419.889 158.243 419.533 157.465C419.238 156.819 419.524 156.058 420.17 155.763C420.814 155.465 421.579 155.754 421.874 156.399C422.645 158.088 422.237 159.995 421.595 161.217C420.982 162.387 420.075 163.159 419.11 163.332L418.881 163.353Z" fill="#17282F"/>
<path d="M415.995 179.755C414.694 181.46 412.794 182.473 411.128 182.766C408.622 183.206 407.86 180.905 408.968 178.67C409.965 176.659 412.471 174.006 414.788 174.579C417.071 175.145 417.482 177.807 415.995 179.755Z" fill="#F9A8B3"/>
<path d="M399.373 172.361C399.26 173.087 398.783 173.63 398.306 173.573C397.828 173.515 397.532 172.882 397.644 172.156C397.756 171.43 398.234 170.888 398.711 170.943C399.189 171.001 399.485 171.635 399.373 172.361Z" fill="#17282F"/>
<path d="M391.121 171.38C391.009 172.108 390.531 172.65 390.054 172.593C389.577 172.536 389.281 171.903 389.393 171.176C389.505 170.45 389.982 169.908 390.46 169.964C390.937 170.022 391.233 170.655 391.121 171.38Z" fill="#17282F"/>
<path d="M393.635 171.672C393.635 171.672 391.904 175.194 390.189 176.848C391.207 177.933 393.127 177.56 393.127 177.56L393.635 171.672Z" fill="#F46878"/>
<path d="M396.505 181.289C399.4 181.289 401.02 179.486 401.094 179.403L401.074 179.099L400.769 179.118C400.751 179.139 398.909 181.194 395.7 180.81C395.581 180.795 395.475 180.88 395.461 180.998C395.447 181.117 395.531 181.224 395.649 181.237C395.946 181.274 396.231 181.289 396.505 181.289Z" fill="#17282F"/>
<path d="M402.69 168.176L402.882 168.078C403.06 167.92 403.076 167.647 402.918 167.469C401.349 165.708 399.371 166.029 399.289 166.043C399.064 166.06 398.896 166.306 398.938 166.542C398.978 166.776 399.201 166.933 399.436 166.894C399.518 166.88 401.041 166.659 402.272 168.042C402.381 168.163 402.542 168.209 402.69 168.176Z" fill="#17282F"/>
<path d="M388.174 167.703C388.307 167.741 388.455 167.715 388.57 167.621C390.079 166.367 391.632 166.78 391.647 166.785C391.877 166.851 392.115 166.716 392.179 166.486C392.243 166.259 392.11 166.021 391.883 165.956L391.88 165.955C391.798 165.933 389.872 165.417 388.018 166.957C387.834 167.109 387.81 167.382 387.962 167.564L388.174 167.703Z" fill="#17282F"/>
<path d="M403.222 233.101L398.163 229.961C396.645 229.019 394.649 229.498 393.724 231.026L393.129 232.01C392.409 233.203 392.54 234.72 393.456 235.769L396.947 239.77C396.947 239.77 399.985 246.842 403.507 244.975L406.194 240.327L403.222 233.101Z" fill="#F9A8B3"/>
<path d="M408.433 242.141C408.433 242.141 407.161 239.017 405.788 237.436C403.249 239.609 401.19 246.536 401.19 246.536L404.298 247.205C404.298 247.205 408.05 246.269 408.433 242.141Z" fill="#FFCB11"/>
<path d="M447.177 293.769H387.16C383.224 293.769 380.678 297.656 381.469 302.451L388.962 347.778C389.753 352.572 393.586 356.459 397.521 356.459H439.746L447.177 293.769Z" fill="#FFCB11"/>
<path d="M439.746 356.459H411.223L408.434 293.769H447.177L439.746 356.459ZM405.979 356.459H397.521C395.271 356.459 393.055 355.189 391.422 353.204L388.778 293.769H401.797L405.979 356.459ZM383.564 315.124L383.227 313.078L381.47 302.451C381.372 301.86 381.325 301.284 381.325 300.728C381.325 299.181 381.687 297.785 382.332 296.655L383.564 315.124Z" fill="#646464"/>
<path d="M170.259 414.237H171.992C172.58 414.237 173.071 413.741 173.113 413.098L182.652 270.13H175.488L169.136 412.95C169.104 413.651 169.616 414.237 170.259 414.237Z" fill="#FFCB11"/>
<path d="M171.992 414.237H170.259C169.634 414.237 169.132 413.683 169.134 413.007C169.134 412.989 169.134 412.969 169.135 412.95L171.38 362.474H176.491L175.463 377.881L175.444 378.17L174.809 387.679L174.791 387.967L173.113 413.098C173.07 413.741 172.58 414.237 171.992 414.237Z" fill="#C6A019"/>
<path d="M150.603 414.237H152.336C152.925 414.237 153.414 413.741 153.458 413.098L162.995 270.13H155.831L149.479 412.95C149.448 413.651 149.96 414.237 150.603 414.237Z" fill="#FFCB11"/>
<path d="M152.335 414.237H150.602C149.977 414.237 149.477 413.683 149.478 413.007C149.478 412.989 149.478 412.969 149.479 412.95L151.724 362.474H156.834L155.807 377.881L155.787 378.17L155.152 387.679L155.134 387.967L153.458 413.098C153.414 413.741 152.925 414.237 152.335 414.237Z" fill="#C6A019"/>
<path d="M392.954 414.237H391.223C390.633 414.237 390.144 413.741 390.101 413.098L380.562 270.13H387.727L394.078 412.95C394.109 413.651 393.597 414.237 392.954 414.237Z" fill="#FFCB11"/>
<path d="M392.954 414.237H391.223C390.633 414.237 390.144 413.741 390.101 413.098L386.322 356.46L383.564 315.124L381.158 279.067L380.562 270.13H387.727L394.078 412.95C394.079 412.969 394.08 412.989 394.08 413.007C394.081 413.683 393.58 414.237 392.954 414.237Z" fill="#C6A019"/>
<path d="M412.611 414.237H410.879C410.29 414.237 409.801 413.741 409.757 413.098L400.219 270.13H407.384L413.735 412.95C413.766 413.651 413.254 414.237 412.611 414.237Z" fill="#FFCB11"/>
<path d="M412.611 414.237H410.879C410.29 414.237 409.801 413.741 409.757 413.098L405.979 356.46V356.459L400.803 278.881L400.219 270.13H407.384L413.735 412.95C413.736 412.969 413.736 412.989 413.736 413.007C413.738 413.683 413.236 414.237 412.611 414.237Z" fill="#C6A019"/>
<path d="M141.932 270.13H420.878V267.191H141.932V270.13Z" fill="#FFCB11"/>
<path d="M137.285 221.651L134.651 241.001C133.82 247.445 132.951 253.906 132.33 260.249C132.242 261.048 132.184 261.827 132.119 262.61L132.023 263.786C132.031 263.699 132.024 263.388 131.983 263.209C131.964 263.021 131.905 262.819 131.849 262.659C131.809 262.519 131.73 262.359 131.675 262.255L131.515 261.995C131.31 261.732 131.287 261.769 131.342 261.824C131.387 261.889 131.55 262.016 131.735 262.153C132.124 262.434 132.671 262.749 133.267 263.047C135.719 264.244 138.752 265.266 141.754 266.192C147.821 268.029 154.184 269.619 160.47 271.165L159.76 276.679C153.032 276.441 146.428 275.816 139.713 274.608C136.343 273.967 133.008 273.268 129.411 271.892C128.503 271.536 127.57 271.129 126.555 270.555C126.044 270.259 125.523 269.928 124.943 269.463C124.37 268.992 123.749 268.452 123.097 267.498C122.775 267.016 122.463 266.438 122.224 265.733C122.106 265.379 122.016 264.972 121.95 264.586C121.895 264.203 121.876 263.686 121.882 263.395L121.91 262.113C121.93 261.26 121.944 260.4 121.986 259.564C122.26 252.822 122.866 246.243 123.587 239.663C124.292 233.084 125.132 226.566 126.166 220.013L137.285 221.651Z" fill="#872F37"/>
<path d="M175.027 276.985L170.788 280.853C169.799 281.754 168.359 281.967 167.152 281.386L162.465 279.134C162.465 279.134 155.518 278.846 154.527 274.61L156.324 271.317L167.087 270.124C168.192 270.001 169.308 270.249 170.258 270.827L174.694 273.532C175.929 274.284 176.096 276.01 175.027 276.985Z" fill="#872F37"/>
<path d="M149.644 181.889C150.742 188.526 151.676 200.657 146.92 204.922C146.92 204.922 158.529 210.99 166.142 221.58C174.283 215.141 167.465 205.532 167.465 205.532C160.146 203.556 160.499 198.103 161.936 193.012L149.644 181.889Z" fill="#872F37"/>
<path d="M171.369 209.614C171.369 209.614 170.756 203.986 167.679 201.204C165.094 198.867 151.53 200.165 147.256 200.641C146.451 200.731 145.757 201.228 145.408 201.955L142.308 208.419L171.369 209.614Z" fill="#FFCB11"/>
<path d="M170.515 205.943C169.494 205.793 168.472 205.655 167.465 205.533C162.994 204.991 158.717 204.839 154.087 204.839C151.805 204.839 149.437 204.876 146.92 204.922C145.92 204.941 144.922 204.975 143.936 205.024L145.408 201.955C145.757 201.228 146.451 200.731 147.256 200.641C149.648 200.374 154.949 199.85 159.609 199.85C163.274 199.85 166.542 200.174 167.679 201.204C169.072 202.463 169.96 204.305 170.515 205.943Z" fill="#CFE0F5"/>
<path d="M133.784 206.651C125.413 209.37 123.616 220.573 124.368 229.294L141.263 239.667C141.263 239.667 145.366 226.935 145.331 220.135C145.294 212.9 139.468 204.804 133.784 206.651Z" fill="#FFCB11"/>
<path d="M137.055 237.126C136.651 237.126 136.245 236.965 135.946 236.676L135.76 236.434L135.61 236.157L135.517 235.868L135.483 235.568C135.483 235.153 135.657 234.75 135.946 234.462C136.534 233.872 137.587 233.872 138.165 234.462C138.454 234.75 138.628 235.153 138.628 235.568L138.593 235.868L138.5 236.157L138.361 236.434L138.165 236.676C137.876 236.965 137.472 237.126 137.055 237.126Z" fill="white"/>
<path d="M133.807 236.064H133.819C133.217 235.834 132.836 235.268 132.813 234.656C132.362 235.06 131.703 235.187 131.114 234.91C130.536 234.645 130.189 234.056 130.2 233.456C129.726 233.837 129.056 233.918 128.488 233.606C127.923 233.307 127.621 232.706 127.667 232.106C127.172 232.452 126.501 232.498 125.946 232.164C125.206 231.725 124.974 230.757 125.414 230.017C125.865 229.279 126.836 229.036 127.575 229.486C128.096 229.81 128.362 230.387 128.328 230.952C128.79 230.617 129.426 230.561 129.969 230.849C130.501 231.138 130.813 231.691 130.8 232.268C131.241 231.911 131.876 231.818 132.431 232.071C132.986 232.325 133.321 232.869 133.345 233.433C133.772 233.065 134.385 232.925 134.963 233.145C135.759 233.468 136.165 234.379 135.842 235.177C135.599 235.799 135.009 236.168 134.385 236.168C134.188 236.168 134.004 236.134 133.807 236.064Z" fill="white"/>
<path d="M124.374 230.86C124.27 230.86 124.166 230.849 124.061 230.825L123.772 230.733L123.496 230.594L123.264 230.398L123.068 230.167L122.918 229.892L122.825 229.603C122.813 229.498 122.801 229.394 122.801 229.29L122.825 228.99L122.918 228.691L123.068 228.425L123.264 228.182L123.496 227.986L123.772 227.848L124.061 227.755C124.571 227.663 125.113 227.826 125.472 228.182L125.669 228.425L125.819 228.691L125.9 228.99L125.934 229.29C125.934 229.394 125.923 229.498 125.9 229.603L125.819 229.892L125.669 230.167L125.472 230.398C125.183 230.687 124.778 230.86 124.374 230.86Z" fill="white"/>
<path d="M187.004 222.933C186.296 232.531 184.158 248.695 178.887 275.906L133.643 274.563C134.829 257.889 133.037 245.457 128.944 216.276C128.197 210.949 132.034 206.081 137.393 205.529C140.298 205.229 143.597 204.983 146.919 204.922C154.544 204.782 160.79 204.725 167.465 205.532C169.669 205.8 171.947 206.146 174.121 206.518C182.013 207.862 187.591 214.962 187.004 222.933Z" fill="#FFCB11"/>
<path d="M173.053 169.669C173.161 170.56 173.72 171.227 174.304 171.157C174.888 171.087 175.274 170.308 175.166 169.416C175.06 168.525 174.5 167.861 173.917 167.93C173.333 168 172.947 168.779 173.053 169.669Z" fill="#17282F"/>
<path d="M173.665 168.009L175.735 167.137C175.735 167.137 174.836 168.94 173.665 168.009Z" fill="#17282F"/>
<path d="M173.362 171.051C173.362 171.051 175.336 174.706 177.226 176.358C176.18 177.596 174.116 177.335 174.116 177.335L173.362 171.051Z" fill="#6B1317"/>
<path d="M173.162 161.856C173.262 161.707 173.283 161.51 173.201 161.336C173.076 161.073 172.762 160.961 172.498 161.085C169.86 162.336 169.504 164.744 169.491 164.845C169.452 165.134 169.654 165.399 169.943 165.438C170.23 165.477 170.497 165.277 170.536 164.988C170.549 164.91 170.844 163.037 172.95 162.039L173.162 161.856Z" fill="#17282F"/>
<path d="M142.263 169.467C144.25 180.33 144.858 184.97 151.069 189.924C160.412 197.377 173.342 192.565 174.647 181.328C175.821 171.214 172.375 155.149 161.121 152.078C150.035 149.052 140.276 158.604 142.263 169.467Z" fill="#872F37"/>
<path d="M166.227 172.508C168.062 178.476 172.432 192.909 162.778 196.121C155.223 198.635 131.575 200.645 128.851 186.811C126.035 172.508 138.811 162.328 138.811 162.328C138.811 162.328 128.689 154.04 135.175 145.013C143.534 133.376 163.545 139.956 169.486 148.177C175.261 156.17 166.227 172.508 166.227 172.508Z" fill="#17282F"/>
<path d="M147.923 198.106C144.05 198.106 139.247 197.317 135.291 195.617C129.92 193.308 126.785 189.741 126.226 185.299C124.329 170.215 138.389 161.925 138.532 161.845L139.091 162.812C138.956 162.89 125.532 170.821 127.337 185.159C127.977 190.246 132.257 193.097 135.734 194.591C142.598 197.541 151.466 197.526 153.619 195.949L154.28 196.852C153.16 197.671 150.798 198.106 147.923 198.106Z" fill="#17282F"/>
<path d="M134.458 160.163C134.332 162.093 132.727 164.742 139.429 165.74C146.13 166.737 155.441 166.642 157.351 165.032C159.262 163.423 161.144 159.576 157.149 159.92C153.153 160.265 134.675 156.864 134.458 160.163Z" fill="#FFCB11"/>
<path d="M162.57 174.211C163.716 176.384 165.761 177.827 167.701 178.395C170.62 179.247 172.117 176.651 171.336 173.881C170.635 171.388 168.271 167.941 165.326 168.301C162.425 168.659 161.261 171.725 162.57 174.211Z" fill="#872F37"/>
<path d="M233.097 402.3L243.825 402.097L238.631 375.364L227.903 375.568L233.097 402.3Z" fill="#872F37"/>
<path d="M241.141 390.661C243.979 401.33 254.408 412.624 254.408 412.624L239.522 408.849L233.016 399.621L234.155 397.177L241.141 390.661Z" fill="#872F37"/>
<path d="M230.57 395.619C230.525 396.805 230.615 398.155 230.786 399.353C231.414 403.767 233.365 415.464 233.365 415.464L234.376 415.471C234.376 415.471 233.418 407.596 233.557 404.694C233.696 401.791 235.572 406.923 237.838 409.827C240.104 412.729 244.182 415.371 250.783 415.578C258.511 415.82 261.59 415.496 259.113 413.57C256.637 411.643 251.372 410.386 251.372 410.386C251.372 410.386 245.293 408.206 240.946 401.684C238.129 397.454 233.407 394.395 231.357 393.401C230.736 393.51 230.606 394.678 230.57 395.619Z" fill="#17282F"/>
<path d="M271.09 365.985L284.784 366.408L269.468 343.676L259.986 351.766L271.09 365.985Z" fill="#872F37"/>
<path d="M274.342 356.333C284.29 360.959 300.226 360.049 300.226 360.049L287.273 370.424L276.166 369.602L274.993 367.138L274.342 356.333Z" fill="#872F37"/>
<path d="M272.236 368.122C273.08 368.967 274.129 369.82 275.115 370.506C278.749 373.032 288.557 379.505 288.557 379.505L289.186 378.716C289.186 378.716 282.804 374.078 280.754 371.984C278.705 369.89 283.637 371.928 287.172 372.134C290.707 372.34 295.17 370.947 299.397 365.905C304.346 360.003 306.009 357.363 303.064 357.99C300.118 358.616 295.942 361.89 295.942 361.89C295.942 361.89 290.585 365.172 283.103 364.123C278.253 363.442 273.086 365.056 271.09 365.985C270.787 366.548 271.565 367.449 272.236 368.122Z" fill="#17282F"/>
<path d="M163.109 275.118C163.109 275.118 236.358 264.301 243.941 283.045C257.136 315.659 275.768 353.027 275.768 353.027L266.771 360.456C266.771 360.456 234.834 330.942 223.473 298.176C209.902 302.56 166.726 316.665 150.912 316.665C134.022 316.665 127.124 302.289 133.224 278.417C133.768 276.29 135.711 274.815 137.911 274.826C148.545 274.879 163.109 275.118 163.109 275.118Z" fill="#17282F"/>
<path d="M170.131 284.641C170.131 284.641 230.25 282.834 230.757 304.095C231.595 339.257 241.522 389.642 241.522 389.642L230.556 390.661C230.556 390.661 212.628 350.583 207.885 316.234C186.47 317.621 166.726 316.665 150.912 316.665C133.19 316.665 131.725 297.235 148.976 274.564C159.52 274.564 170.131 284.641 170.131 284.641Z" fill="#17282F"/>
<path d="M133.044 271.891L131.767 275.9C131.599 276.208 131.962 276.539 132.485 276.556L179.052 277.937C179.46 277.95 179.803 277.76 179.837 277.505L180.365 273.474C180.402 273.195 180.055 272.947 179.609 272.934L133.791 271.575C133.454 271.564 133.153 271.693 133.044 271.891Z" fill="white"/>
<path d="M139.045 277.188L137.818 277.152C137.573 277.145 137.392 277.014 137.413 276.86L138.144 271.625C138.166 271.471 138.384 271.351 138.627 271.359L139.855 271.395C140.099 271.403 140.282 271.533 140.261 271.687L139.528 276.923C139.507 277.076 139.29 277.196 139.045 277.188Z" fill="#17282F"/>
<path d="M175.589 278.273L174.363 278.237C174.118 278.229 173.935 278.098 173.957 277.945L174.689 272.709C174.711 272.556 174.928 272.437 175.172 272.445L176.4 272.481C176.644 272.488 176.826 272.619 176.804 272.773L176.073 278.008C176.052 278.162 175.833 278.281 175.589 278.273Z" fill="#17282F"/>
<path d="M157.318 277.732L156.09 277.693C155.846 277.687 155.663 277.555 155.685 277.403L156.417 272.167C156.438 272.014 156.656 271.894 156.9 271.901L158.128 271.938C158.372 271.945 158.555 272.076 158.533 272.229L157.801 277.465C157.779 277.618 157.562 277.738 157.318 277.732Z" fill="#17282F"/>
<path d="M213.08 226.947H242.326C243.259 226.947 243.932 227.842 243.671 228.738L232.742 266.182C232.569 266.779 232.019 267.191 231.398 267.191H202.152C201.218 267.191 200.545 266.294 200.806 265.4L211.735 227.954C211.91 227.357 212.458 226.947 213.08 226.947Z" fill="#FFCB11"/>
<path d="M213.62 228.321L242.043 228.995L230.82 264.313L202.396 263.64L213.62 228.321Z" fill="#DADBD8"/>
<path d="M212.726 227.973L241.158 228.091L230.628 263.621L202.196 263.505L212.726 227.973Z" fill="white"/>
<path d="M187.091 228.709C187.148 229.835 187.255 231.235 187.358 232.512C187.472 233.82 187.616 235.13 187.789 236.43C188.112 239.037 188.547 241.617 189.082 244.138C189.638 246.65 190.293 249.114 191.147 251.415C191.572 252.568 192.04 253.683 192.556 254.734C192.806 255.271 193.09 255.767 193.369 256.267L193.792 256.975L193.746 256.967C193.825 257.148 194.641 257.67 195.587 258.043C196.556 258.435 197.713 258.764 198.918 259.036C201.342 259.594 203.98 259.956 206.648 260.23C211.987 260.748 217.565 261.006 223.031 261.119L223.582 266.649C217.875 267.748 212.221 268.442 206.348 268.594C203.413 268.659 200.445 268.607 197.336 268.225C195.779 268.019 194.189 267.741 192.496 267.248C190.805 266.715 188.979 266.105 186.967 264.399C186.474 263.982 185.971 263.439 185.515 262.833L184.772 261.796C184.306 261.109 183.844 260.418 183.441 259.715C182.601 258.316 181.887 256.885 181.261 255.444C179.987 252.562 179.031 249.645 178.276 246.715C177.511 243.789 176.959 240.849 176.556 237.904C176.363 236.43 176.204 234.953 176.078 233.472C175.948 231.961 175.869 230.565 175.853 228.892L187.091 228.709Z" fill="#872F37"/>
<path d="M183.287 211.69C190.567 218.533 188.813 236.365 188.813 236.365L174.865 238.797C174.865 238.797 166.253 226.013 169.28 220.654C172.432 215.072 179.349 207.989 183.287 211.69Z" fill="#FFCB11"/>
<path d="M188.81 237.934C188.404 237.934 187.989 237.761 187.7 237.472L187.503 237.23L187.365 236.965C187.33 236.872 187.295 236.77 187.272 236.665L187.248 236.364C187.248 235.95 187.411 235.545 187.7 235.257L187.943 235.06L188.208 234.922L188.508 234.83C189.006 234.726 189.549 234.899 189.919 235.257C190.208 235.545 190.381 235.95 190.381 236.364L190.347 236.665C190.324 236.77 190.301 236.872 190.255 236.965L190.116 237.23L189.919 237.472C189.63 237.761 189.225 237.934 188.81 237.934Z" fill="white"/>
<path d="M176.14 238.765C176.07 237.899 176.705 237.138 177.572 237.068C178.174 237.011 178.741 237.311 179.041 237.807C179.226 237.265 179.7 236.838 180.301 236.745C180.902 236.665 181.48 236.93 181.816 237.403C181.966 236.849 182.417 236.399 183.006 236.285C183.607 236.157 184.197 236.399 184.554 236.849C184.671 236.285 185.099 235.811 185.688 235.649V235.662C186.531 235.43 187.387 235.938 187.607 236.77C187.826 237.599 187.33 238.465 186.485 238.684C185.873 238.846 185.237 238.615 184.856 238.142C184.729 238.73 184.265 239.216 183.63 239.353C183.006 239.469 182.382 239.203 182.035 238.707C181.873 239.296 181.388 239.757 180.751 239.85C180.116 239.943 179.504 239.63 179.191 239.124C178.995 239.688 178.485 240.127 177.839 240.184H177.711C176.903 240.184 176.219 239.573 176.14 238.765Z" fill="white"/>
<path d="M174.868 240.37L174.556 240.334L174.267 240.242L173.99 240.103L173.759 239.907L173.562 239.665L173.412 239.399L173.33 239.099L173.296 238.799C173.296 238.696 173.308 238.593 173.33 238.488L173.412 238.199L173.562 237.923L173.759 237.692L173.99 237.495L174.267 237.357L174.556 237.265C175.064 237.161 175.608 237.322 175.966 237.692L176.163 237.923L176.313 238.199L176.406 238.488C176.416 238.593 176.429 238.696 176.429 238.799L176.406 239.099L176.313 239.399L176.163 239.665L175.966 239.907C175.677 240.196 175.273 240.37 174.868 240.37Z" fill="white"/>
<path d="M236.055 255.347L231.229 255.021C230.024 254.941 228.828 255.261 227.826 255.933L218.957 261.88L218.89 265.628C221.731 268.927 228.023 265.973 228.023 265.973L233.861 265.786C234.814 265.756 235.653 265.149 235.98 264.255L238.092 258.471C238.625 257.012 237.607 255.451 236.055 255.347Z" fill="#872F37"/>
<path d="M135.932 419.435H137.241C137.752 419.435 138.19 418.987 138.278 418.375L146.324 362.473H140.215L134.887 418.003C134.814 418.765 135.302 419.435 135.932 419.435Z" fill="#FFCB11"/>
<path d="M137.241 419.435H135.932C135.344 419.435 134.879 418.851 134.879 418.154C134.879 418.104 134.881 418.054 134.887 418.003L140.215 362.473H146.324L144.106 377.881L144.064 378.17L142.695 387.679L142.655 387.967L138.278 418.375C138.19 418.987 137.752 419.435 137.241 419.435Z" fill="#FFCB11"/>
<path d="M119.168 419.435H120.478C120.989 419.435 121.426 418.987 121.515 418.375L129.561 362.473H123.451L118.123 418.003C118.051 418.765 118.538 419.435 119.168 419.435Z" fill="#FFCB11"/>
<path d="M120.478 419.435H119.169C118.581 419.435 118.115 418.851 118.117 418.154C118.117 418.104 118.119 418.054 118.124 418.003L123.452 362.473H129.561L127.344 377.881L127.302 378.17L125.933 387.679L125.892 387.967L121.515 418.375C121.426 418.987 120.989 419.435 120.478 419.435Z" fill="#FFCB11"/>
<path d="M212.571 419.435H211.261C210.752 419.435 210.313 418.987 210.226 418.375L202.179 362.473H208.288L213.617 418.003C213.69 418.765 213.201 419.435 212.571 419.435Z" fill="#FFCB11"/>
<path d="M212.571 419.435H211.261C210.752 419.435 210.313 418.987 210.226 418.375L202.179 362.473H208.288L213.617 418.003C213.622 418.054 213.624 418.104 213.624 418.154C213.624 418.851 213.16 419.435 212.571 419.435Z" fill="#FFCB11"/>
<path d="M229.334 419.435H228.024C227.513 419.435 227.076 418.987 226.987 418.375L218.942 362.473H225.051L230.38 418.003C230.453 418.765 229.964 419.435 229.334 419.435Z" fill="#FFCB11"/>
<path d="M229.334 419.435H228.024C227.513 419.435 227.076 418.987 226.987 418.375L218.942 362.473H225.051L230.38 418.003C230.385 418.054 230.387 418.104 230.387 418.154C230.387 418.851 229.922 419.435 229.334 419.435Z" fill="#FFCB11"/>
<path d="M251.059 296.21H209.905C202.604 270.899 176.332 250.928 149.427 250.928H149.425H136.06C107.898 250.928 89.7238 272.804 95.4659 299.788C96.5203 304.743 98.3139 309.522 100.703 314.027L107.193 353.297C108.031 358.366 112.081 362.474 116.241 362.474H240.108C244.266 362.474 248.317 358.366 249.155 353.297L257.073 305.388C257.91 300.319 255.218 296.21 251.059 296.21Z" fill="#FFCB11"/>
<path d="M240.108 362.474H116.241C112.081 362.474 108.031 358.366 107.193 353.297L100.703 314.027C98.3139 309.522 96.5203 304.743 95.4659 299.788C94.7483 296.415 94.4043 293.122 94.4065 289.941C94.4237 267.677 111.418 250.928 136.06 250.928H149.425H149.427C176.332 250.928 202.604 270.899 209.905 296.21H251.059C254.706 296.21 257.225 299.371 257.225 303.565C257.225 304.154 257.175 304.763 257.073 305.388L256.09 311.333L250.804 343.319L249.155 353.297C248.317 358.366 244.266 362.474 240.108 362.474Z" fill="#646464"/>
<path d="M245.687 113.319H236.246V112.165H245.687V113.319Z" fill="#FFCB11"/>
<path d="M201.516 125.764H200.36V120.086C200.36 115.718 203.921 112.165 208.297 112.165H229.371V113.319H208.297C204.558 113.319 201.516 116.355 201.516 120.086V125.764Z" fill="#FFCB11"/>
<path d="M313.692 165.231H208.297C206.148 165.231 204.406 163.491 204.406 161.347V120.086C204.406 117.942 206.148 116.204 208.297 116.204H313.692C315.841 116.204 317.583 117.942 317.583 120.086V161.347C317.583 163.491 315.841 165.231 313.692 165.231Z" fill="#FFCB11"/>
<path d="M308.709 143.326H213.281C211.837 143.326 210.667 142.158 210.667 140.717C210.667 139.277 211.837 138.108 213.281 138.108H308.709C310.152 138.108 311.322 139.277 311.322 140.717C311.322 142.158 310.152 143.326 308.709 143.326Z" fill="white"/>
<path d="M288.287 154.161H213.281C211.837 154.161 210.667 152.995 210.667 151.553C210.667 150.113 211.837 148.944 213.281 148.944H288.287C289.729 148.944 290.9 150.113 290.9 151.553C290.9 152.995 289.729 154.161 288.287 154.161Z" fill="white"/>
<path d="M245.462 132.49H213.281C211.837 132.49 210.667 131.322 210.667 129.881C210.667 128.44 211.837 127.273 213.281 127.273H245.462C246.905 127.273 248.075 128.44 248.075 129.881C248.075 131.322 246.905 132.49 245.462 132.49Z" fill="white"/>
<path d="M288.12 132.49H255.94C254.496 132.49 253.326 131.322 253.326 129.881C253.326 128.44 254.496 127.273 255.94 127.273H288.12C289.564 127.273 290.734 128.44 290.734 129.881C290.734 131.322 289.564 132.49 288.12 132.49Z" fill="white"/>
<path d="M210.667 162.1V174.6C210.667 177.006 213.436 178.362 215.342 176.891L234.532 162.063L210.667 162.1Z" fill="#FFCB11"/>
<path d="M373.172 54.298H267.776C265.627 54.298 263.886 56.0371 263.886 58.1824V99.4433C263.886 101.587 265.627 103.327 267.776 103.327H351.037L366.127 114.985C368.032 116.458 370.801 115.102 370.801 112.696V103.327H373.172C375.319 103.327 377.062 101.587 377.062 99.4433V58.1824C377.062 56.0371 375.319 54.298 373.172 54.298Z" fill="white"/>
<path d="M267.776 54.8751C265.949 54.8751 264.463 56.3592 264.463 58.1825V99.4434C264.463 101.267 265.949 102.75 267.776 102.75H351.233L366.48 114.529C367.196 115.083 368.11 115.177 368.925 114.777C369.738 114.379 370.224 113.601 370.224 112.696V102.75H373.172C374.998 102.75 376.484 101.267 376.484 99.4434V58.1825C376.484 56.3592 374.998 54.8751 373.172 54.8751H267.776ZM367.897 116.172C367.144 116.172 366.398 115.925 365.773 115.442L350.838 103.904H267.776C265.312 103.904 263.307 101.901 263.307 99.4434V58.1825C263.307 55.7233 265.312 53.7211 267.776 53.7211H373.172C375.634 53.7211 377.64 55.7233 377.64 58.1825V99.4434C377.64 101.901 375.634 103.904 373.172 103.904H371.38V112.696C371.38 114.031 370.633 115.225 369.433 115.813C368.942 116.053 368.418 116.172 367.897 116.172Z" fill="#FFCB11"/>
<path d="M318.221 81.4209H368.187C369.631 81.4209 370.801 80.253 370.801 78.8128C370.801 77.3703 369.631 76.2036 368.187 76.2036H318.221C316.778 76.2036 315.608 77.3703 315.608 78.8128C315.608 80.253 316.778 81.4209 318.221 81.4209Z" fill="#FFCB11"/>
<path d="M283.337 81.4209H308.075C309.519 81.4209 310.689 80.253 310.689 78.8128C310.689 77.3703 309.519 76.2036 308.075 76.2036H283.337C281.894 76.2036 280.723 77.3703 280.723 78.8128C280.723 80.253 281.894 81.4209 283.337 81.4209Z" fill="#FFCB11"/>
<path d="M293.182 92.2572H368.187C369.631 92.2572 370.801 91.0893 370.801 89.6479C370.801 88.2066 369.631 87.0387 368.187 87.0387H293.182C291.738 87.0387 290.569 88.2066 290.569 89.6479C290.569 91.0893 291.738 92.2572 293.182 92.2572Z" fill="#FFCB11"/>
<path d="M272.759 70.5858H368.187C369.631 70.5858 370.801 69.4179 370.801 67.9766C370.801 66.5352 369.631 65.3673 368.187 65.3673H272.759C271.317 65.3673 270.146 66.5352 270.146 67.9766C270.146 69.4179 271.317 70.5858 272.759 70.5858Z" fill="#FFCB11"/>
</svg>
