<svg width="294" height="192" viewBox="0 0 294 192" fill="none" xmlns="http://www.w3.org/2000/svg">
<mask id="mask0" mask-type="alpha" maskUnits="userSpaceOnUse" x="0" y="0" width="294" height="192">
<rect width="294" height="192" rx="16" fill="#F7F7F7"/>
</mask>
<g mask="url(#mask0)">
<ellipse cx="253" cy="27.1414" rx="178" ry="178.932" fill="#E5E5E5"/>
<path fill-rule="evenodd" clip-rule="evenodd" d="M108.442 224.677C89.8754 236.835 65.0206 231.563 52.9248 212.898C40.8296 194.235 46.0763 169.25 64.6427 157.092C83.2092 144.933 108.064 150.205 120.159 168.869C132.255 187.534 127.008 212.518 108.442 224.677Z" fill="#E5E5E5"/>
<path fill-rule="evenodd" clip-rule="evenodd" d="M148.263 95.5205C135.969 103.571 119.51 100.079 111.502 87.7213C103.492 75.3623 106.966 58.8171 119.26 50.7665C131.554 42.7153 148.013 46.2072 156.023 58.5662C164.031 70.9241 160.558 87.4693 148.263 95.5205Z" fill="#F7F7F7"/>
<path fill-rule="evenodd" clip-rule="evenodd" d="M230.357 58.193C224.21 62.219 215.981 60.4732 211.975 54.2921C207.971 48.1131 209.708 39.8415 215.856 35.8155C222.002 31.7902 230.231 33.536 234.235 39.7149C238.241 45.8961 236.504 54.1677 230.357 58.193" fill="#92939B"/>
</g>
</svg>
