<svg width="853" height="226" viewBox="0 0 853 226" fill="none" xmlns="http://www.w3.org/2000/svg">
<mask id="mask0" mask-type="alpha" maskUnits="userSpaceOnUse" x="0" y="0" width="853" height="226">
<rect width="853" height="226" rx="16" transform="matrix(-1 0 0 1 853 0)" fill="#9B51E0"/>
</mask>
<g mask="url(#mask0)">
<path fill-rule="evenodd" clip-rule="evenodd" d="M10.9382 125.036C10.9382 125.036 29.8058 100.003 2.74605 61.9525C2.74605 61.9525 -31.8952 105.764 10.9382 125.036Z" fill="#AB66EC"/>
<path d="M157.388 -39.4732C157.388 -39.4732 39.0163 35.5695 -2.47437 152.948" stroke="#964FD8" stroke-width="5.33333" stroke-miterlimit="10" stroke-linecap="round"/>
<path fill-rule="evenodd" clip-rule="evenodd" d="M94.1991 11.5923C94.1991 11.5923 109.26 1.39759 124.922 5.78114C137.248 9.23102 141.817 17.7774 141.817 17.7774C141.817 17.7774 115.387 38.1882 94.1991 11.5923Z" fill="#AB66EC"/>
<path fill-rule="evenodd" clip-rule="evenodd" d="M97.2812 8.73144L95.3131 10.6201C95.3131 10.6201 81.726 -19.8796 110.73 -35.0756C110.73 -35.0756 120.647 -12.0774 95.3131 10.6201" fill="#AB66EC"/>
<path fill-rule="evenodd" clip-rule="evenodd" d="M70.1075 -10.5049C70.1075 -10.5049 34.6535 10.1939 61.3376 46.0869C61.3376 46.0869 85.8044 16.258 70.1075 -10.5049Z" fill="#AB66EC"/>
<path fill-rule="evenodd" clip-rule="evenodd" d="M61.4513 46.1008C61.4513 46.1008 90.2497 18.3346 115.941 50.2592C115.941 50.2592 87.4996 69.7965 61.4513 46.1008Z" fill="#AB66EC"/>
<path fill-rule="evenodd" clip-rule="evenodd" d="M32.9043 83.5923C32.9043 83.5923 53.8008 56.123 34.0614 24.8582C34.0614 24.8582 -3.19245 57.1476 32.9043 83.5923" fill="#AB66EC"/>
<path fill-rule="evenodd" clip-rule="evenodd" d="M32.9046 83.5923C32.9046 83.5923 68.3317 101.336 90.1514 78.925C90.1514 78.925 58.0767 49.6607 32.9046 83.5923Z" fill="#AB66EC"/>
<path fill-rule="evenodd" clip-rule="evenodd" d="M8.84473 124.035C8.84473 124.035 46.7508 89.5332 72.8916 121.729C72.8916 121.729 39.6177 151.682 8.84473 124.035Z" fill="#AB66EC"/>
<path d="M127.567 15.7949C127.567 15.7949 97.9729 12.4255 95.3138 10.6201C95.3138 10.6201 99.2844 -13.2082 106.348 -24.6279" stroke="#964FD8" stroke-width="5.33333" stroke-miterlimit="10" stroke-linecap="round"/>
<path d="M64.8617 1.02653C64.8617 1.02653 54.3406 26.0015 62.9659 44.7852C62.9659 44.7852 93.5319 52.5821 103.341 48.9602" stroke="#964FD8" stroke-width="5.33333" stroke-miterlimit="10" stroke-linecap="round"/>
<path d="M30.5438 37.5105C30.5438 37.5105 19.0185 66.4829 34.4614 81.5865C34.4614 81.5865 67.0661 86.4479 79.6807 79.706" stroke="#964FD8" stroke-width="5.33333" stroke-miterlimit="10" stroke-linecap="round"/>
<path d="M-0.317637 75.9746C-0.317637 75.9746 3.38419 112.495 10.2949 122.805C10.2949 122.805 50.8672 124.626 59.8867 121.016" stroke="#964FD8" stroke-width="5.33333" stroke-miterlimit="10" stroke-linecap="round"/>
<path fill-rule="evenodd" clip-rule="evenodd" d="M877.879 273.083L891.713 152.165C891.713 152.165 762.386 52.3747 685.371 153.046C658.769 187.819 622.916 202.769 590 212.5C521.775 228.275 424 226 424 226L877.879 273.083Z" fill="#AB66EC"/>
<path fill-rule="evenodd" clip-rule="evenodd" d="M213.364 266.588C213.364 266.588 206.278 233.031 215.47 195.267C224.662 157.504 198.004 133.5 161.579 149.77C125.153 166.039 127.995 120.444 123.571 108.456C115.334 86.1362 89.0247 100.152 71.9203 111.171C54.8154 122.19 38.7612 109.229 20.2498 107.662C1.73837 106.095 -15.1392 116.073 8.66847 146.264C32.4754 176.457 36.9189 164.882 27.0343 200.766C17.1502 236.644 38.0022 241.822 63.0086 241.516C88.0155 241.209 84.7157 234.902 91.8148 270.436C98.914 305.971 109.432 316.917 136.278 311.507C163.124 306.102 193.238 253.801 213.364 266.588Z" fill="#B77CEF"/>
<path fill-rule="evenodd" clip-rule="evenodd" d="M-3.01719 120.365C-2.25816 110.209 8.67287 106.679 20.2428 107.659C30.3538 108.514 39.7312 112.677 48.9479 114.567L48.9698 114.661C48.9698 114.661 10.9488 121.807 25.9747 130.365C39.1586 137.874 57.074 130.455 59.1982 150.902C61.3231 171.348 42.9841 179.715 62.0217 181.238C81.0582 182.762 96.0142 167.268 108.712 200.261C121.411 233.258 96.8997 252.299 121.106 248.312C145.313 244.329 158.778 218.428 171.211 242.205C183.644 265.976 181.504 267.384 186.07 264.557C196.12 258.338 205.852 256.81 213.292 266.109C213.298 266.139 213.369 266.589 213.369 266.589C193.244 253.797 163.131 306.093 136.284 311.503C109.439 316.909 98.9176 305.967 91.818 270.437C84.7188 234.903 88.0221 241.215 63.0151 241.522C38.0088 241.828 17.1563 236.65 27.0403 200.771C36.9248 164.888 32.4707 176.447 8.66347 146.257C-0.264772 134.935 -3.47248 126.459 -3.01719 120.365" fill="#AB66EC"/>
<path d="M242.488 315.09C242.488 315.09 233.939 277.243 169.493 222.257C105.046 167.274 13.5484 122.593 13.5484 122.593" stroke="#9B51E0" stroke-width="5.33333" stroke-miterlimit="10" stroke-linecap="round"/>
<path d="M161.166 215.333C161.166 215.333 116.506 232.042 108.248 237.217" stroke="#9B51E0" stroke-width="5.33333" stroke-miterlimit="10" stroke-linecap="round"/>
<path d="M136.822 196.698L136.458 167.868" stroke="#9B51E0" stroke-width="5.33333" stroke-miterlimit="10" stroke-linecap="round"/>
<path d="M115.204 181.652L43.2158 215.263" stroke="#9B51E0" stroke-width="5.33333" stroke-miterlimit="10" stroke-linecap="round"/>
<path d="M81.3451 197.462L65.2921 222.679" stroke="#9B51E0" stroke-width="5.33333" stroke-miterlimit="10" stroke-linecap="round"/>
<path d="M98.2891 170.622C98.2891 170.622 100.592 133.476 97.8173 114.121" stroke="#9B51E0" stroke-width="5.33333" stroke-miterlimit="10" stroke-linecap="round"/>
<path d="M78.1992 158.229C78.1992 158.229 54.0366 169.288 42.8639 172.015" stroke="#9B51E0" stroke-width="5.33333" stroke-miterlimit="10" stroke-linecap="round"/>
<path d="M48.6321 141.149C48.6321 141.149 37.5453 121.92 30.0451 115.745" stroke="#9B51E0" stroke-width="5.33333" stroke-miterlimit="10" stroke-linecap="round"/>
<path d="M29.7737 130.922L14.5253 132.785" stroke="#9B51E0" stroke-width="5.33333" stroke-miterlimit="10" stroke-linecap="round"/>
</g>
</svg>
