<svg width="307" height="138" viewBox="0 0 307 138" fill="none" xmlns="http://www.w3.org/2000/svg">
<mask id="mask0" mask-type="alpha" maskUnits="userSpaceOnUse" x="0" y="0" width="307" height="138">
<rect width="307" height="137.761" rx="16" fill="url(#paint0_linear)"/>
</mask>
<g mask="url(#mask0)">
<path d="M69 123C78.1667 121.5 100.1 122.3 114.5 137.5H149C153.5 127.667 171.217 114.293 186.5 115.5C205.5 117 212.797 130.752 240.5 122.5C264 115.5 264 95 264 78.5C264 62 280 44 307.5 46V137.5H149C143.5 143.833 128.9 152.7 114.5 137.5H39C43.6667 133.833 56.2 125.8 69 123Z" fill="#C48AFA"/>
<path d="M38.1788 56.0295C38.1788 56.0295 47.0549 55.1006 50.2516 63.6589C53.4458 72.2171 56.4596 75.0191 56.8357 79.514C58.3578 97.699 66.8604 93.5874 64.4692 104.07C62.078 114.552 60.4212 116.135 60.4212 116.135L40.0948 112.156L19.5042 112.222C19.5042 112.222 27.5595 108.204 25.768 99.6457C23.974 91.0874 19.5041 77.0597 22.03 67.5065C24.5508 57.9534 32.878 56.758 38.1788 56.0295Z" fill="#16202E"/>
<path d="M79.8975 137.793H67.2323C64.606 133.013 62.4724 129.272 62.4724 129.272C62.4724 129.272 60.7661 132.385 59.4398 137.793H16.7998C16.1498 134.419 16.1104 131.183 16.2467 128.882C16.2467 128.882 13.969 132.995 11.3243 137.793H-3C0.797972 130.683 7.92212 117.737 9.54196 116.051C11.5759 113.923 23.3578 105.789 31.7689 103.137C40.1852 100.482 44.9661 103.043 44.9661 103.043C44.9661 103.043 53.6079 104.598 61.597 107.763C64.7371 109.006 73.4129 125.01 79.8975 137.793Z" fill="#FAA146"/>
<path d="M39.3494 61.0363C39.3494 61.0363 51.1011 62.7286 49.3814 80.0541C47.6617 97.3821 37.2903 96.006 36.5963 95.9908C35.9049 95.9756 26.192 96.3525 25.3511 75.2098C25.3511 75.2098 24.9611 59.5766 39.3494 61.0363Z" fill="#8E4F3A"/>
<path d="M44.5718 92.9175C44.5718 92.9175 43.8449 101.931 45.5823 104.63C47.3198 107.331 44.0956 110.994 37.4524 109.742C30.8091 108.487 31.1941 104.726 31.1941 104.726C31.1941 104.726 33.0556 99.1657 32.5111 94.7135C31.9666 90.2614 44.5718 92.9175 44.5718 92.9175Z" fill="#8E4F3A"/>
<path d="M38.0073 67.3148C38.0073 67.3148 43.4982 73.0799 46.0461 75.9991C48.5965 78.9183 48.8903 84.5569 48.8903 84.5569C48.8903 84.5569 53.1858 79.3154 51.3901 73.2114C49.5944 67.1099 45.342 55.2333 34.583 58.881C23.8216 62.5313 23.4239 78.5869 24.6852 86.5477C24.6852 86.5477 29.5151 68.9718 38.0073 67.3148Z" fill="#16202E"/>
<path d="M48.6978 103.835C48.6978 103.835 40.5475 124.449 35.5935 128.034C35.5935 128.034 29.0896 107.007 29.5429 103.929C29.5429 103.929 39.3572 100.086 48.6978 103.835Z" fill="#8E4F3A"/>
<path d="M31.4753 98.8494C31.4753 98.8494 16.9478 111.761 20.719 119.815C23.9355 126.688 35.3453 122.471 33.4635 115.269C31.5817 108.067 31.4753 98.8494 31.4753 98.8494Z" fill="#16202E"/>
<path d="M33.3748 95.2059C33.3748 95.2059 38.3838 97.5695 43.2585 94.0772C43.2585 94.0772 41.9055 96.871 38.3179 97.2683C34.7302 97.6656 33.3748 95.2059 33.3748 95.2059Z" fill="#633029"/>
<path d="M310.044 154.859C315.789 148.59 315.872 115.026 311.599 96.1312C309.41 86.4519 311.441 81.6738 313.234 77.458C314.947 73.4288 316.426 69.9488 313.437 63.5752C307.724 51.3942 312.817 44.2221 312.87 44.151L311.916 43.5418C311.686 43.8519 306.368 51.266 312.363 64.0483C315.156 70.0023 313.829 73.1247 312.148 77.0785C310.384 81.2247 308.189 86.3865 310.453 96.3937C315.039 116.673 314.33 148.522 309.167 154.153L310.044 154.859Z" fill="white"/>
<path d="M259.612 106.454C255.003 105.408 250.52 106.097 249.183 108.057C248.167 109.546 249.287 111.374 250.405 112.644C252.539 115.068 254.78 116.33 256.757 117.445C259.507 118.992 261.678 120.215 261.61 123.675C261.597 124.354 261.559 125.045 261.52 125.739C261.25 130.589 260.996 135.172 269.15 136.397C271.065 136.684 272.799 136.865 274.329 137.023C280.702 137.682 284.912 138.116 291.104 145.207C292.256 146.527 293.294 147.785 294.297 149.002C299.773 155.641 303.078 159.648 310.5 156.203C312.627 155.215 313.811 153.771 314.017 151.911C314.547 147.126 308.693 140.47 304.262 137.502C303.937 137.284 296.278 132.024 294.48 122.178C294.187 120.576 293.994 119.083 293.824 117.769C293.373 114.281 293.047 111.76 291.344 110.69C289.787 109.711 286.946 109.809 282.132 111.005C272.465 113.409 267.71 110.648 263.889 108.432C262.36 107.543 261.039 106.777 259.612 106.454ZM293.364 149.696C292.364 148.483 291.331 147.23 290.189 145.922C284.288 139.164 280.477 138.77 274.163 138.117C272.62 137.957 270.871 137.776 268.929 137.487C259.773 136.111 260.08 130.59 260.351 125.719C260.388 125.037 260.426 124.356 260.44 123.692C260.495 120.852 258.759 119.875 256.132 118.394C254.179 117.296 251.749 115.927 249.493 113.363C247.025 110.559 247.43 108.619 248.204 107.484C249.833 105.095 254.76 104.21 259.921 105.381C261.525 105.745 262.983 106.592 264.527 107.489C268.162 109.597 272.686 112.223 281.868 109.941C287.104 108.638 290.139 108.586 292.017 109.766C294.148 111.106 294.499 113.829 294.987 117.599C295.155 118.902 295.346 120.382 295.634 121.958C297.351 131.359 304.888 136.548 304.963 136.599C309.44 139.597 315.784 146.561 315.181 151.988C314.929 154.265 313.519 156.014 310.99 157.188C309.982 157.656 309.039 157.994 308.15 158.22C301.735 159.844 298.13 155.474 293.364 149.696Z" fill="black"/>
<path d="M312.402 163.281L313.526 162.939C313.217 161.953 305.824 138.794 293.96 134.474C280.944 129.733 275.388 122.502 272.34 117.475C268.75 111.554 258.316 112.37 257.874 112.408L257.941 113.505C258.043 113.498 268.087 112.714 271.319 118.046C274.45 123.211 280.157 130.64 293.506 135.502C304.862 139.639 312.328 163.045 312.402 163.281Z" fill="black"/>
<path d="M338.488 118.737C344.921 112.129 340.201 107.893 334.736 102.986C330.437 99.1268 325.566 94.7535 326.241 88.6865C327.031 81.5962 329.637 76.7466 331.936 72.4695C335.788 65.3044 338.333 60.5697 328.351 50.7437C319.897 42.4222 323.63 32.5057 326.628 24.5371C328.469 19.6477 330.058 15.4233 328.456 12.7584C327.561 11.2694 325.676 10.2925 322.689 9.77513C322.082 9.66758 321.523 9.81127 320.982 10.2095C317.37 12.8655 316.435 24.7115 316.427 24.8316L316.419 24.926L316.378 25.0151C313.502 31.2325 308.502 32.1427 304.483 32.8715C302.082 33.3085 300.186 33.6523 299.327 34.982C298.481 36.2899 298.643 38.6442 299.823 42.1812C304.34 55.7173 296.821 60.6133 290.78 64.5456C287.386 66.7555 284.455 68.6655 284.041 71.6444C283.598 74.8247 286.012 78.9972 291.637 84.7751C305.065 98.5676 300.813 103.737 296.702 108.737C293.262 112.919 290.014 116.867 297.45 126.311C305.083 136.006 307.839 147.849 309.852 156.498C311.225 162.4 312.31 167.062 314.252 167.43C315.388 167.644 317.13 166.354 319.431 163.593C319.981 161.015 326.593 130.951 338.488 118.737ZM313.985 168.51C311.323 168.007 310.283 163.536 308.707 156.767C306.717 148.214 303.991 136.5 296.501 126.986C288.545 116.881 292.225 112.407 295.784 108.081C299.771 103.233 303.536 98.6565 290.761 85.5333C284.894 79.5069 282.389 75.0591 282.879 71.5363C283.364 68.0563 286.653 65.9146 290.136 63.6475C296.147 59.7321 302.96 55.2967 298.705 42.5431C297.4 38.6329 297.282 36.0549 298.332 34.4317C299.473 32.6676 301.709 32.2607 304.298 31.79C308.21 31.079 312.642 30.2735 315.266 24.6909C315.368 23.4373 316.386 12.2129 320.279 9.3495C321.098 8.74681 321.99 8.52531 322.937 8.69034C326.272 9.2699 328.412 10.4134 329.48 12.1939C331.339 15.2862 329.666 19.7283 327.731 24.8728C324.689 32.959 321.24 42.1216 329.211 49.9688C339.749 60.3427 336.908 65.6287 332.978 72.941C330.726 77.1321 328.173 81.8804 327.406 88.766C326.79 94.3049 331.248 98.3065 335.559 102.177C340.967 107.031 346.559 112.052 339.34 119.467C327.404 131.724 320.619 163.586 320.552 163.906L320.524 164.038L320.435 164.146C318.314 166.711 316.648 168.099 315.221 168.461C314.789 168.57 314.379 168.586 313.985 168.51Z" fill="white"/>
<path d="M258.237 51.2428C264.848 47.12 266.63 60.4375 272.094 69.2412C277.558 78.0447 306.966 64.8536 300.119 92.0976C293.273 119.342 318.486 95.9756 315.046 119.108C311.606 142.241 325.25 162.594 314.311 159.309C303.371 156.024 300.862 128.627 290.191 127.997C279.52 127.368 276.983 124.126 284.609 113.14C292.234 102.152 254.686 102.672 259.073 83.2766C263.459 63.8811 250.6 56.0071 258.237 51.2428Z" fill="#F79938"/>
<path d="M311.841 157.383C311.701 153.563 310.272 119.99 303.093 117.704C296.767 115.692 293.555 102.444 291.247 89.7484C289.204 78.5113 274.971 76.6223 274.366 76.5463L274.295 77.6452C274.436 77.6611 288.358 79.5141 290.248 89.9148C292.619 102.952 295.969 116.575 302.847 118.763C308.298 120.499 310.453 147.227 310.824 157.379L311.841 157.383Z" fill="white"/>
</g>
<defs>
<linearGradient id="paint0_linear" x1="221.914" y1="-1.00259e-06" x2="200.462" y2="150.645" gradientUnits="userSpaceOnUse">
<stop stop-color="#9B51E0"/>
<stop offset="1" stop-color="#9B51E0"/>
</linearGradient>
</defs>
</svg>
