<svg width="388" height="192" viewBox="0 0 388 192" fill="none" xmlns="http://www.w3.org/2000/svg">
<g filter="url(#filter0_ddi)">
<rect x="14" y="14" width="356" height="159.749" rx="16" fill="#FFCB11"/>
</g>
<mask id="mask0" mask-type="alpha" maskUnits="userSpaceOnUse" x="14" y="14" width="356" height="160">
<rect x="14" y="14" width="356" height="159.749" rx="16" fill="url(#paint0_linear)"/>
</mask>
<g mask="url(#mask0)">
<path d="M94.0129 157.792C104.643 156.052 130.077 156.98 146.775 174.606H186.782C192 163.203 212.544 147.695 230.267 149.094C252.3 150.834 260.761 166.781 292.886 157.212C320.137 149.094 320.137 125.322 320.137 106.189C320.137 87.0554 338.69 66.1824 370.58 68.5016V174.606H186.782C180.404 181.95 163.473 192.232 146.775 174.606H59.2246C64.6361 170.354 79.1699 161.038 94.0129 157.792Z" fill="#FFECA7"/>
<path d="M377.729 193.576C384.395 186.314 384.45 147.392 379.461 125.475C376.906 114.248 379.26 108.71 381.337 103.823C383.322 99.1527 385.037 95.119 381.556 87.7242C374.904 73.5913 380.812 65.2806 380.873 65.1982L379.763 64.4906C379.497 64.8499 373.328 73.441 380.309 88.2714C383.561 95.1794 382.023 98.7986 380.076 103.382C378.032 108.188 375.488 114.171 378.13 125.778C383.484 149.301 382.7 186.233 376.709 192.757L377.729 193.576Z" fill="white"/>
<path d="M318.947 137.398C313.587 136.179 308.374 136.973 306.822 139.244C305.643 140.971 306.948 143.093 308.25 144.569C310.734 147.384 313.342 148.851 315.643 150.147C318.842 151.946 321.369 153.368 321.295 157.382C321.28 158.17 321.237 158.972 321.193 159.778C320.886 165.405 320.596 170.721 330.08 172.154C332.308 172.49 334.325 172.701 336.104 172.887C343.516 173.66 348.413 174.17 355.622 182.406C356.964 183.938 358.173 185.4 359.342 186.813C365.718 194.523 369.567 199.177 378.193 195.19C380.666 194.047 382.04 192.373 382.278 190.215C382.888 184.664 376.071 176.933 370.914 173.484C370.535 173.23 361.622 167.116 359.517 155.691C359.175 153.831 358.948 152.098 358.749 150.573C358.22 146.525 357.837 143.6 355.855 142.357C354.043 141.219 350.74 141.328 345.143 142.709C333.904 145.486 328.37 142.276 323.924 139.699C322.144 138.666 320.608 137.775 318.947 137.398ZM358.257 187.617C357.093 186.209 355.889 184.754 354.559 183.234C347.688 175.385 343.256 174.922 335.912 174.156C334.118 173.969 332.084 173.756 329.825 173.417C319.175 171.809 319.525 165.404 319.833 159.752C319.876 158.961 319.919 158.171 319.934 157.4C319.994 154.106 317.974 152.969 314.917 151.248C312.645 149.97 309.817 148.38 307.19 145.402C304.316 142.145 304.784 139.894 305.682 138.578C307.574 135.808 313.303 134.788 319.306 136.154C321.171 136.579 322.868 137.563 324.665 138.606C328.895 141.057 334.159 144.109 344.835 141.475C350.921 139.97 354.451 139.914 356.636 141.286C359.116 142.843 359.529 146.003 360.1 150.378C360.298 151.89 360.523 153.607 360.86 155.436C362.869 166.346 371.641 172.378 371.728 172.436C376.938 175.921 384.326 184.01 383.632 190.306C383.342 192.947 381.704 194.974 378.765 196.334C377.594 196.875 376.498 197.267 375.464 197.527C368.006 199.403 363.807 194.327 358.257 187.617Z" fill="black"/>
<path d="M380.403 203.39L381.71 202.995C381.349 201.851 372.722 174.975 358.923 169.947C343.783 164.43 337.313 156.034 333.764 150.198C329.581 143.324 317.452 144.257 316.938 144.3L317.017 145.573C317.135 145.565 328.812 144.669 332.577 150.859C336.224 156.855 342.869 165.481 358.396 171.139C371.604 175.954 380.317 203.117 380.403 203.39Z" fill="black"/>
<path d="M410.763 151.722C418.23 144.067 412.74 139.148 406.382 133.45C401.382 128.968 395.715 123.89 396.492 116.854C397.4 108.632 400.422 103.011 403.088 98.053C407.555 89.7479 410.506 84.26 398.894 72.8509C389.059 63.1886 393.383 51.6925 396.857 42.4545C398.991 36.7861 400.831 31.8888 398.967 28.7959C397.925 27.0679 395.733 25.9324 392.26 25.3285C391.554 25.203 390.906 25.3689 390.278 25.8301C386.083 28.9058 385.013 42.6435 385.003 42.7828L384.994 42.8923L384.946 42.9955C381.612 50.2027 375.803 51.2518 371.134 52.0918C368.344 52.5955 366.141 52.9918 365.144 54.5329C364.163 56.0487 364.354 58.7794 365.73 62.8831C370.996 78.5881 362.266 84.2566 355.25 88.8095C351.309 91.368 347.905 93.5794 347.428 97.0338C346.918 100.722 349.728 105.564 356.272 112.273C371.895 128.286 366.961 134.276 362.19 140.069C358.198 144.915 354.428 149.491 363.082 160.453C371.966 171.707 375.184 185.446 377.534 195.48C379.138 202.327 380.405 207.735 382.662 208.164C383.982 208.414 386.005 206.92 388.676 203.721C389.311 200.732 396.956 165.873 410.763 151.722ZM382.352 209.417C379.259 208.83 378.044 203.643 376.204 195.79C373.88 185.868 370.697 172.279 361.98 161.235C352.721 149.505 356.992 144.32 361.123 139.308C365.749 133.691 370.119 128.388 355.256 113.151C348.43 106.154 345.513 100.992 346.078 96.9069C346.636 92.8715 350.456 90.3918 354.501 87.767C361.481 83.2337 369.393 78.0984 364.431 63.3014C362.91 58.7647 362.769 55.7745 363.987 53.8934C365.311 51.8488 367.909 51.3799 370.917 50.8373C375.462 50.0178 380.611 49.0893 383.654 42.6181C383.771 41.1642 384.939 28.1476 389.459 24.8317C390.41 24.1338 391.447 23.8781 392.547 24.0707C396.424 24.7472 398.912 26.0762 400.156 28.1425C402.319 31.7315 400.382 36.8811 398.14 42.8452C394.614 52.2195 390.618 62.8418 399.892 71.9533C412.152 83.9986 408.858 90.1255 404.3 98.6011C401.688 103.459 398.728 108.963 397.846 116.948C397.136 123.371 402.322 128.018 407.337 132.512C413.628 138.149 420.134 143.979 411.754 152.569C397.899 166.77 390.056 203.715 389.978 204.086L389.946 204.239L389.843 204.364C387.381 207.336 385.447 208.944 383.789 209.361C383.287 209.487 382.811 209.505 382.352 209.417Z" fill="white"/>
<path d="M317.343 73.3732C325.02 68.6002 327.109 84.048 333.47 94.2655C339.831 104.483 373.988 89.222 366.067 120.81C358.147 152.399 387.417 125.332 383.449 152.157C379.481 178.981 395.364 202.604 382.647 198.78C369.93 194.955 366.978 163.177 354.577 162.434C342.175 161.69 339.223 157.927 348.07 145.195C356.917 132.462 313.283 133.016 318.356 110.527C323.428 88.0377 308.474 78.8889 317.343 73.3732Z" fill="#E9A800"/>
<path d="M379.748 196.503C379.586 192.073 377.922 153.142 369.567 150.491C362.204 148.158 358.465 132.795 355.78 118.073C353.402 105.042 336.837 102.852 336.132 102.764L336.05 104.038C336.213 104.057 352.417 106.205 354.617 118.266C357.376 133.385 361.275 149.181 369.281 151.719C375.624 153.732 378.133 184.726 378.564 196.498L379.748 196.503Z" fill="white"/>
<path d="M61.2398 78.9724C61.2398 78.9724 71.5705 77.8952 75.291 87.8194C79.0087 97.7437 82.5163 100.993 82.954 106.205C84.7256 127.293 94.6215 122.525 91.8384 134.68C89.0554 146.835 87.1271 148.672 87.1271 148.672L63.4698 144.057L39.5049 144.133C39.5049 144.133 48.8803 139.474 46.7952 129.55C44.7072 119.626 39.5049 103.359 42.4447 92.2812C45.3785 81.2033 55.0704 79.8171 61.2398 78.9724Z" fill="#16202E"/>
<path d="M109.796 173.786H95.0549C91.9982 168.243 89.515 163.905 89.515 163.905C89.515 163.905 87.529 167.514 85.9854 173.786H36.3579C35.6013 169.873 35.5556 166.121 35.7142 163.452C35.7142 163.452 33.0632 168.222 29.9851 173.786H13.3135C17.7338 165.541 26.0254 150.529 27.9107 148.574C30.278 146.106 43.9905 136.674 53.78 133.599C63.5755 130.52 69.1399 133.489 69.1399 133.489C69.1399 133.489 79.1978 135.293 88.4961 138.963C92.1507 140.405 102.248 158.963 109.796 173.786Z" fill="#FAA146"/>
<path d="M62.6025 84.7782C62.6025 84.7782 76.28 86.7406 74.2785 106.831C72.277 126.925 60.2059 125.329 59.3983 125.312C58.5935 125.294 47.2889 125.731 46.3103 101.214C46.3103 101.214 45.8563 83.0856 62.6025 84.7782Z" fill="#8E4F3A"/>
<path d="M68.6807 121.748C68.6807 121.748 67.8347 132.2 69.8569 135.329C71.879 138.462 68.1266 142.71 60.3946 141.258C52.6627 139.803 53.1108 135.441 53.1108 135.441C53.1108 135.441 55.2774 128.993 54.6436 123.831C54.0099 118.668 68.6807 121.748 68.6807 121.748Z" fill="#8E4F3A"/>
<path d="M61.0403 92.0589C61.0403 92.0589 67.431 98.7441 70.3964 102.129C73.3648 105.514 73.7067 112.053 73.7067 112.053C73.7067 112.053 78.7061 105.975 76.6161 98.8966C74.5262 91.8213 69.577 78.049 57.055 82.2789C44.53 86.5118 44.0672 105.13 45.5352 114.361C45.5352 114.361 51.1566 93.9803 61.0403 92.0589Z" fill="#16202E"/>
<path d="M73.4824 134.408C73.4824 134.408 63.9965 158.313 58.2306 162.469C58.2306 162.469 50.6608 138.087 51.1885 134.517C51.1885 134.517 62.611 130.061 73.4824 134.408Z" fill="#8E4F3A"/>
<path d="M53.4379 128.627C53.4379 128.627 36.5296 143.599 40.9188 152.939C44.6624 160.909 57.942 156.019 55.7518 147.667C53.5617 139.316 53.4379 128.627 53.4379 128.627Z" fill="#16202E"/>
<path d="M55.6489 124.402C55.6489 124.402 61.4788 127.142 67.1524 123.093C67.1524 123.093 65.5777 126.332 61.4021 126.793C57.2266 127.254 55.6489 124.402 55.6489 124.402Z" fill="#633029"/>
</g>
<path d="M206 120.82C206 119.82 206.811 119.009 207.811 119.009H235.585C236.585 119.009 237.396 119.82 237.396 120.82C237.396 121.82 236.585 122.631 235.585 122.631H207.811C206.811 122.631 206 121.82 206 120.82Z" fill="white"/>
<rect width="20.6821" height="3.26918" rx="1.63459" transform="matrix(0.759384 -0.650643 0.736382 0.676566 219.887 132.669)" fill="white"/>
<rect width="20.3126" height="3.6503" rx="1.82515" transform="matrix(0.759384 0.650643 -0.736382 0.676566 222.575 107)" fill="white"/>
<defs>
<filter id="filter0_ddi" x="0" y="0" width="388" height="191.749" filterUnits="userSpaceOnUse" color-interpolation-filters="sRGB">
<feFlood flood-opacity="0" result="BackgroundImageFix"/>
<feColorMatrix in="SourceAlpha" type="matrix" values="0 0 0 0 0 0 0 0 0 0 0 0 0 0 0 0 0 0 127 0"/>
<feOffset dx="8" dy="8"/>
<feGaussianBlur stdDeviation="5"/>
<feColorMatrix type="matrix" values="0 0 0 0 0.682353 0 0 0 0 0.682353 0 0 0 0 0.752941 0 0 0 0.38 0"/>
<feBlend mode="normal" in2="BackgroundImageFix" result="effect1_dropShadow"/>
<feColorMatrix in="SourceAlpha" type="matrix" values="0 0 0 0 0 0 0 0 0 0 0 0 0 0 0 0 0 0 127 0"/>
<feOffset dx="-8" dy="-8"/>
<feGaussianBlur stdDeviation="3"/>
<feColorMatrix type="matrix" values="0 0 0 0 1 0 0 0 0 1 0 0 0 0 1 0 0 0 1 0"/>
<feBlend mode="normal" in2="effect1_dropShadow" result="effect2_dropShadow"/>
<feBlend mode="normal" in="SourceGraphic" in2="effect2_dropShadow" result="shape"/>
<feColorMatrix in="SourceAlpha" type="matrix" values="0 0 0 0 0 0 0 0 0 0 0 0 0 0 0 0 0 0 127 0" result="hardAlpha"/>
<feOffset dx="1" dy="1"/>
<feGaussianBlur stdDeviation="1"/>
<feComposite in2="hardAlpha" operator="arithmetic" k2="-1" k3="1"/>
<feColorMatrix type="matrix" values="0 0 0 0 0 0 0 0 0 0 0 0 0 0 0 0 0 0 0.25 0"/>
<feBlend mode="normal" in2="shape" result="effect3_innerShadow"/>
</filter>
<linearGradient id="paint0_linear" x1="271.333" y1="14" x2="246.457" y2="188.69" gradientUnits="userSpaceOnUse">
<stop stop-color="#9B51E0"/>
<stop offset="1" stop-color="#9B51E0"/>
</linearGradient>
</defs>
</svg>
