<svg width="57" height="51" viewBox="0 0 57 51" fill="none" xmlns="http://www.w3.org/2000/svg">
<path d="M36.4111 28.4784C36.4111 27.3738 37.3066 26.4784 38.4111 26.4784H47.3275C48.4321 26.4784 49.3275 27.3738 49.3275 28.4784V33.3785C49.3275 34.4831 48.4321 35.3785 47.3275 35.3785H38.4111C37.3066 35.3785 36.4111 34.4831 36.4111 33.3785V28.4784Z" fill="#FFCB11"/>
<path d="M48.3339 24.6834V18.5678C48.3339 16.4941 46.7178 14.8076 44.676 14.6441L38.9698 4.72417C38.441 3.80672 37.5871 3.15098 36.5654 2.87869C35.5485 2.60826 34.4851 2.75029 33.575 3.27753L14.0138 14.6122H10.5783C8.38646 14.6122 6.604 16.3862 6.604 18.5678V42.3014C6.604 44.483 8.38637 46.2571 10.5783 46.2571H44.3596C46.5515 46.2571 48.3339 44.4831 48.3339 42.3014V36.1859C49.4879 35.7763 50.321 34.6889 50.321 33.4013V27.4679C50.321 26.1804 49.4879 25.093 48.3339 24.6834ZM42.3669 14.6122H33.707L40.202 10.8486L42.3669 14.6122ZM39.2148 9.13223L29.7576 14.6122H25.8349L38.2339 7.42721L39.2148 9.13223ZM34.5753 4.98682C35.0245 4.7251 35.5494 4.65556 36.0511 4.78888C36.5586 4.92405 37.1417 5.25466 37.4046 5.71144L22.0043 14.6122H17.9633L34.5753 4.98682ZM46.3467 42.3014C46.3467 43.3917 45.455 44.2792 44.3596 44.2792H10.5783C9.4829 44.2792 8.5912 43.3917 8.5912 42.3014V18.5678C8.5912 17.4776 9.4829 16.5901 10.5783 16.5901H44.3596C45.455 16.5901 46.3467 17.4776 46.3467 18.5678V24.5012H40.3853C37.098 24.5012 34.4239 27.1627 34.4239 30.4346C34.4239 33.7065 37.098 36.368 40.3853 36.368H46.3467V42.3014ZM48.3339 33.4013C48.3339 33.9469 47.8886 34.3903 47.3403 34.3903H40.3853C38.1935 34.3903 36.411 32.6163 36.411 30.4346C36.411 28.2531 38.1934 26.479 40.3853 26.479H47.3403C47.8885 26.479 48.3339 26.9222 48.3339 27.4679V33.4013Z" fill="#636363"/>
<path d="M40.3854 11.1504L37.4047 5.71144L22.0044 14.6116H33.9272L40.3854 11.1504Z" fill="#FFCB11"/>
<rect x="0.5" y="0.5" width="56" height="50" stroke="#F7F7F7" stroke-opacity="0.04"/>
</svg>
