<svg width="52" height="46" viewBox="0 0 52 46" fill="none" xmlns="http://www.w3.org/2000/svg">
<path d="M28.2031 0.914065L51.9922 0.914067L51.9922 19.2344C51.9922 25.9792 50.5885 31.3021 47.7812 35.2031C44.974 39.1042 40.1615 42.5495 33.3438 45.5391L28.2031 35.8047C32.3958 33.8359 35.2943 31.8672 36.8984 29.8984C38.5026 27.9661 39.3958 25.6693 39.5781 23.0078L28.2031 23.0078L28.2031 0.914065ZM0.476566 0.914062L24.2656 0.914065L24.2656 19.2344C24.2656 25.9792 22.862 31.3021 20.0547 35.2031C17.2474 39.1042 12.4349 42.5495 5.61719 45.5391L0.476562 35.8047C4.66927 33.8359 7.56771 31.8672 9.17188 29.8984C10.776 27.9661 11.6693 25.6693 11.8516 23.0078L0.476564 23.0078L0.476566 0.914062Z" fill="#DADADA"/>
</svg>
