<svg width="18" height="18" viewBox="0 0 18 18" fill="none" xmlns="http://www.w3.org/2000/svg">
<path d="M8.33 10.52C8.33 9.98 8.45 9.535 8.69 9.185C8.94 8.825 9.3 8.435 9.77 8.015C10.13 7.695 10.395 7.42 10.565 7.19C10.745 6.95 10.835 6.68 10.835 6.38C10.835 5.96 10.665 5.62 10.325 5.36C9.985 5.1 9.53 4.97 8.96 4.97C7.88 4.97 7.065 5.355 6.515 6.125L5.06 5.18C5.49 4.59 6.045 4.14 6.725 3.83C7.405 3.51 8.205 3.35 9.125 3.35C10.245 3.35 11.135 3.595 11.795 4.085C12.465 4.565 12.8 5.23 12.8 6.08C12.8 6.49 12.73 6.85 12.59 7.16C12.46 7.47 12.3 7.735 12.11 7.955C11.92 8.165 11.67 8.41 11.36 8.69C10.98 9.03 10.695 9.33 10.505 9.59C10.325 9.85 10.235 10.16 10.235 10.52H8.33ZM9.29 14.105C8.94 14.105 8.65 13.995 8.42 13.775C8.2 13.545 8.09 13.265 8.09 12.935C8.09 12.605 8.2 12.33 8.42 12.11C8.65 11.89 8.94 11.78 9.29 11.78C9.63 11.78 9.91 11.89 10.13 12.11C10.36 12.33 10.475 12.605 10.475 12.935C10.475 13.265 10.36 13.545 10.13 13.775C9.91 13.995 9.63 14.105 9.29 14.105Z" fill="#969696"/>
<circle cx="9" cy="9" r="8" stroke="#969696" stroke-width="2"/>
</svg>
