<svg width="17" height="17" viewBox="0 0 17 17" fill="none" xmlns="http://www.w3.org/2000/svg">
<path d="M15.1847 1H1.81525C1.02751 1 0.549056 1.86851 0.969997 2.53436L6.29353 10.9552C6.39462 11.1151 6.44828 11.3004 6.44828 11.4896V15C6.44828 15.5523 6.89599 16 7.44828 16H9.55172C10.104 16 10.5517 15.5523 10.5517 15V11.4896C10.5517 11.3004 10.6054 11.1151 10.7065 10.9552L16.03 2.53436C16.4509 1.86851 15.9725 1 15.1847 1Z" stroke="#FFCB11" stroke-width="1.5"/>
<path d="M6.16169 6.99253L4.01823 3.77735C3.79672 3.44507 4.03491 3 4.43426 3H12.6384C13.0223 3 13.263 3.41474 13.0725 3.74807L11.5948 6.33414C11.5337 6.44095 11.4347 6.53183 11.3118 6.52618C10.89 6.50678 10.4748 6 9.5 6C8.72274 6 7.64342 6.60413 6.96638 7.10804C6.71327 7.29643 6.33671 7.25506 6.16169 6.99253Z" fill="#FFCB11"/>
</svg>
