<svg width="18" height="18" viewBox="0 0 18 18" fill="none" xmlns="http://www.w3.org/2000/svg">
<rect x="0.75" y="0.75" width="6.5" height="6.5" rx="2.25" stroke="#FFCB11" stroke-width="1.5"/>
<rect x="0.75" y="0.75" width="6.5" height="6.5" rx="2.25" stroke="#FFCB11" stroke-width="1.5"/>
<rect x="0.75" y="0.75" width="6.5" height="6.5" rx="2.25" stroke="#FFCB11" stroke-width="1.5"/>
<rect x="0.75" y="0.75" width="6.5" height="6.5" rx="2.25" stroke="#FFCB11" stroke-width="1.5"/>
<rect x="10.75" y="0.75" width="6.5" height="6.5" rx="2.25" stroke="#FFCB11" stroke-width="1.5"/>
<rect x="10.75" y="0.75" width="6.5" height="6.5" rx="2.25" stroke="#FFCB11" stroke-width="1.5"/>
<rect x="10.75" y="0.75" width="6.5" height="6.5" rx="2.25" stroke="#FFCB11" stroke-width="1.5"/>
<rect x="10.75" y="0.75" width="6.5" height="6.5" rx="2.25" stroke="#FFCB11" stroke-width="1.5"/>
<rect x="0.75" y="10.75" width="6.5" height="6.5" rx="2.25" stroke="#FFCB11" stroke-width="1.5"/>
<rect x="0.75" y="10.75" width="6.5" height="6.5" rx="2.25" stroke="#FFCB11" stroke-width="1.5"/>
<rect x="0.75" y="10.75" width="6.5" height="6.5" rx="2.25" stroke="#FFCB11" stroke-width="1.5"/>
<rect x="0.75" y="10.75" width="6.5" height="6.5" rx="2.25" stroke="#FFCB11" stroke-width="1.5"/>
<rect x="10.75" y="10.75" width="6.5" height="6.5" rx="2.25" stroke="#FFCB11" stroke-width="1.5"/>
<rect x="10.75" y="10.75" width="6.5" height="6.5" rx="2.25" stroke="#FFCB11" stroke-width="1.5"/>
<rect x="10.75" y="10.75" width="6.5" height="6.5" rx="2.25" stroke="#FFCB11" stroke-width="1.5"/>
<rect x="10.75" y="10.75" width="6.5" height="6.5" rx="2.25" stroke="#FFCB11" stroke-width="1.5"/>
</svg>
