<svg width="16" height="15" viewBox="0 0 16 15" fill="none" xmlns="http://www.w3.org/2000/svg">
<path d="M10.544 9.00463C10.8201 9.00719 11.0419 9.23311 11.0393 9.50924L11.0006 13.6806C10.9981 13.9567 10.7721 14.1785 10.496 14.1759C10.2199 14.1734 9.99812 13.9474 10.0007 13.6713L10.0394 9.49997C10.0419 9.22384 10.2678 9.00207 10.544 9.00463Z" fill="#FFCB11"/>
<rect width="3.65274" height="0.930365" rx="0.465182" transform="matrix(0.643574 0.765383 -0.683364 0.730077 8.63574 10.8342)" fill="#FFCB11"/>
<rect width="3.69975" height="0.845578" rx="0.422789" transform="matrix(-0.657656 0.753318 -0.66971 -0.742623 13.0469 11.4947)" fill="#FFCB11"/>
<rect width="16" height="2" rx="1" fill="#FFCB11"/>
<rect y="5" width="11" height="2" rx="1" fill="#FFCB11"/>
<rect y="10" width="7" height="2" rx="1" fill="#FFCB11"/>
</svg>
